<svg width="238" height="41" viewBox="0 0 238 41" fill="none" xmlns="http://www.w3.org/2000/svg">
<path d="M101.326 4.03347V34.1894C101.326 36.393 101.636 38.5968 102.246 40.4784H92.8562C93.4658 38.5968 93.776 36.4034 93.776 34.1894V4.03347H87.7659C84.0017 4.11663 80.2696 4.57401 76.6016 5.38482L77.457 0.124954H117.645L118.5 5.38482C114.832 4.57401 111.089 4.12703 107.336 4.03347H101.326Z" fill="#7A253A"/>
<path d="M237.958 35.2289L237.091 38.7632L236.675 40.4784H196.797L204.507 30.863L225.937 4.03347H210.549C206.315 4.07505 202.092 4.53243 197.952 5.416L199.257 0.124954H237.969L213.822 30.9981L210.807 34.8442L209.277 36.7673H209.298L224.227 36.6322C229.125 36.5905 233.136 36.1229 237.948 35.2289" fill="#7A253A"/>
<path d="M136.125 39.4285C136.253 39.8547 136.392 40.2808 136.521 40.468H127.057C127.185 40.2705 127.324 39.8547 127.452 39.4285C127.591 39.0231 127.698 38.6073 127.773 38.1915L127.987 35.5927V5.24976L127.773 2.65102C127.698 2.23522 127.591 1.81942 127.452 1.41401C127.324 0.987819 127.185 0.561623 127.057 0.114639H136.521C136.392 0.561623 136.253 0.987819 136.125 1.41401C135.986 1.81942 135.879 2.23522 135.804 2.65102L135.59 5.24976V35.5927L135.804 38.1915C135.879 38.6073 135.986 39.0231 136.125 39.4285Z" fill="#7A253A"/>
<path d="M75.0094 31.2997L70.1757 20.4162L68.3148 16.0919L61.1286 0.0212326H60.6154H53.5895L55.6747 5.05241C56.4339 6.74679 56.4768 8.73223 55.803 10.4682L48.7023 30.4266L36.0728 0.0420226H32.501H32.2551H27.9347L30.3729 5.35387C31.1428 7.02746 31.207 9.0129 30.5441 10.7489C30.4906 10.8944 30.4371 11.0295 30.3943 11.1439C28.6191 15.8216 26.5339 21.0087 24.1384 26.7155L21.8499 32.0275C21.6789 32.5055 21.4863 32.9734 21.2616 33.4308C20.8768 34.2728 20.5881 34.9068 20.3849 35.333C19.9035 36.4452 19.3583 37.5056 18.7379 38.5347C18.2353 39.3559 17.8396 40.0003 17.5723 40.4993H25.9136L25.1115 39.1895C25.0152 38.6283 25.0045 38.0461 25.0794 37.4743C25.4431 35.5825 26.0098 33.7634 26.769 32.0378C28.9293 26.2997 31.0895 20.5722 33.2924 14.8653C33.6773 13.857 34.073 12.859 34.458 11.8611L45.3016 40.5097H49.5151L59.1396 12.5056C59.6528 13.6699 60.1662 14.8445 60.6902 16.0087C62.0697 19.1168 63.4492 22.2353 64.8286 25.3435C65.8339 27.5888 66.8285 29.8548 67.8445 32.1001L68.0048 32.4848L68.1225 32.8902C68.2187 33.0669 68.3042 33.2541 68.3898 33.4516C68.6999 34.1064 68.9994 34.8236 69.2988 35.5825C69.6303 36.3621 69.9297 37.1521 70.197 37.9629C70.3895 38.5762 70.1329 39.3144 69.8977 40.4993H80.3563C79.351 39.1169 78.4314 37.7239 77.5865 36.2581C76.763 34.834 75.8755 33.1813 74.9879 31.3206" fill="#7A253A"/>
<path d="M8.69415 2.61972C8.769 2.20392 8.87595 1.78812 9.01496 1.38271C9.14329 0.956519 9.27162 0.54072 9.41064 0.0937347H0C0.128327 0.54072 0.256653 0.956519 0.395674 1.38271C0.534695 1.78812 0.641635 2.19353 0.716492 2.61972L0.930369 5.19767V35.364L0.716492 37.9419C0.641635 38.3577 0.534695 38.7735 0.395674 39.1789C0.267348 39.6052 0.128327 40.021 0 40.4679H9.39995C9.27162 40.021 9.14329 39.6052 9.00428 39.1789C8.86525 38.7735 8.7583 38.3577 8.68345 37.9419L8.46957 35.364V5.19767L8.68345 2.61972H8.69415Z" fill="#7A253A"/>
<path d="M177.21 40.4364L189.347 40.4157L188.866 39.8441C187.85 38.6173 186.898 37.3285 186.054 36.0083C183.829 32.5259 182.097 28.7214 180.428 25.0416C180.087 24.2723 179.734 23.5134 179.381 22.7546C178.46 20.7588 177.541 18.7525 176.622 16.7568C175.701 14.7609 174.794 12.7547 173.863 10.7588C173.371 9.70893 172.89 8.65903 172.409 7.60913C171.959 6.62161 171.5 5.63409 171.05 4.64656L169.072 0H160.356L160.944 0.60291C161.49 1.16424 161.533 1.30977 161.607 1.53846V1.58004C161.693 1.88149 161.725 2.18295 161.725 2.48441C161.704 3.02494 161.607 3.56549 161.447 4.08523L161.415 4.18918C161.372 4.3347 161.319 4.49064 161.276 4.61537C156.71 14.8233 148.015 34.262 147.759 34.7504C147.192 35.8627 146.55 36.9438 145.845 37.9417C145.321 38.6901 144.893 39.2723 144.583 39.6985L144.059 40.4261H153.886L152.56 38.6694C152.464 38.16 152.453 37.6403 152.539 37.1413C152.582 36.9438 153.159 35.4261 156.485 27.5467C157.79 27.1933 159.116 26.9854 160.41 26.9334H169.511C170.815 26.9854 172.141 27.1933 173.456 27.5467C173.958 28.5654 177.028 34.7608 178.396 38.16C178.46 38.7733 178.247 39.3866 177.809 39.8337L177.221 40.4364H177.21ZM164.708 8.24323L171.478 22.9106H158.463C161.019 16.9126 163.821 10.3326 164.708 8.24323Z" fill="#7A253A"/>
</svg>
