<svg width="1617" height="1072" viewBox="0 0 1617 1072" fill="none" xmlns="http://www.w3.org/2000/svg">
<g opacity="0.6">
<mask id="mask0_645_2310" style="mask-type:luminance" maskUnits="userSpaceOnUse" x="0" y="0" width="1617" height="1072">
<path d="M1107.06 0.307547H925.653L979.578 133.84C999.16 178.692 1000.39 231.49 982.859 277.573L795.196 811.599L447.346 0.717637L381.528 0.512592H375.121L263.528 0.307547L326.372 141.324C346.107 185.817 347.799 238.359 330.883 284.339C329.397 288.286 328.166 291.874 327.039 294.847C281.11 419.05 227.287 556.683 165.672 707.952L106.672 848.763C102.366 861.526 97.2402 873.983 91.4478 885.875C81.4521 908.276 73.9681 925.191 68.7909 936.366C56.386 965.789 42.1357 994.085 26.3476 1021.25C15.4805 1039.5 6.6638 1054.21 0 1066.31V1072H210.73L190.738 1038.63C188.227 1023.56 187.919 1008.28 189.969 993.111C199.196 942.979 213.857 894.487 233.643 848.814C289.26 696.623 345.031 544.689 402.083 393.113C402.083 393.113 402.288 393.113 402.288 392.908C412.335 366.201 422.331 339.802 432.378 313.096L753.112 1071.95H821.492L1069.49 330.268C1082.66 361.178 1096.14 392.344 1109.68 423.254C1145.4 505.731 1180.82 588.465 1216.55 670.891C1242.44 730.609 1268.22 790.583 1294.37 850.096L1298.62 860.45L1301.64 871.061C1304.11 875.828 1306.36 880.852 1308.62 885.977C1316.71 903.355 1324.4 922.27 1332.25 942.466C1340.91 963.073 1348.6 984.192 1355.42 1005.72C1360.23 1021.66 1345.42 1045.6 1327.79 1071.9H1616.64C1588.91 1040.68 1576.71 1033.86 1546.1 960.766C1529.39 920.834 1502.07 879.16 1478.9 829.694L1478.8 829.797L1354.13 540.895L1306.05 426.175L1119.42 0L1107.11 0.102542L1107.06 0.307547Z" fill="white"/>
</mask>
<g mask="url(#mask0_645_2310)">
<path d="M624.656 2774.96L611.483 2795.31L-415.562 392.959L-402.44 372.66L624.656 2774.96Z" fill="white"/>
<path d="M644.34 2742.36L631.372 2762.45L-388.395 377.171L-375.426 357.128L644.34 2742.36Z" fill="white"/>
<path d="M664.026 2709.76L651.211 2729.54L-361.225 361.434L-348.41 341.648L664.026 2709.76Z" fill="white"/>
<path d="M683.706 2677.16L671.096 2696.69L-334.061 345.646L-321.451 326.116L683.706 2677.16Z" fill="white"/>
<path d="M703.394 2644.55L690.938 2663.78L-306.838 329.858L-294.433 310.635L703.394 2644.55Z" fill="white"/>
<path d="M723.025 2611.95L710.825 2630.87L-279.672 314.07L-267.472 295.155L723.025 2611.95Z" fill="white"/>
<path d="M742.709 2579.35L730.663 2598.01L-252.504 298.282L-240.458 279.623L742.709 2579.35Z" fill="white"/>
<path d="M762.393 2546.75L750.552 2565.1L-225.336 282.494L-213.444 264.143L762.393 2546.75Z" fill="white"/>
<path d="M782.077 2514.15L770.389 2532.24L-198.168 266.757L-186.481 248.611L782.077 2514.15Z" fill="white"/>
<path d="M801.761 2481.55L790.227 2499.33L-171 250.969L-159.467 233.13L801.761 2481.55Z" fill="white"/>
<path d="M821.443 2448.95L810.114 2466.48L-143.834 235.181L-132.454 217.65L821.443 2448.95Z" fill="white"/>
<path d="M841.127 2416.29L829.952 2433.57L-116.666 219.393L-105.491 202.118L841.127 2416.29Z" fill="white"/>
<path d="M860.81 2383.69L849.841 2400.71L-89.4473 203.605L-78.4776 186.638L860.81 2383.69Z" fill="white"/>
<path d="M880.494 2351.09L869.678 2367.8L-62.2793 187.817L-51.5147 171.106L880.494 2351.09Z" fill="white"/>
<path d="M900.18 2318.49L889.57 2334.94L-35.1094 172.028L-24.4986 155.625L900.18 2318.49Z" fill="white"/>
<path d="M919.864 2285.89L909.407 2302.03L-7.94141 156.292L2.51563 140.145L919.864 2285.89Z" fill="white"/>
<path d="M939.546 2253.29L929.294 2269.18L19.2246 140.504L29.4766 124.613L939.546 2253.29Z" fill="white"/>
<path d="M959.232 2220.68L949.134 2236.27L46.3945 124.715L56.4927 109.132L959.232 2220.68Z" fill="white"/>
<path d="M978.916 2188.08L969.023 2203.41L73.5625 108.927L83.4557 93.6006L978.916 2188.08Z" fill="white"/>
<path d="M998.6 2155.48L988.861 2170.5L100.73 93.1392L110.47 78.12L998.6 2155.48Z" fill="white"/>
<path d="M1018.28 2122.88L1008.75 2137.64L127.945 77.3512L137.48 62.6396L1018.28 2122.88Z" fill="white"/>
<path d="M1037.97 2090.28L1028.59 2104.73L155.117 61.5632L164.447 47.1079L1037.97 2090.28Z" fill="white"/>
<path d="M1057.65 2057.68L1048.47 2071.88L182.281 45.8264L191.457 31.6273L1057.65 2057.68Z" fill="white"/>
<path d="M1077.33 2025.08L1068.31 2038.97L209.451 30.0384L218.422 16.0957L1077.33 2025.08Z" fill="white"/>
<path d="M1097.02 1992.42L1088.2 2006.06L236.619 14.2502L245.436 0.615082L1097.02 1992.42Z" fill="white"/>
<path d="M1116.7 1959.82L1108.04 1973.2L263.787 -1.53792L272.45 -14.9168L1116.7 1959.82Z" fill="white"/>
<path d="M1136.33 1927.22L1127.93 1940.29L290.955 -17.3258L299.413 -30.3972L1136.33 1927.22Z" fill="white"/>
<path d="M1156.02 1894.62L1147.77 1907.44L318.123 -33.1139L326.427 -45.8776L1156.02 1894.62Z" fill="white"/>
<path d="M1175.7 1862.02L1167.65 1874.53L345.342 -48.8508L353.39 -61.4095L1175.7 1862.02Z" fill="white"/>
<path d="M1195.39 1829.42L1187.49 1841.67L372.51 -64.6389L380.404 -76.89L1195.39 1829.42Z" fill="white"/>
<path d="M1215.07 1796.82L1207.33 1808.76L399.676 -80.427L407.416 -92.4218L1215.07 1796.82Z" fill="white"/>
<path d="M1234.75 1764.21L1227.22 1775.9L426.844 -96.215L434.379 -107.902L1234.75 1764.21Z" fill="white"/>
<path d="M1254.44 1731.61L1247.06 1742.99L454.014 -112.003L461.395 -123.383L1254.44 1731.61Z" fill="white"/>
<path d="M1274.12 1699.01L1266.94 1710.14L481.18 -127.791L488.356 -138.915L1274.12 1699.01Z" fill="white"/>
<path d="M1293.81 1666.41L1286.78 1677.23L508.35 -143.579L515.372 -154.395L1293.81 1666.41Z" fill="white"/>
<path d="M1313.49 1633.81L1306.67 1644.37L535.566 -159.367L542.384 -169.927L1313.49 1633.81Z" fill="white"/>
<path d="M1333.17 1601.16L1326.51 1611.46L562.734 -175.104L569.347 -185.407L1333.17 1601.16Z" fill="white"/>
<path d="M1352.85 1568.56L1346.4 1578.6L589.9 -190.892L596.359 -200.888L1352.85 1568.56Z" fill="white"/>
<path d="M1372.54 1535.95L1366.23 1545.69L617.07 -206.68L623.324 -216.42L1372.54 1535.95Z" fill="white"/>
<path d="M1392.22 1503.35L1386.12 1512.84L644.238 -222.468L650.338 -231.9L1392.22 1503.35Z" fill="white"/>
<path d="M1411.91 1470.75L1405.96 1479.93L671.406 -238.256L677.352 -247.432L1411.91 1470.75Z" fill="white"/>
<path d="M1431.59 1438.15L1425.85 1447.02L698.574 -254.045L704.315 -262.913L1431.59 1438.15Z" fill="white"/>
<path d="M1451.28 1405.55L1445.69 1414.16L725.742 -269.781L731.33 -278.393L1451.28 1405.55Z" fill="white"/>
<path d="M1470.96 1372.95L1465.58 1381.25L752.961 -285.569L758.343 -293.925L1470.96 1372.95Z" fill="white"/>
<path d="M1490.64 1340.35L1485.41 1348.39L780.125 -301.357L785.302 -309.405L1490.64 1340.35Z" fill="white"/>
<path d="M1510.33 1307.74L1505.3 1315.48L807.297 -317.146L812.32 -324.937L1510.33 1307.74Z" fill="white"/>
<path d="M1530.01 1275.14L1525.14 1282.63L834.463 -332.934L839.281 -340.418L1530.01 1275.14Z" fill="white"/>
<path d="M1549.64 1242.54L1545.03 1249.72L861.633 -348.722L866.297 -355.898L1549.64 1242.54Z" fill="white"/>
<path d="M1569.33 1209.94L1564.87 1216.86L888.799 -364.51L893.31 -371.43L1569.33 1209.94Z" fill="white"/>
<path d="M1589.01 1177.29L1584.71 1183.95L915.969 -380.247L920.275 -386.91L1589.01 1177.29Z" fill="white"/>
<path d="M1608.7 1144.69L1604.6 1151.09L943.137 -396.035L947.289 -402.442L1608.7 1144.69Z" fill="white"/>
<path d="M1624.28 1112.09L1620.38 1118.19L966.252 -411.823L970.199 -417.923L1624.28 1112.09Z" fill="white"/>
</g>
</g>
</svg>
