<svg width="1207" height="796" viewBox="0 0 1207 796" fill="none" xmlns="http://www.w3.org/2000/svg">
<path d="M1206.3 795.676H982.347C984.609 784.287 986.467 773.18 989.052 762.235C991.677 751.169 991.031 740.628 986.669 730.086C974.956 701.654 963.607 673.1 951.814 644.667C939.173 614.174 926.41 583.762 913.365 553.431C874.109 462.276 834.731 371.202 795.393 280.128C794.828 278.836 794.182 277.584 793.091 275.322C792.162 277.745 791.516 279.28 790.991 280.855C747.009 412.519 703.027 544.182 659.085 675.806C646.242 714.295 633.277 752.784 620.555 791.354C619.424 794.828 617.89 796.039 614.134 795.999C586.711 795.837 559.247 795.797 531.824 795.999C527.906 795.999 526.25 794.828 524.958 791.193C473.706 651.654 422.373 512.155 371.081 372.656C358.278 337.883 345.556 303.109 332.753 268.335C332.228 266.841 331.501 265.427 330.532 263.166C329.038 267.043 327.826 270.153 326.655 273.262C283.521 389.7 240.589 506.218 197.172 622.534C186.954 649.877 176.009 676.896 169.789 705.49C167.003 718.334 165.064 731.46 163.61 744.545C162.722 752.461 164.983 759.933 169.628 766.88C175.726 775.926 180.936 785.579 186.873 795.514H0C2.70597 790.345 5.12911 785.337 7.83508 780.45C20.5976 757.51 34.8544 735.256 45.961 711.508C65.1047 670.515 82.633 628.754 100.282 587.074C152.544 463.488 201.776 338.65 248.222 212.762C260.46 179.604 259.45 146.728 245.153 114.378C229.119 78.15 212.923 41.9627 196.809 5.77543C196.041 4.03876 195.395 2.30209 194.507 0C201.655 0 208.238 0 214.821 0C263.731 0 312.64 0.121163 361.55 0.0403876C365.427 0.0403876 367.446 1.00969 369.021 4.92729C443.779 190.306 518.698 375.605 593.617 560.943C594.263 562.559 594.99 564.174 596.04 566.598C597.009 564.295 597.857 562.68 598.423 560.984C638.932 443.779 679.158 326.493 720.07 209.45C731.581 176.494 732.59 144.264 719.545 111.833C705.208 76.2922 690.789 40.7511 676.411 5.21C675.805 3.75605 675.361 2.22132 674.553 0H680.612C729.036 0 777.461 0 825.886 0C835.256 0 835.215 0 838.931 8.48139C882.913 109.531 927.138 210.419 970.797 311.59C1008.28 398.383 1045.35 485.378 1082.27 572.454C1115.1 649.917 1154.6 723.625 1203.99 791.839C1204.72 792.849 1205.33 793.98 1206.38 795.595L1206.3 795.676Z" fill="white"/>
</svg>
