<svg width="31" height="27" viewBox="0 0 31 27" fill="none" xmlns="http://www.w3.org/2000/svg">
<path d="M25.5 3.83333C25.5 5.16667 21.6111 6.05556 19.6667 6.33333V19.6667C19.6667 19.6667 25.5 19.6667 25.5 16.8373V3.83333ZM25.5 3.83333C25.5 2.16667 23 0.5 15.5 0.5C8 0.5 5.5 2.16667 5.5 3.83333M5.5 3.83333C5.5 5.16667 9.38889 6.05556 11.3333 6.33333V19.6667C11.3333 19.6667 5.5 19.6667 5.5 16.8373V3.83333Z" stroke="white"/>
<path d="M5.23729 12.1667C2.32978 13.4228 0.5 15.2482 0.5 17.2798C0.5 20.3606 4.70741 22.967 10.5 23.8334" stroke="white"/>
<path d="M20.2167 14.1276C18.7337 13.9368 17.1482 13.8335 15.5007 13.8335C14.0549 13.8335 12.6569 13.913 11.334 14.0615" stroke="white"/>
<path d="M20.5 23.8334C26.2926 22.967 30.5 20.3606 30.5 17.2798C30.5 15.2482 28.6702 13.4228 25.7627 12.1667" stroke="white"/>
<path d="M18.834 23.8335L20.709 21.6684L20.709 25.9986L18.834 23.8335Z" fill="white"/>
<path d="M12.166 23.8335L10.291 21.6684L10.291 25.9986L12.166 23.8335Z" fill="white"/>
</svg>
