<svg width="24" height="24" viewBox="0 0 24 24" fill="none" xmlns="http://www.w3.org/2000/svg">
<path d="M9.5 8H6.5V12H9.5V24H14.5V12H18.142L18.5 8H14.5V6.333C14.5 5.378 14.692 5 15.615 5H18.5V0H14.692C11.096 0 9.5 1.583 9.5 4.615V8Z" fill="#F0F0F0"/>
<mask id="mask0_662_8164" style="mask-type:luminance" maskUnits="userSpaceOnUse" x="6" y="0" width="13" height="24">
<path d="M9.5 8H6.5V12H9.5V24H14.5V12H18.142L18.5 8H14.5V6.333C14.5 5.378 14.692 5 15.615 5H18.5V0H14.692C11.096 0 9.5 1.583 9.5 4.615V8Z" fill="white"/>
</mask>
<g mask="url(#mask0_662_8164)">
<rect x="6" width="13" height="24" fill="#F0F0F0"/>
</g>
</svg>
