<svg width="25" height="25" viewBox="0 0 25 25" fill="none" xmlns="http://www.w3.org/2000/svg">
<path d="M21.2407 0.5H3.09259C1.66074 0.5 0.5 1.66074 0.5 3.09259V21.2407C0.5 22.6726 1.66074 23.8333 3.09259 23.8333H21.2407C22.6726 23.8333 23.8333 22.6726 23.8333 21.2407V3.09259C23.8333 1.66074 22.6726 0.5 21.2407 0.5Z" stroke="white" stroke-linecap="round" stroke-linejoin="round"/>
<path d="M0.5 17.1668L6.98148 8.8335L13.463 17.1668L18.6481 13.8335L23.8333 17.1668" stroke="white" stroke-linejoin="round"/>
<path d="M17.165 4.3335C18.7297 4.3335 19.9988 5.60185 19.999 7.1665C19.999 8.73131 18.7298 10.0005 17.165 10.0005C15.6004 10.0003 14.332 8.7312 14.332 7.1665C14.3322 5.60196 15.6005 4.33367 17.165 4.3335Z" stroke="white"/>
</svg>
