<svg width="24" height="24" viewBox="0 0 24 24" fill="none" xmlns="http://www.w3.org/2000/svg">
<path d="M17 2C19.7614 2 22 4.23858 22 7V17C22 19.7614 19.7614 22 17 22H7C4.23858 22 2 19.7614 2 17V7C2 4.23858 4.23858 2 7 2H17ZM12.6299 8C11.7978 7.87662 10.9479 8.01895 10.2012 8.40625C9.45446 8.79371 8.848 9.4068 8.46973 10.1582C8.09147 10.9097 7.96009 11.7621 8.09375 12.5928C8.22745 13.4233 8.61998 14.1903 9.21484 14.7852C9.8097 15.38 10.5767 15.7725 11.4072 15.9062C12.2379 16.0399 13.0903 15.9085 13.8418 15.5303C14.5931 15.152 15.2063 14.5464 15.5938 13.7998C15.9812 13.053 16.1234 12.2024 16 11.3701C15.8741 10.5212 15.4779 9.73572 14.8711 9.12891C14.2643 8.5221 13.4788 8.12591 12.6299 8Z" fill="#F0F0F0"/>
<path d="M17.5 6.5H17.51" stroke="#333333" stroke-width="2" stroke-linecap="round" stroke-linejoin="round"/>
</svg>
