<svg width="24" height="24" viewBox="0 0 24 24" fill="none" xmlns="http://www.w3.org/2000/svg">
<path d="M7.06393 8.91895H3.30273V20.9131H7.06393V8.91895Z" fill="#F0F0F0"/>
<path d="M17.2396 8.65908C17.101 8.64174 16.9537 8.63308 16.8063 8.62441C14.7004 8.53775 13.5131 9.7857 13.0971 10.323C12.9845 10.4703 12.9325 10.557 12.9325 10.557V8.95373H9.33594V20.9479H12.9325H13.0971C13.0971 19.7259 13.0971 18.5127 13.0971 17.2907C13.0971 16.6321 13.0971 15.9734 13.0971 15.3148C13.0971 14.5002 13.0365 13.6335 13.4438 12.8882C13.7904 12.2643 14.4144 11.9523 15.1164 11.9523C17.1963 11.9523 17.2396 13.8329 17.2396 14.0062C17.2396 14.0149 17.2396 14.0235 17.2396 14.0235V20.9999H21.0008V13.1742C21.0008 10.4963 19.6402 8.91907 17.2396 8.65908Z" fill="#F0F0F0"/>
<path d="M5.18392 7.36782C6.39006 7.36782 7.36784 6.39005 7.36784 5.18391C7.36784 3.97777 6.39006 3 5.18392 3C3.97777 3 3 3.97777 3 5.18391C3 6.39005 3.97777 7.36782 5.18392 7.36782Z" fill="#F0F0F0"/>
</svg>
