<svg width="24" height="24" viewBox="0 0 24 24" fill="none" xmlns="http://www.w3.org/2000/svg">
<path d="M4.38477 3.18457C7.98377 2.93957 16.0112 2.93857 19.6152 3.18457C23.516 3.45164 23.971 5.81618 24 12.001C23.971 18.1965 23.5119 20.5503 19.6152 20.8164C16.0112 21.0624 7.98477 21.0614 4.38477 20.8164C0.484063 20.5493 0.0290157 18.1855 0 12.001C0.0289994 5.80518 0.487971 3.45064 4.38477 3.18457ZM9 16.001L17 11.9932L9 8.00098V16.001Z" fill="#F0F0F0"/>
<mask id="mask0_662_8167" style="mask-type:luminance" maskUnits="userSpaceOnUse" x="0" y="3" width="24" height="19">
<path d="M4.38477 3.18457C7.98377 2.93957 16.0112 2.93857 19.6152 3.18457C23.516 3.45164 23.971 5.81618 24 12.001C23.971 18.1965 23.5119 20.5503 19.6152 20.8164C16.0112 21.0624 7.98477 21.0614 4.38477 20.8164C0.484063 20.5493 0.0290157 18.1855 0 12.001C0.0289994 5.80518 0.487971 3.45064 4.38477 3.18457ZM9 16.001L17 11.9932L9 8.00098V16.001Z" fill="white"/>
</mask>
<g mask="url(#mask0_662_8167)">
<rect width="24" height="24" fill="#F0F0F0"/>
</g>
</svg>
