<svg width="32" height="32" viewBox="0 0 32 32" fill="none" xmlns="http://www.w3.org/2000/svg">
<path d="M15.991 20.415H10.734C10.6014 20.415 10.4743 20.3623 10.3806 20.2685C10.2869 20.1748 10.2343 20.0476 10.2343 19.915V12.885C10.2343 12.6198 10.129 12.3654 9.94153 12.1779C9.7541 11.9903 9.49989 11.885 9.23482 11.885H7.99551V7.59497C7.99551 6.79932 8.31141 6.03626 8.8737 5.47365C9.43599 4.91104 10.1986 4.59497 10.9938 4.59497H20.9882C21.7834 4.59497 22.5461 4.91104 23.1083 5.47365C23.6706 6.03626 23.9865 6.79932 23.9865 7.59497V11.885H22.7522C22.4872 11.885 22.2329 11.9903 22.0455 12.1779C21.8581 12.3654 21.7528 12.6198 21.7528 12.885V19.915C21.7528 20.0476 21.7001 20.1748 21.6064 20.2685C21.5127 20.3623 21.3856 20.415 21.2531 20.415H15.991Z" stroke="#7A253A" stroke-width="1.4" stroke-miterlimit="10"/>
<path d="M10.2343 16.26H21.7528V19.915C21.7528 20.0476 21.7001 20.1748 21.6064 20.2686C21.5127 20.3623 21.3856 20.415 21.2531 20.415H10.734C10.6014 20.415 10.4743 20.3623 10.3806 20.2686C10.2869 20.1748 10.2343 20.0476 10.2343 19.915V16.26Z" stroke="#7A253A" stroke-width="1.4" stroke-miterlimit="10"/>
<path d="M7.99551 24.9851V27.4051" stroke="#7A253A" stroke-width="1.4" stroke-linecap="round" stroke-linejoin="round"/>
<path d="M23.9865 24.9851V27.4051" stroke="#7A253A" stroke-width="1.4" stroke-linecap="round" stroke-linejoin="round"/>
<path d="M26.2259 23.3898V12.8898C26.2259 12.6245 26.1206 12.3702 25.9332 12.1827C25.7457 11.9951 25.4915 11.8898 25.2265 11.8898H22.7528C22.4878 11.8898 22.2336 11.9951 22.0461 12.1827C21.8587 12.3702 21.7534 12.6245 21.7534 12.8898V19.9148C21.7534 20.0474 21.7008 20.1745 21.607 20.2683C21.5133 20.3621 21.3862 20.4148 21.2537 20.4148H10.7596C10.627 20.4148 10.4999 20.3621 10.4062 20.2683C10.3125 20.1745 10.2599 20.0474 10.2599 19.9148V12.8848C10.2599 12.6195 10.1546 12.3652 9.96714 12.1777C9.7797 11.9901 9.52549 11.8848 9.26043 11.8848H6.76183C6.49676 11.8848 6.24255 11.9901 6.05512 12.1777C5.86769 12.3652 5.76239 12.6195 5.76239 12.8848V23.3848C5.76239 23.7826 5.92034 24.1641 6.20148 24.4454C6.48263 24.7267 6.86395 24.8848 7.26155 24.8848H24.7267C25.1235 24.8848 25.504 24.7274 25.785 24.4472C26.066 24.167 26.2246 23.7867 26.2259 23.3898Z" stroke="#7A253A" stroke-width="1.4" stroke-miterlimit="10"/>
</svg>
