<svg width="32" height="32" viewBox="0 0 32 32" fill="none" xmlns="http://www.w3.org/2000/svg">
<path d="M6.69973 29.7142C6.55737 29.7144 6.41665 29.6841 6.28722 29.6252C6.1578 29.5663 6.04274 29.4803 5.94996 29.3731C5.85717 29.2659 5.78885 29.14 5.74969 29.0041C5.71053 28.8682 5.70146 28.7254 5.7231 28.5857L9.66907 3.11634C9.71509 2.86531 9.85793 2.64202 10.0672 2.49397C10.2765 2.34592 10.5357 2.28479 10.7896 2.32359C11.0436 2.36238 11.2723 2.49805 11.4271 2.70171C11.5818 2.90538 11.6505 3.16098 11.6184 3.41413L7.67241 28.8835C7.63666 29.1144 7.51899 29.325 7.34063 29.4773C7.16228 29.6296 6.93497 29.7137 6.69973 29.7142ZM26.4256 29.7142C26.1904 29.7137 25.9631 29.6296 25.7847 29.4773C25.6064 29.325 25.4887 29.1144 25.453 28.8835L21.507 3.41413C21.4749 3.16098 21.5435 2.90538 21.6983 2.70171C21.8531 2.49805 22.0818 2.36238 22.3358 2.32359C22.5897 2.28479 22.8489 2.34592 23.0582 2.49397C23.2674 2.64202 23.4103 2.86531 23.4563 3.11634L27.4023 28.5857C27.4239 28.7254 27.4148 28.8682 27.3757 29.0041C27.3365 29.14 27.2682 29.2659 27.1754 29.3731C27.0826 29.4803 26.9676 29.5663 26.8382 29.6252C26.7087 29.6841 26.568 29.7144 26.4256 29.7142ZM15.5762 3.26524C15.5762 3.00543 15.6801 2.75627 15.8651 2.57256C16.0501 2.38885 16.3011 2.28564 16.5627 2.28564C16.8243 2.28564 17.0752 2.38885 17.2602 2.57256C17.4452 2.75627 17.5492 3.00543 17.5492 3.26524V5.22442C17.5492 5.48422 17.4452 5.73339 17.2602 5.9171C17.0752 6.1008 16.8243 6.20401 16.5627 6.20401C16.3011 6.20401 16.0501 6.1008 15.8651 5.9171C15.6801 5.73339 15.5762 5.48422 15.5762 5.22442V3.26524ZM15.5762 9.14279C15.5762 8.88298 15.6801 8.63382 15.8651 8.45011C16.0501 8.2664 16.3011 8.1632 16.5627 8.1632C16.8243 8.1632 17.0752 8.2664 17.2602 8.45011C17.4452 8.63382 17.5492 8.88298 17.5492 9.14279V11.102C17.5492 11.3618 17.4452 11.6109 17.2602 11.7946C17.0752 11.9784 16.8243 12.0816 16.5627 12.0816C16.3011 12.0816 16.0501 11.9784 15.8651 11.7946C15.6801 11.6109 15.5762 11.3618 15.5762 11.102V9.14279ZM15.5762 15.0203C15.5762 14.7605 15.6801 14.5114 15.8651 14.3277C16.0501 14.144 16.3011 14.0407 16.5627 14.0407C16.8243 14.0407 17.0752 14.144 17.2602 14.3277C17.4452 14.5114 17.5492 14.7605 17.5492 15.0203V16.9795C17.5492 17.2393 17.4452 17.4885 17.2602 17.6722C17.0752 17.8559 16.8243 17.9591 16.5627 17.9591C16.3011 17.9591 16.0501 17.8559 15.8651 17.6722C15.6801 17.4885 15.5762 17.2393 15.5762 16.9795V15.0203ZM15.5762 20.8979C15.5762 20.6381 15.6801 20.3889 15.8651 20.2052C16.0501 20.0215 16.3011 19.9183 16.5627 19.9183C16.8243 19.9183 17.0752 20.0215 17.2602 20.2052C17.4452 20.3889 17.5492 20.6381 17.5492 20.8979V22.8571C17.5492 23.1169 17.4452 23.366 17.2602 23.5497C17.0752 23.7335 16.8243 23.8367 16.5627 23.8367C16.3011 23.8367 16.0501 23.7335 15.8651 23.5497C15.6801 23.366 15.5762 23.1169 15.5762 22.8571V20.8979ZM15.5762 26.2856C15.5762 26.0258 15.6801 25.7767 15.8651 25.593C16.0501 25.4093 16.3011 25.3061 16.5627 25.3061C16.8243 25.3061 17.0752 25.4093 17.2602 25.593C17.4452 25.7767 17.5492 26.0258 17.5492 26.2856V28.2448C17.5492 28.5046 17.4452 28.7538 17.2602 28.9375C17.0752 29.1212 16.8243 29.2244 16.5627 29.2244C16.3011 29.2244 16.0501 29.1212 15.8651 28.9375C15.6801 28.7538 15.5762 28.5046 15.5762 28.2448V26.2856Z" fill="#7A253A"/>
</svg>
