<svg width="32" height="32" viewBox="0 0 32 32" fill="none" xmlns="http://www.w3.org/2000/svg">
<g clip-path="url(#clip0_554_1264)">
<path d="M15.1335 22.39V28H10.6361V29.7143H21.3443V28H16.8469V22.39C19.4328 22.169 21.8335 20.9571 23.5478 19.0073C25.2621 17.0576 26.1574 14.5206 26.0468 11.9262C25.9363 9.33167 24.8284 6.88018 22.9545 5.08347C21.0807 3.28675 18.5856 2.28369 15.9902 2.28369C13.3948 2.28369 10.8997 3.28675 9.02584 5.08347C7.15195 6.88018 6.04409 9.33167 5.93355 11.9262C5.82301 14.5206 6.71832 17.0576 8.43259 19.0073C10.1469 20.9571 12.5476 22.169 15.1335 22.39ZM15.9902 4.00001C18.1332 3.99694 20.1954 4.81817 21.7503 6.29382C23.3051 7.76947 24.2335 9.78663 24.3436 11.928C24.4536 14.0694 23.7368 16.1712 22.3414 17.7987C20.9461 19.4261 18.9789 20.4546 16.8469 20.6714V17.2857L19.9608 14.7357L18.8729 13.4286L16.8469 15.07V9.09144H15.1335V12.1814L12.9919 10.4286L11.9039 11.7572L15.1335 14.3972V20.6714C13.0015 20.4546 11.0343 19.4261 9.63895 17.7987C8.24358 16.1712 7.52678 14.0694 7.63681 11.928C7.74685 9.78663 8.67531 7.76947 10.2301 6.29382C11.7849 4.81817 13.8472 3.99694 15.9902 4.00001Z" fill="#7A253A"/>
</g>
<defs>
<clipPath id="clip0_554_1264">
<rect width="27.4132" height="27.4286" fill="white" transform="translate(2.28387 2.28564)"/>
</clipPath>
</defs>
</svg>
