<svg width="126" height="91" viewBox="0 0 126 91" fill="none" xmlns="http://www.w3.org/2000/svg">
<g clip-path="url(#clip0_554_1274)">
<path d="M76.7234 77.6018C77.4182 77.6018 78.0475 77.5756 78.6724 77.6193C78.8297 77.6324 79.0132 77.8465 79.1094 78.0082C80.8486 80.9142 83.0511 83.3876 85.8522 85.3061C90.0561 88.1859 94.7407 89.4619 99.7967 89.1822C106.88 88.7976 112.649 85.7518 116.997 80.1451C123.832 71.3353 123.176 58.6056 115.498 50.5168C111.054 45.8366 105.583 43.4025 99.115 43.2321C98.9009 43.2277 98.6474 43.0923 98.4945 42.9393C98.1624 42.5941 97.8827 42.1964 97.5462 41.7769C105.543 32.2722 113.532 22.772 121.59 13.1974H105.639V26.2111H102.449V13.1362H93.5302V11.5718H102.441V0.148682H105.609V11.5368H125.33C116.944 21.5047 108.659 31.3589 100.326 41.2612C109.297 42.192 116.136 46.4003 120.545 54.2575C123.303 59.1737 124.146 64.4919 123.268 70.0549C121.489 81.3075 112.203 90.0256 100.666 90.9171C88.9418 91.8217 80.1538 84.6549 76.719 77.6018H76.7234Z" fill="black"/>
<path d="M19.3502 57.1633C19.8527 55.9616 20.3116 54.8516 20.7791 53.7373C21.4084 52.2384 22.029 50.7351 22.6713 49.2406C22.7981 48.9434 22.7981 48.6987 22.6713 48.3972C20.9321 44.2501 19.2103 40.0986 17.4798 35.9472C17.4143 35.7855 17.3575 35.6194 17.2744 35.3878C18.4106 35.3878 19.4682 35.3703 20.5257 35.4053C20.6655 35.4097 20.8491 35.65 20.919 35.8204C22.0595 38.5429 23.187 41.2742 24.3188 44.001C24.3931 44.1802 24.4718 44.355 24.5941 44.6259C24.8913 43.9486 25.1491 43.3586 25.4069 42.773C25.8483 41.7548 26.2809 40.7279 26.7267 39.7097C27.4827 37.9836 28.5751 36.559 30.3493 35.7767C33.2073 34.5138 36.4673 36.052 37.1184 38.9668C37.4025 40.2472 37.1534 41.4664 36.6508 42.6551C34.5838 47.5625 32.5169 52.4744 30.4542 57.3818C29.9255 58.636 29.4098 59.8945 28.8679 61.1443C28.798 61.3104 28.5795 61.542 28.4615 61.5245C28.2911 61.5027 28.0813 61.306 28.0071 61.1356C26.4688 57.5173 24.9481 53.8902 23.4186 50.2632C23.3487 50.0971 23.2744 49.931 23.1608 49.6819C22.6976 50.7963 22.2606 51.8363 21.8323 52.872C20.6874 55.6295 19.5424 58.3913 18.4019 61.1487C18.3101 61.3672 18.2358 61.6382 17.9343 61.5376C17.7508 61.4765 17.541 61.3148 17.4667 61.1443C13.8921 52.7278 10.3349 44.3069 6.77343 35.886C6.71662 35.7505 6.66855 35.6107 6.59863 35.414C6.77343 35.3966 6.9089 35.3747 7.04874 35.3747C7.9271 35.3747 8.80983 35.3966 9.68819 35.3616C10.0727 35.3485 10.2301 35.5014 10.3699 35.8379C12.5243 40.9988 14.6918 46.151 16.8549 51.3076C17.5891 53.0512 18.3189 54.7948 19.053 56.5384C19.1273 56.7132 19.2147 56.8836 19.3414 57.1502L19.3502 57.1633ZM29.8643 57.1546C29.9648 56.9623 30.0347 56.8356 30.0915 56.7088C32.0799 52.0199 34.0769 47.3309 36.0347 42.6332C36.31 41.969 36.4717 41.2348 36.5547 40.5181C36.6902 39.3033 36.4017 38.1715 35.5234 37.2582C34.0682 35.7418 31.6035 35.5845 29.7725 36.8867C28.5883 37.7301 27.7798 38.875 27.2292 40.1991C26.5344 41.8685 25.8483 43.5422 25.1884 45.2246C25.1054 45.4387 25.1229 45.7446 25.2103 45.9631C25.7696 47.3659 26.3596 48.7555 26.9408 50.1495C27.9065 52.4612 28.8723 54.7686 29.873 57.1589L29.8643 57.1546Z" fill="black"/>
<path d="M0 26.2458V0.16157C0.122359 0.144091 0.235978 0.113501 0.345227 0.113501C2.8361 0.117871 5.32698 0.0872811 7.81785 0.144091C9.58332 0.18342 11.3226 0.480577 12.9613 1.18851C15.0895 2.11057 16.4966 3.59199 16.5315 6.0479C16.5621 8.565 15.3036 10.278 13.1011 11.3705C12.852 11.4929 12.5942 11.5934 12.2446 11.7507C12.8433 11.8818 13.3371 11.9736 13.8265 12.0959C17.8207 13.0704 19.1011 15.7711 19.0137 19.2321C18.97 20.9888 18.533 22.6188 17.2395 23.9079C16.0377 25.1097 14.5301 25.6996 12.8914 25.9356C11.6153 26.1147 10.3175 26.2153 9.02396 26.2371C6.23593 26.2808 3.44353 26.2502 0.655494 26.2502H0V26.2458ZM3.27747 25.6341C5.96062 25.5554 8.58697 25.5772 11.1958 25.3762C13.4332 25.2014 14.9671 23.7288 15.4828 21.5307C15.9154 19.7084 15.9198 17.8643 15.4259 16.0595C14.8753 14.0406 13.56 12.7558 11.4449 12.428C10.7282 12.3144 9.98972 12.2664 9.26431 12.2751C7.10992 12.3013 5.49304 11.3705 4.34374 9.59631C3.94607 8.98451 3.6358 8.32028 3.27747 7.66042V25.6341ZM3.26873 0.742775C3.24251 2.77043 3.15511 4.7107 3.73631 6.60289C4.16894 8.01875 4.83754 9.30789 5.91255 10.3479C8.08005 12.4455 11.5454 11.7769 12.7384 9.01073C12.9963 8.41205 13.1492 7.74345 13.2279 7.09669C13.5949 4.10327 12.2315 1.9751 9.45222 1.15792C7.44204 0.567976 5.37942 0.782104 3.26873 0.742775Z" fill="black"/>
<path d="M77.5055 35.4273H80.6256V53.9078C80.6562 53.9122 80.6912 53.9166 80.7218 53.9209C80.8092 53.5932 80.8922 53.2654 80.9796 52.9377C81.9191 49.3762 83.7152 46.2604 85.9745 43.3893C86.8266 42.3056 87.7312 41.2612 88.5396 40.1468C89.0422 39.452 89.4704 38.6916 89.8288 37.9094C90.3619 36.7426 90.2395 36.3231 89.2738 35.4447C89.418 35.4316 89.5229 35.4098 89.6278 35.4098C91.5549 35.4098 93.4821 35.4054 95.4092 35.4142C95.5622 35.4142 95.7151 35.5147 95.8724 35.5715C95.7413 35.6851 95.6277 35.8512 95.4791 35.8992C93.8142 36.4411 92.3983 37.4243 91.1616 38.6042C88.4741 41.165 86.158 44.0536 84.209 47.2218C84.1828 47.2611 84.1697 47.3092 84.0954 47.4883C85 46.9159 85.9046 46.8416 86.8397 46.8809C88.9023 46.9683 90.5804 47.8467 91.7603 49.4985C92.525 50.5692 93.1062 51.7796 93.6918 52.9639C94.4347 54.4672 95.0902 56.0098 95.7938 57.5305C95.9467 57.8626 96.1259 58.1816 96.3225 58.4919C97.1397 59.8029 98.0967 60.9216 99.8535 60.8866V61.4941C96.1871 61.7868 92.4245 60.3972 91.4151 56.3856C91.0043 54.7468 90.7421 53.0732 90.4056 51.4126C90.209 50.4643 89.9074 49.5597 89.3087 48.7731C88.0939 47.1737 84.6329 46.8547 83.1777 49.4155C82.4435 50.709 81.9978 52.1861 81.5652 53.6238C80.8616 55.9748 80.6737 58.4132 80.6475 60.8604C80.6475 61.0745 80.6475 61.2843 80.6475 61.529H77.5099V35.4273H77.5055Z" fill="black"/>
<path d="M25.0922 10.1865V25.56C25.2889 25.56 25.4637 25.56 25.6429 25.56C27.4345 25.56 29.2306 25.5425 31.0223 25.56C33.618 25.5906 35.4753 24.4588 36.5809 22.1077C36.8125 21.6139 37.0222 21.1114 37.3194 20.4515C37.4374 20.6962 37.5772 20.8404 37.5597 20.9628C37.315 22.6365 37.0528 24.3102 36.7775 25.9795C36.76 26.08 36.6071 26.1805 36.4978 26.2286C36.4017 26.2723 36.2706 26.2373 36.1526 26.2373C31.6035 26.2373 27.05 26.2373 22.5009 26.2373C22.3217 26.2373 22.1382 26.2373 21.9153 26.2373V0.148682H36.9436V3.60969C36.7425 3.43489 36.5677 3.29942 36.4061 3.1421C34.8329 1.63884 32.9494 0.882834 30.7863 0.830395C28.9946 0.786695 27.2029 0.769216 25.4112 0.742996C25.3151 0.742996 25.219 0.764846 25.1491 0.773586C25.1185 0.817285 25.0966 0.830395 25.0966 0.843505C25.1185 3.24698 24.983 5.66794 25.2102 8.05394C25.4462 10.5536 26.8796 11.7771 29.3966 12.083C30.4323 12.2098 31.4767 12.2622 32.5649 12.3496V15.8849C31.5467 14.4428 30.0041 14.0014 28.6406 13.276C27.2597 12.5419 25.94 11.7291 25.0922 10.1865Z" fill="black"/>
<path d="M61.8042 26.2417C60.6812 26.2417 59.6193 26.2548 58.5617 26.2242C58.4175 26.2198 58.2253 25.997 58.1553 25.8309C56.9055 22.8637 55.6688 19.8921 54.4321 16.9206C54.3622 16.7545 54.2879 16.5841 54.2049 16.3831C50.9187 16.7152 48.288 18.0611 46.7366 21.1026C46.2254 22.1077 45.8364 23.174 45.3339 24.1834C45.0411 24.769 44.7265 25.3939 44.2632 25.8309C43.0746 26.9584 41.3354 26.5388 40.8197 24.9788C40.5881 24.2796 40.5575 23.4711 40.6274 22.7282C40.8153 20.7486 41.4097 18.8565 42.1045 17.008C44.2545 11.2921 46.9333 5.82961 49.9791 0.541961C50.0054 0.498262 50.0185 0.441452 50.0578 0.415232C50.2064 0.310353 50.3637 0.126815 50.5123 0.135555C50.6521 0.144295 50.84 0.327833 50.9056 0.476412C52.1161 3.2994 53.3091 6.12677 54.5064 8.95413C56.8749 14.5477 59.2435 20.1412 61.612 25.7348C61.6732 25.8833 61.7256 26.0363 61.8042 26.2417ZM48.8692 3.95053C48.7556 4.13407 48.6813 4.23895 48.6245 4.34819C47.4664 6.69923 46.2691 9.03279 45.1678 11.4057C43.5466 14.8973 42.0433 18.4413 41.3485 22.2606C41.2218 22.9642 41.213 23.7115 41.3004 24.4238C41.3834 25.1186 41.8772 25.5687 42.5895 25.7042C43.2756 25.8353 43.8044 25.5381 44.1671 24.9919C44.438 24.5811 44.6347 24.1179 44.8357 23.6634C45.1897 22.8768 45.5087 22.0771 45.8714 21.2949C47.3659 18.0524 49.9267 16.2694 53.4358 15.8019C53.5887 15.78 53.7417 15.745 53.9252 15.7101C52.234 11.7728 50.5647 7.8966 48.8692 3.94616V3.95053Z" fill="black"/>
<path d="M55.9528 61.5598C54.821 61.5598 53.7766 61.5816 52.7322 61.5379C52.5705 61.5292 52.3564 61.2626 52.2733 61.066C51.0279 58.1162 49.7868 55.1621 48.5764 52.1993C48.4103 51.7885 48.2093 51.6968 47.8072 51.7536C44.473 52.2299 41.9777 53.8468 40.5968 57.0019C40.2254 57.854 39.8889 58.7237 39.4606 59.5452C39.1416 60.1526 38.7877 60.7906 38.2938 61.2408C37.2407 62.189 35.7768 61.8525 35.095 60.6071C34.5357 59.5933 34.658 58.5139 34.8416 57.4476C35.3791 54.2969 36.5502 51.3515 37.8088 48.4411C39.6573 44.1761 41.7155 40.0115 44.0535 35.9868C44.0971 35.9168 44.119 35.8207 44.1802 35.777C44.3462 35.6503 44.521 35.4755 44.7046 35.4493C44.8095 35.4362 44.993 35.6678 45.0629 35.8251C46.2297 38.5563 47.3877 41.2919 48.5458 44.0275C50.9405 49.6778 53.3352 55.3326 55.7256 60.9829C55.7955 61.149 55.8567 61.315 55.9528 61.5598ZM43.0134 39.2555C42.9085 39.4347 42.843 39.5264 42.7949 39.6313C41.296 42.7558 39.7534 45.8629 38.3113 49.0136C37.0397 51.7929 35.9996 54.6683 35.4796 57.6924C35.3572 58.409 35.3966 59.1781 35.5014 59.9035C35.5888 60.5197 36.087 60.8999 36.7032 61.0223C37.3325 61.149 37.8743 60.9305 38.2327 60.4148C38.5211 59.9953 38.7396 59.5234 38.9537 59.0601C39.4126 58.0682 39.8015 57.0412 40.2997 56.0667C41.5145 53.6982 43.4242 52.1469 46.0025 51.452C46.6667 51.2729 47.3528 51.1636 48.0694 51.0151C46.3914 47.1083 44.7221 43.2278 43.0178 39.2599L43.0134 39.2555Z" fill="black"/>
<path d="M83.7939 8.2243C83.2607 7.32409 82.8281 6.52002 82.3256 5.76402C81.1632 4.0204 79.6817 2.61328 77.8027 1.65626C74.5077 -0.0130665 68.9229 0.589988 66.4932 5.6941C64.2602 10.3831 64.5529 15.0677 67.1269 19.5775C68.4815 21.9547 70.3169 23.86 72.869 24.9744C77.1122 26.8228 81.7618 24.9612 83.7152 20.5782C84.1741 19.5425 84.3751 18.3976 84.7072 17.3051C84.7509 17.1652 84.8732 17.0472 84.9606 16.9205C85.0262 17.0647 85.1442 17.2133 85.1442 17.3575C85.1573 18.651 85.166 19.9489 85.1442 21.2424C85.1398 21.4828 85.0393 21.7668 84.8864 21.9503C83.016 24.2009 80.5688 25.4682 77.7633 26.1368C71.6323 27.6007 65.1997 24.1615 62.8093 18.1266C59.7067 10.2869 64.6535 1.61256 72.987 0.222911C75.7968 -0.244674 78.4975 -0.0436562 81.0015 1.36347C81.9279 1.8835 82.7014 2.67009 83.5317 3.3518C83.6584 3.45668 83.7808 3.65333 83.7851 3.81065C83.8026 5.23525 83.7982 6.65986 83.7982 8.2243H83.7939Z" fill="black"/>
<path d="M62.0534 60.8691H62.674C64.4176 60.8691 66.1612 60.8342 67.9048 60.8779C70.6491 60.9478 72.5195 59.6892 73.6426 57.2289C73.7999 56.8837 73.931 56.521 74.1014 56.1801C74.1538 56.0753 74.3024 56.0228 74.4073 55.9442C74.4554 56.0491 74.5602 56.1627 74.5428 56.2588C74.2675 58.0112 73.9747 59.7591 73.6862 61.529H58.7891V35.4229H62.0534V60.8604V60.8691Z" fill="black"/>
<path d="M91.1747 0.144287V26.2111H88.059V0.144287H91.1747Z" fill="black"/>
<path d="M87.5608 72.3535V67.7519H88.2119V73.3586C87.7181 73.4766 87.3642 73.411 87.0452 72.9303C86.1406 71.5625 85.1792 70.2297 84.1435 68.8969V73.3804H83.4618V67.7607C83.9862 67.6208 84.3358 67.7213 84.646 68.1977C85.472 69.4606 86.3591 70.6842 87.2243 71.9209C87.3074 72.0389 87.3991 72.1481 87.5564 72.3535H87.5608Z" fill="black"/>
<path d="M70.7889 73.3804V67.6995C71.8639 67.765 72.9433 67.5422 73.9877 67.918C75.2069 68.3594 75.8756 69.5873 75.692 70.9638C75.5128 72.3142 74.582 73.2581 73.2361 73.363C72.4451 73.4241 71.6454 73.3761 70.7845 73.3761L70.7889 73.3804ZM71.4706 72.7118C72.0737 72.7118 72.6374 72.7599 73.1924 72.7031C74.2674 72.5895 74.8923 71.8772 74.9666 70.7716C75.0496 69.5655 74.5165 68.6958 73.4502 68.4773C72.8166 68.3462 72.148 68.3943 71.475 68.3594V72.7162L71.4706 72.7118Z" fill="black"/>
<path d="M53.2217 70.8284C53.7417 71.6762 54.2487 72.5021 54.7687 73.3499C54.2137 73.5116 53.8728 73.3936 53.6281 72.8998C53.3703 72.3798 52.9945 71.9209 52.7498 71.4009C52.5007 70.8678 52.1292 70.776 51.5655 70.9377V73.3936H50.9275V67.6689C51.784 67.7258 52.6405 67.7258 53.4839 67.8525C54.2181 67.9617 54.5633 68.4512 54.6026 69.1722C54.642 69.8932 54.2924 70.4351 53.6325 70.6886C53.5101 70.7367 53.3834 70.776 53.2261 70.8328L53.2217 70.8284ZM51.5917 70.256C52.1467 70.2079 52.6711 70.1948 53.1868 70.1074C53.6325 70.0331 53.8597 69.7272 53.8466 69.2552C53.8335 68.7745 53.5669 68.4905 53.1343 68.4424C52.6361 68.3856 52.1249 68.4293 51.5961 68.4293V70.256H51.5917Z" fill="black"/>
<path d="M57.43 70.7672V72.738H60.3928V73.3804H56.7657V67.7476H60.2661V68.355H57.4562V70.1248H60.0738V70.7672H57.4344H57.43Z" fill="black"/>
<path d="M78.4626 70.7541V72.7293H81.4167C81.4298 72.9653 81.4385 73.1401 81.4473 73.363H77.7765V67.752H81.2637V68.3638H78.4757V70.1117H81.0977V70.7541H78.4669H78.4626Z" fill="black"/>
<path d="M97.2272 67.73H100.732V68.3592H97.9132V70.116H100.522V70.7714H97.9045V72.7423H100.859V73.3628H97.2228V67.7256L97.2272 67.73Z" fill="black"/>
<path d="M62.0096 72.7554C62.2107 72.5894 62.3855 72.4452 62.5821 72.2835C63.0715 72.8254 63.644 73.0482 64.3345 72.7904C64.7365 72.6418 65.0118 72.3753 65.0205 71.912C65.0293 71.4532 64.7452 71.2216 64.3651 71.0774C63.9936 70.9375 63.6091 70.8283 63.242 70.6753C62.451 70.352 62.1014 69.8494 62.1451 69.1327C62.1888 68.3942 62.6651 67.8261 63.4692 67.6557C64.2602 67.4896 65.0205 67.5508 65.676 68.2413C65.4925 68.4117 65.3264 68.5603 65.1473 68.7263C64.719 68.285 64.2296 68.1102 63.644 68.2806C63.2289 68.403 62.9361 68.6477 62.9011 69.1065C62.8662 69.561 63.1284 69.8232 63.5085 69.9761C63.8931 70.1335 64.2951 70.2427 64.6797 70.4C65.5056 70.7409 65.8552 71.2784 65.7722 72.0388C65.6891 72.7948 65.1167 73.376 64.2864 73.4896C63.4343 73.6076 62.6302 73.5202 62.0096 72.7511V72.7554Z" fill="black"/>
<path d="M94.8236 72.1217C94.9897 72.2615 95.1382 72.3883 95.2824 72.515C94.71 73.3934 93.5301 73.7561 92.3502 73.4327C91.1703 73.1093 90.3357 72.0387 90.292 70.7932C90.2395 69.29 90.9343 68.1669 92.1885 67.7386C93.3029 67.3541 94.5177 67.6512 95.1514 68.4946C94.9678 68.6301 94.7886 68.7612 94.6095 68.8879C93.5257 67.9921 92.4944 68.0096 91.6466 68.9185C90.7945 69.8318 90.8076 71.3744 91.6729 72.2703C92.5032 73.1312 93.7267 73.0918 94.8236 72.1173V72.1217Z" fill="black"/>
<path d="M68.4597 73.389H67.8523V67.7386C68.0402 67.7299 68.2281 67.7211 68.4597 67.7124V73.389Z" fill="black"/>
</g>
<defs>
<clipPath id="clip0_554_1274">
<rect width="125.335" height="91" fill="white"/>
</clipPath>
</defs>
</svg>
