<svg width="125" height="43" viewBox="0 0 125 43" fill="none" xmlns="http://www.w3.org/2000/svg">
<path d="M26.8855 17.8695C26.752 17.9718 24.3949 19.2836 24.3949 22.2005C24.3949 25.5743 27.3942 26.7679 27.484 26.7975C27.4702 26.8702 27.0075 28.4321 25.9026 30.0236C24.9174 31.424 23.8884 32.8222 22.3231 32.8222C20.7578 32.8222 20.355 31.9242 18.548 31.9242C16.787 31.9242 16.1609 32.8518 14.7291 32.8518C13.2973 32.8518 12.2983 31.5559 11.1496 29.9645C9.81913 28.0957 8.74414 25.1924 8.74414 22.4369C8.74414 18.0173 11.6538 15.6733 14.5173 15.6733C16.0389 15.6733 17.3073 16.66 18.2626 16.66C19.1718 16.66 20.5898 15.6142 22.3208 15.6142C22.9769 15.6142 25.334 15.6733 26.8855 17.8695ZM21.499 13.7431C22.2149 12.9042 22.7214 11.7401 22.7214 10.5761C22.7214 10.4147 22.7076 10.251 22.6776 10.1191C21.5129 10.1623 20.1271 10.8853 19.2915 11.8424C18.6355 12.5791 18.0232 13.7431 18.0232 14.923C18.0232 15.1004 18.0531 15.2777 18.0669 15.3345C18.1406 15.3482 18.2603 15.3641 18.38 15.3641C19.425 15.3641 20.7394 14.6729 21.499 13.7431Z" fill="white"/>
<path d="M34.6548 15.2461C34.5944 15.2461 34.543 15.2249 34.5007 15.1827C34.4584 15.1404 34.4373 15.089 34.4373 15.0286V9.12939C34.4373 9.06293 34.4584 9.00856 34.5007 8.96627C34.543 8.92399 34.5944 8.90284 34.6548 8.90284H36.8658C37.476 8.90284 37.9774 8.99648 38.3701 9.18376C38.7688 9.37103 39.0679 9.64893 39.2672 10.0174C39.4726 10.386 39.5783 10.836 39.5844 11.3676C39.5965 11.6335 39.6025 11.8691 39.6025 12.0745C39.6025 12.2799 39.5965 12.5125 39.5844 12.7722C39.5723 13.3341 39.4696 13.7992 39.2763 14.1677C39.083 14.5302 38.79 14.8021 38.3973 14.9833C38.0107 15.1585 37.5153 15.2461 36.9112 15.2461H34.6548ZM35.6969 14.204H36.8658C37.2042 14.204 37.479 14.1557 37.6905 14.059C37.9019 13.9623 38.056 13.8083 38.1526 13.5968C38.2553 13.3794 38.3097 13.0954 38.3157 12.745C38.3218 12.5638 38.3248 12.4067 38.3248 12.2738C38.3308 12.1349 38.3308 11.999 38.3248 11.866C38.3248 11.7271 38.3218 11.57 38.3157 11.3948C38.3037 10.8995 38.1798 10.534 37.9442 10.2984C37.7086 10.0628 37.334 9.94495 36.8205 9.94495H35.6969V14.204ZM42.7843 15.3367C42.301 15.3367 41.8933 15.2521 41.561 15.083C41.2348 14.9138 40.9841 14.6752 40.8089 14.3671C40.6397 14.059 40.543 13.6995 40.5189 13.2887C40.5128 13.18 40.5098 13.0471 40.5098 12.89C40.5098 12.733 40.5128 12.6001 40.5189 12.4913C40.543 12.0745 40.6427 11.715 40.8179 11.413C40.9992 11.1049 41.2529 10.8662 41.5791 10.6971C41.9114 10.5279 42.3131 10.4433 42.7843 10.4433C43.2555 10.4433 43.6543 10.5279 43.9805 10.6971C44.3127 10.8662 44.5665 11.1049 44.7417 11.413C44.9229 11.715 45.0256 12.0745 45.0498 12.4913C45.0558 12.6001 45.0588 12.733 45.0588 12.89C45.0588 13.0471 45.0558 13.18 45.0498 13.2887C45.0256 13.6995 44.9259 14.059 44.7507 14.3671C44.5816 14.6752 44.3309 14.9138 43.9986 15.083C43.6724 15.2521 43.2676 15.3367 42.7843 15.3367ZM42.7843 14.4396C43.1045 14.4396 43.3522 14.3399 43.5274 14.1406C43.7026 13.9352 43.7992 13.6361 43.8174 13.2434C43.8234 13.1528 43.8264 13.035 43.8264 12.89C43.8264 12.745 43.8234 12.6272 43.8174 12.5366C43.7992 12.15 43.7026 11.854 43.5274 11.6486C43.3522 11.4432 43.1045 11.3405 42.7843 11.3405C42.4641 11.3405 42.2165 11.4432 42.0413 11.6486C41.8661 11.854 41.7694 12.15 41.7513 12.5366C41.7452 12.6272 41.7422 12.745 41.7422 12.89C41.7422 13.035 41.7452 13.1528 41.7513 13.2434C41.7694 13.6361 41.8661 13.9352 42.0413 14.1406C42.2165 14.3399 42.4641 14.4396 42.7843 14.4396ZM47.2169 15.2461C47.1323 15.2461 47.0689 15.2249 47.0266 15.1827C46.9843 15.1404 46.9481 15.086 46.9178 15.0195L45.622 10.8149C45.616 10.7847 45.613 10.7575 45.613 10.7333C45.613 10.679 45.6311 10.6336 45.6673 10.5974C45.7096 10.5551 45.7549 10.534 45.8032 10.534H46.4738C46.5463 10.534 46.6037 10.5551 46.646 10.5974C46.6883 10.6336 46.7124 10.6699 46.7185 10.7061L47.6065 13.7056L48.549 10.7333C48.5611 10.691 48.5882 10.6487 48.6305 10.6065C48.6728 10.5581 48.7362 10.534 48.8208 10.534H49.2739C49.3585 10.534 49.4219 10.5581 49.4642 10.6065C49.5065 10.6487 49.5337 10.691 49.5458 10.7333L50.4882 13.7056L51.3762 10.7061C51.3823 10.6699 51.4034 10.6336 51.4397 10.5974C51.482 10.5551 51.5394 10.534 51.6119 10.534H52.2824C52.3368 10.534 52.3821 10.5551 52.4184 10.5974C52.4606 10.6336 52.4818 10.679 52.4818 10.7333C52.4818 10.7575 52.4757 10.7847 52.4637 10.8149L51.1678 15.0195C51.1497 15.086 51.1165 15.1404 51.0681 15.1827C51.0259 15.2249 50.9624 15.2461 50.8778 15.2461H50.2888C50.2043 15.2461 50.1378 15.2249 50.0895 15.1827C50.0411 15.1404 50.0079 15.086 49.9898 15.0195L49.0474 12.156L48.1049 15.0195C48.0808 15.086 48.0445 15.1404 47.9962 15.1827C47.9539 15.2249 47.8875 15.2461 47.7968 15.2461H47.2169ZM53.5811 15.2461C53.5207 15.2461 53.4693 15.2249 53.427 15.1827C53.3848 15.1404 53.3636 15.089 53.3636 15.0286V10.7514C53.3636 10.691 53.3848 10.6397 53.427 10.5974C53.4693 10.5551 53.5207 10.534 53.5811 10.534H54.3242C54.3846 10.534 54.4359 10.5551 54.4782 10.5974C54.5205 10.6397 54.5416 10.691 54.5416 10.7514V11.123C54.6987 10.9297 54.8981 10.7696 55.1397 10.6427C55.3874 10.5098 55.6925 10.4433 56.055 10.4433C56.4235 10.4433 56.7437 10.5279 57.0155 10.6971C57.2874 10.8602 57.4958 11.0928 57.6408 11.3948C57.7918 11.6969 57.8673 12.0594 57.8673 12.4822V15.0286C57.8673 15.089 57.8462 15.1404 57.8039 15.1827C57.7616 15.2249 57.7102 15.2461 57.6498 15.2461H56.8524C56.792 15.2461 56.7406 15.2249 56.6983 15.1827C56.6561 15.1404 56.6349 15.089 56.6349 15.0286V12.5366C56.6349 12.1862 56.5473 11.9114 56.3721 11.712C56.203 11.5126 55.9553 11.413 55.6291 11.413C55.3149 11.413 55.0642 11.5126 54.8769 11.712C54.6897 11.9114 54.596 12.1862 54.596 12.5366V15.0286C54.596 15.089 54.5749 15.1404 54.5326 15.1827C54.4903 15.2249 54.4389 15.2461 54.3785 15.2461H53.5811ZM59.2449 15.2461C59.1845 15.2461 59.1332 15.2249 59.0909 15.1827C59.0486 15.1404 59.0274 15.089 59.0274 15.0286V9.02971C59.0274 8.9693 59.0486 8.91795 59.0909 8.87566C59.1332 8.83337 59.1845 8.81222 59.2449 8.81222H59.9971C60.0575 8.81222 60.1088 8.83337 60.1511 8.87566C60.1934 8.91795 60.2145 8.9693 60.2145 9.02971V15.0286C60.2145 15.089 60.1934 15.1404 60.1511 15.1827C60.1088 15.2249 60.0575 15.2461 59.9971 15.2461H59.2449ZM63.5008 15.3367C63.0175 15.3367 62.6097 15.2521 62.2774 15.083C61.9512 14.9138 61.7005 14.6752 61.5253 14.3671C61.3562 14.059 61.2595 13.6995 61.2353 13.2887C61.2293 13.18 61.2263 13.0471 61.2263 12.89C61.2263 12.733 61.2293 12.6001 61.2353 12.4913C61.2595 12.0745 61.3592 11.715 61.5344 11.413C61.7156 11.1049 61.9693 10.8662 62.2956 10.6971C62.6278 10.5279 63.0296 10.4433 63.5008 10.4433C63.972 10.4433 64.3707 10.5279 64.6969 10.6971C65.0292 10.8662 65.2829 11.1049 65.4581 11.413C65.6394 11.715 65.7421 12.0745 65.7662 12.4913C65.7723 12.6001 65.7753 12.733 65.7753 12.89C65.7753 13.0471 65.7723 13.18 65.7662 13.2887C65.7421 13.6995 65.6424 14.059 65.4672 14.3671C65.298 14.6752 65.0473 14.9138 64.7151 15.083C64.3888 15.2521 63.9841 15.3367 63.5008 15.3367ZM63.5008 14.4396C63.821 14.4396 64.0687 14.3399 64.2438 14.1406C64.419 13.9352 64.5157 13.6361 64.5338 13.2434C64.5399 13.1528 64.5429 13.035 64.5429 12.89C64.5429 12.745 64.5399 12.6272 64.5338 12.5366C64.5157 12.15 64.419 11.854 64.2438 11.6486C64.0687 11.4432 63.821 11.3405 63.5008 11.3405C63.1806 11.3405 62.9329 11.4432 62.7577 11.6486C62.5825 11.854 62.4859 12.15 62.4677 12.5366C62.4617 12.6272 62.4587 12.745 62.4587 12.89C62.4587 13.035 62.4617 13.1528 62.4677 13.2434C62.4859 13.6361 62.5825 13.9352 62.7577 14.1406C62.9329 14.3399 63.1806 14.4396 63.5008 14.4396ZM68.1476 15.3367C67.8335 15.3367 67.5496 15.2763 67.2958 15.1555C67.0421 15.0286 66.8397 14.8625 66.6887 14.6571C66.5437 14.4456 66.4712 14.21 66.4712 13.9503C66.4712 13.5274 66.6404 13.1921 66.9787 12.9444C67.323 12.6907 67.7761 12.5215 68.3379 12.4369L69.5794 12.2557V12.0654C69.5794 11.8117 69.516 11.6153 69.3891 11.4764C69.2622 11.3374 69.0447 11.268 68.7366 11.268C68.5192 11.268 68.341 11.3133 68.202 11.4039C68.0691 11.4885 67.9694 11.6033 67.903 11.7482C67.8546 11.8268 67.7852 11.866 67.6945 11.866H66.9787C66.9122 11.866 66.8609 11.8479 66.8246 11.8117C66.7944 11.7754 66.7793 11.7271 66.7793 11.6667C66.7853 11.57 66.8246 11.4522 66.8971 11.3133C66.9696 11.1743 67.0844 11.0414 67.2415 10.9146C67.3985 10.7817 67.6009 10.6699 67.8486 10.5793C68.0963 10.4887 68.3953 10.4433 68.7457 10.4433C69.1263 10.4433 69.4465 10.4917 69.7063 10.5883C69.9721 10.679 70.1835 10.8028 70.3406 10.9599C70.4977 11.1169 70.6124 11.3012 70.6849 11.5126C70.7574 11.7241 70.7937 11.9476 70.7937 12.1832V15.0286C70.7937 15.089 70.7725 15.1404 70.7302 15.1827C70.688 15.2249 70.6366 15.2461 70.5762 15.2461H69.8422C69.7757 15.2461 69.7214 15.2249 69.6791 15.1827C69.6428 15.1404 69.6247 15.089 69.6247 15.0286V14.6752C69.5462 14.79 69.4404 14.8987 69.3075 15.0014C69.1746 15.0981 69.0115 15.1796 68.8182 15.2461C68.6309 15.3065 68.4074 15.3367 68.1476 15.3367ZM68.4557 14.4758C68.6672 14.4758 68.8575 14.4305 69.0266 14.3399C69.2018 14.2493 69.3377 14.1103 69.4344 13.9231C69.5371 13.7298 69.5885 13.4881 69.5885 13.1981V13.0078L68.6823 13.1528C68.3258 13.2072 68.06 13.2948 67.8848 13.4156C67.7096 13.5364 67.622 13.6844 67.622 13.8596C67.622 13.9925 67.6613 14.1073 67.7399 14.204C67.8244 14.2946 67.9301 14.3641 68.057 14.4124C68.1839 14.4547 68.3168 14.4758 68.4557 14.4758ZM73.7051 15.3367C73.391 15.3367 73.1131 15.2854 72.8714 15.1827C72.6358 15.0739 72.4395 14.9229 72.2824 14.7296C72.1254 14.5363 72.0045 14.3097 71.92 14.0499C71.8354 13.7841 71.7871 13.4941 71.775 13.18C71.7689 13.0713 71.7659 12.9746 71.7659 12.89C71.7659 12.7994 71.7689 12.6997 71.775 12.591C71.7871 12.2889 71.8324 12.008 71.9109 11.7482C71.9955 11.4885 72.1163 11.2619 72.2734 11.0686C72.4365 10.8693 72.6358 10.7152 72.8714 10.6065C73.1131 10.4977 73.391 10.4433 73.7051 10.4433C74.0314 10.4433 74.3062 10.5007 74.5298 10.6155C74.7593 10.7243 74.9496 10.8662 75.1006 11.0414V9.02971C75.1006 8.9693 75.1188 8.91795 75.155 8.87566C75.1973 8.83337 75.2517 8.81222 75.3181 8.81222H76.0884C76.1488 8.81222 76.2001 8.83337 76.2424 8.87566C76.2847 8.91795 76.3059 8.9693 76.3059 9.02971V15.0286C76.3059 15.089 76.2847 15.1404 76.2424 15.1827C76.2001 15.2249 76.1488 15.2461 76.0884 15.2461H75.3725C75.306 15.2461 75.2517 15.2249 75.2094 15.1827C75.1731 15.1404 75.155 15.089 75.155 15.0286V14.6933C75.004 14.8806 74.8107 15.0347 74.5751 15.1555C74.3455 15.2763 74.0555 15.3367 73.7051 15.3367ZM74.0404 14.3671C74.2941 14.3671 74.4965 14.3097 74.6476 14.1949C74.7986 14.0801 74.9103 13.9352 74.9828 13.76C75.0553 13.5787 75.0946 13.3945 75.1006 13.2072C75.1067 13.0984 75.1097 12.9837 75.1097 12.8628C75.1097 12.736 75.1067 12.6182 75.1006 12.5094C75.0946 12.3282 75.0523 12.156 74.9738 11.9929C74.8952 11.8238 74.7805 11.6848 74.6294 11.5761C74.4784 11.4673 74.2821 11.413 74.0404 11.413C73.7867 11.413 73.5843 11.4703 73.4333 11.5851C73.2883 11.6939 73.1826 11.8389 73.1161 12.0201C73.0497 12.2013 73.0104 12.4007 72.9983 12.6182C72.9923 12.7994 72.9923 12.9806 72.9983 13.1619C73.0104 13.3794 73.0497 13.5787 73.1161 13.76C73.1826 13.9412 73.2883 14.0892 73.4333 14.204C73.5843 14.3127 73.7867 14.3671 74.0404 14.3671ZM81.6686 15.3367C81.1853 15.3367 80.7775 15.2521 80.4453 15.083C80.119 14.9138 79.8683 14.6752 79.6931 14.3671C79.524 14.059 79.4273 13.6995 79.4032 13.2887C79.3971 13.18 79.3941 13.0471 79.3941 12.89C79.3941 12.733 79.3971 12.6001 79.4032 12.4913C79.4273 12.0745 79.527 11.715 79.7022 11.413C79.8834 11.1049 80.1372 10.8662 80.4634 10.6971C80.7956 10.5279 81.1974 10.4433 81.6686 10.4433C82.1398 10.4433 82.5385 10.5279 82.8648 10.6971C83.197 10.8662 83.4507 11.1049 83.6259 11.413C83.8072 11.715 83.9099 12.0745 83.934 12.4913C83.9401 12.6001 83.9431 12.733 83.9431 12.89C83.9431 13.0471 83.9401 13.18 83.934 13.2887C83.9099 13.6995 83.8102 14.059 83.635 14.3671C83.4659 14.6752 83.2151 14.9138 82.8829 15.083C82.5567 15.2521 82.1519 15.3367 81.6686 15.3367ZM81.6686 14.4396C81.9888 14.4396 82.2365 14.3399 82.4117 14.1406C82.5869 13.9352 82.6835 13.6361 82.7016 13.2434C82.7077 13.1528 82.7107 13.035 82.7107 12.89C82.7107 12.745 82.7077 12.6272 82.7016 12.5366C82.6835 12.15 82.5869 11.854 82.4117 11.6486C82.2365 11.4432 81.9888 11.3405 81.6686 11.3405C81.3484 11.3405 81.1007 11.4432 80.9255 11.6486C80.7503 11.854 80.6537 12.15 80.6356 12.5366C80.6295 12.6272 80.6265 12.745 80.6265 12.89C80.6265 13.035 80.6295 13.1528 80.6356 13.2434C80.6537 13.6361 80.7503 13.9352 80.9255 14.1406C81.1007 14.3399 81.3484 14.4396 81.6686 14.4396ZM85.1646 15.2461C85.1042 15.2461 85.0528 15.2249 85.0106 15.1827C84.9683 15.1404 84.9471 15.089 84.9471 15.0286V10.7514C84.9471 10.691 84.9683 10.6397 85.0106 10.5974C85.0528 10.5551 85.1042 10.534 85.1646 10.534H85.9077C85.9681 10.534 86.0194 10.5551 86.0617 10.5974C86.104 10.6397 86.1252 10.691 86.1252 10.7514V11.123C86.2822 10.9297 86.4816 10.7696 86.7232 10.6427C86.9709 10.5098 87.276 10.4433 87.6385 10.4433C88.007 10.4433 88.3272 10.5279 88.599 10.6971C88.8709 10.8602 89.0793 11.0928 89.2243 11.3948C89.3753 11.6969 89.4508 12.0594 89.4508 12.4822V15.0286C89.4508 15.089 89.4297 15.1404 89.3874 15.1827C89.3451 15.2249 89.2938 15.2461 89.2334 15.2461H88.4359C88.3755 15.2461 88.3242 15.2249 88.2819 15.1827C88.2396 15.1404 88.2184 15.089 88.2184 15.0286V12.5366C88.2184 12.1862 88.1308 11.9114 87.9556 11.712C87.7865 11.5126 87.5388 11.413 87.2126 11.413C86.8984 11.413 86.6477 11.5126 86.4604 11.712C86.2732 11.9114 86.1795 12.1862 86.1795 12.5366V15.0286C86.1795 15.089 86.1584 15.1404 86.1161 15.1827C86.0738 15.2249 86.0225 15.2461 85.962 15.2461H85.1646ZM94.6163 15.2461C94.2539 15.2461 93.9488 15.1827 93.7011 15.0558C93.4534 14.9289 93.2692 14.7417 93.1483 14.494C93.0275 14.2402 92.9671 13.9261 92.9671 13.5515V11.4945H92.2512C92.1908 11.4945 92.1395 11.4734 92.0972 11.4311C92.0549 11.3888 92.0337 11.3374 92.0337 11.277V10.7514C92.0337 10.691 92.0549 10.6397 92.0972 10.5974C92.1395 10.5551 92.1908 10.534 92.2512 10.534H92.9671V9.02971C92.9671 8.9693 92.9852 8.91795 93.0215 8.87566C93.0638 8.83337 93.1181 8.81222 93.1846 8.81222H93.9186C93.979 8.81222 94.0303 8.83337 94.0726 8.87566C94.1149 8.91795 94.1361 8.9693 94.1361 9.02971V10.534H95.2688C95.3292 10.534 95.3805 10.5551 95.4228 10.5974C95.4651 10.6397 95.4863 10.691 95.4863 10.7514V11.277C95.4863 11.3374 95.4651 11.3888 95.4228 11.4311C95.3805 11.4734 95.3292 11.4945 95.2688 11.4945H94.1361V13.4609C94.1361 13.7086 94.1784 13.9019 94.2629 14.0409C94.3535 14.1798 94.5076 14.2493 94.7251 14.2493H95.3503C95.4108 14.2493 95.4621 14.2704 95.5044 14.3127C95.5467 14.355 95.5678 14.4064 95.5678 14.4668V15.0286C95.5678 15.089 95.5467 15.1404 95.5044 15.1827C95.4621 15.2249 95.4108 15.2461 95.3503 15.2461H94.6163ZM96.5982 15.2461C96.5378 15.2461 96.4865 15.2249 96.4442 15.1827C96.4019 15.1404 96.3808 15.089 96.3808 15.0286V9.02971C96.3808 8.9693 96.4019 8.91795 96.4442 8.87566C96.4865 8.83337 96.5378 8.81222 96.5982 8.81222H97.4047C97.4712 8.81222 97.5225 8.83337 97.5588 8.87566C97.6011 8.91795 97.6222 8.9693 97.6222 9.02971V11.0958C97.7853 10.9025 97.9847 10.7454 98.2203 10.6246C98.4559 10.5038 98.7459 10.4433 99.0902 10.4433C99.4588 10.4433 99.7789 10.5279 100.051 10.6971C100.329 10.8602 100.543 11.0928 100.694 11.3948C100.845 11.6969 100.921 12.0594 100.921 12.4822V15.0286C100.921 15.089 100.9 15.1404 100.857 15.1827C100.815 15.2249 100.764 15.2461 100.703 15.2461H99.8877C99.8273 15.2461 99.7759 15.2249 99.7336 15.1827C99.6913 15.1404 99.6702 15.089 99.6702 15.0286V12.5366C99.6702 12.1862 99.5826 11.9114 99.4074 11.712C99.2382 11.5126 98.9906 11.413 98.6643 11.413C98.3502 11.413 98.0965 11.5126 97.9031 11.712C97.7159 11.9114 97.6222 12.1862 97.6222 12.5366V15.0286C97.6222 15.089 97.6011 15.1404 97.5588 15.1827C97.5225 15.2249 97.4712 15.2461 97.4047 15.2461H96.5982ZM104.101 15.3367C103.43 15.3367 102.898 15.1434 102.506 14.7568C102.113 14.3701 101.902 13.8204 101.871 13.1075C101.865 13.0471 101.862 12.9716 101.862 12.881C101.862 12.7843 101.865 12.7088 101.871 12.6544C101.896 12.2013 101.998 11.8087 102.179 11.4764C102.367 11.1441 102.623 10.8904 102.95 10.7152C103.276 10.534 103.66 10.4433 104.101 10.4433C104.59 10.4433 105.001 10.546 105.333 10.7514C105.665 10.9508 105.916 11.2317 106.085 11.5942C106.254 11.9506 106.339 12.3644 106.339 12.8357V13.026C106.339 13.0864 106.318 13.1377 106.275 13.18C106.233 13.2223 106.179 13.2434 106.112 13.2434H103.104C103.104 13.2434 103.104 13.2525 103.104 13.2706C103.104 13.2887 103.104 13.3039 103.104 13.3159C103.11 13.5274 103.149 13.7237 103.222 13.9049C103.3 14.0801 103.412 14.2221 103.557 14.3309C103.708 14.4396 103.886 14.494 104.091 14.494C104.261 14.494 104.403 14.4698 104.517 14.4215C104.632 14.3671 104.726 14.3067 104.798 14.2402C104.871 14.1738 104.922 14.1194 104.952 14.0771C105.007 14.0046 105.049 13.9623 105.079 13.9503C105.115 13.9321 105.167 13.9231 105.233 13.9231H106.013C106.073 13.9231 106.121 13.9412 106.158 13.9774C106.2 14.0137 106.218 14.059 106.212 14.1134C106.206 14.21 106.155 14.3278 106.058 14.4668C105.967 14.6057 105.834 14.7417 105.659 14.8746C105.484 15.0075 105.263 15.1192 104.998 15.2098C104.738 15.2944 104.439 15.3367 104.101 15.3367ZM103.104 12.4822H105.106V12.4551C105.106 12.2195 105.067 12.0141 104.989 11.8389C104.91 11.6637 104.795 11.5247 104.644 11.422C104.493 11.3193 104.312 11.268 104.101 11.268C103.889 11.268 103.708 11.3193 103.557 11.422C103.406 11.5247 103.291 11.6637 103.213 11.8389C103.14 12.0141 103.104 12.2195 103.104 12.4551V12.4822Z" fill="white"/>
<path d="M34.4027 31.9912C34.3002 31.9912 34.2042 31.9528 34.1146 31.876C34.0378 31.7992 33.9994 31.7031 33.9994 31.5879C33.9994 31.5367 34.0122 31.4791 34.0378 31.415L38.6664 19.0273C38.7048 18.8992 38.7752 18.7904 38.8776 18.7008C38.9929 18.5984 39.1465 18.5471 39.3386 18.5471H41.432C41.6241 18.5471 41.7713 18.5984 41.8737 18.7008C41.9762 18.7904 42.053 18.8992 42.1042 19.0273L46.7328 31.415C46.7456 31.4791 46.752 31.5367 46.752 31.5879C46.752 31.7031 46.7136 31.7992 46.6368 31.876C46.56 31.9528 46.4703 31.9912 46.3679 31.9912H44.697C44.5177 31.9912 44.3833 31.9528 44.2937 31.876C44.2168 31.7863 44.1656 31.7031 44.14 31.6263L43.2373 29.2832H37.5332L36.6305 31.6263C36.6049 31.7031 36.5473 31.7863 36.4577 31.876C36.3809 31.9528 36.2528 31.9912 36.0736 31.9912H34.4027ZM38.2054 27.0745H42.5651L40.3757 21.1399L38.2054 27.0745ZM47.4503 35.6403C47.3223 35.6403 47.2135 35.5955 47.1238 35.5059C47.0342 35.4162 46.9894 35.3074 46.9894 35.1794V22.4651C46.9894 22.3371 47.0342 22.2283 47.1238 22.1386C47.2135 22.049 47.3223 22.0042 47.4503 22.0042H48.9676C49.1084 22.0042 49.2173 22.049 49.2941 22.1386C49.3837 22.2283 49.4285 22.3371 49.4285 22.4651V23.2334C49.7358 22.8236 50.1391 22.4843 50.6385 22.2154C51.1378 21.9466 51.7588 21.8121 52.5015 21.8121C53.1801 21.8121 53.769 21.921 54.2684 22.1386C54.7677 22.3563 55.1839 22.67 55.5168 23.0797C55.8497 23.4766 56.1057 23.9504 56.285 24.5009C56.4643 25.0515 56.5667 25.6597 56.5923 26.3255C56.6051 26.5432 56.6115 26.7672 56.6115 26.9977C56.6115 27.2282 56.6051 27.4586 56.5923 27.6891C56.5795 28.3293 56.4835 28.9247 56.3042 29.4752C56.125 30.013 55.8625 30.4868 55.5168 30.8965C55.1839 31.2934 54.7677 31.6071 54.2684 31.8376C53.769 32.068 53.1801 32.1833 52.5015 32.1833C51.81 32.1833 51.2211 32.0616 50.7345 31.8184C50.248 31.5623 49.8511 31.2294 49.5438 30.8197V35.1794C49.5438 35.3074 49.4989 35.4162 49.4093 35.5059C49.3325 35.5955 49.2237 35.6403 49.0828 35.6403H47.4503ZM51.7908 30.1282C52.3414 30.1282 52.7703 30.013 53.0776 29.7825C53.3849 29.5393 53.6026 29.2256 53.7306 28.8415C53.8715 28.4573 53.9547 28.0348 53.9803 27.5739C54.0059 27.1898 54.0059 26.8056 53.9803 26.4215C53.9547 25.9606 53.8715 25.5381 53.7306 25.1539C53.6026 24.7698 53.3849 24.4625 53.0776 24.2321C52.7703 23.9888 52.3414 23.8671 51.7908 23.8671C51.2659 23.8671 50.837 23.9888 50.5041 24.2321C50.184 24.4753 49.9471 24.789 49.7934 25.1731C49.6526 25.5445 49.5694 25.9286 49.5438 26.3255C49.531 26.556 49.5246 26.7992 49.5246 27.0553C49.5246 27.3114 49.531 27.5611 49.5438 27.8043C49.5566 28.1885 49.6462 28.5598 49.8126 28.9183C49.9791 29.264 50.2224 29.5521 50.5425 29.7825C50.8626 30.013 51.2787 30.1282 51.7908 30.1282ZM57.9032 35.6403C57.7752 35.6403 57.6664 35.5955 57.5767 35.5059C57.4871 35.4162 57.4423 35.3074 57.4423 35.1794V22.4651C57.4423 22.3371 57.4871 22.2283 57.5767 22.1386C57.6664 22.049 57.7752 22.0042 57.9032 22.0042H59.4205C59.5613 22.0042 59.6702 22.049 59.747 22.1386C59.8366 22.2283 59.8814 22.3371 59.8814 22.4651V23.2334C60.1887 22.8236 60.5921 22.4843 61.0914 22.2154C61.5908 21.9466 62.2117 21.8121 62.9544 21.8121C63.633 21.8121 64.222 21.921 64.7213 22.1386C65.2207 22.3563 65.6368 22.67 65.9697 23.0797C66.3026 23.4766 66.5587 23.9504 66.7379 24.5009C66.9172 25.0515 67.0196 25.6597 67.0452 26.3255C67.058 26.5432 67.0644 26.7672 67.0644 26.9977C67.0644 27.2282 67.058 27.4586 67.0452 27.6891C67.0324 28.3293 66.9364 28.9247 66.7571 29.4752C66.5779 30.013 66.3154 30.4868 65.9697 30.8965C65.6368 31.2934 65.2207 31.6071 64.7213 31.8376C64.222 32.068 63.633 32.1833 62.9544 32.1833C62.263 32.1833 61.674 32.0616 61.1874 31.8184C60.7009 31.5623 60.304 31.2294 59.9967 30.8197V35.1794C59.9967 35.3074 59.9519 35.4162 59.8622 35.5059C59.7854 35.5955 59.6766 35.6403 59.5357 35.6403H57.9032ZM62.2438 30.1282C62.7943 30.1282 63.2233 30.013 63.5305 29.7825C63.8378 29.5393 64.0555 29.2256 64.1835 28.8415C64.3244 28.4573 64.4076 28.0348 64.4332 27.5739C64.4588 27.1898 64.4588 26.8056 64.4332 26.4215C64.4076 25.9606 64.3244 25.5381 64.1835 25.1539C64.0555 24.7698 63.8378 24.4625 63.5305 24.2321C63.2233 23.9888 62.7943 23.8671 62.2438 23.8671C61.7188 23.8671 61.2899 23.9888 60.957 24.2321C60.6369 24.4753 60.4 24.789 60.2464 25.1731C60.1055 25.5445 60.0223 25.9286 59.9967 26.3255C59.9839 26.556 59.9775 26.7992 59.9775 27.0553C59.9775 27.3114 59.9839 27.5611 59.9967 27.8043C60.0095 28.1885 60.0991 28.5598 60.2656 28.9183C60.432 29.264 60.6753 29.5521 60.9954 29.7825C61.3155 30.013 61.7316 30.1282 62.2438 30.1282ZM75.8179 32.1833C74.6272 32.1833 73.6285 32.0104 72.8218 31.6647C72.028 31.3062 71.4198 30.8453 70.9973 30.2819C70.5875 29.7057 70.3699 29.1039 70.3443 28.4765C70.3443 28.3613 70.3827 28.2653 70.4595 28.1885C70.5363 28.1116 70.6323 28.0732 70.7476 28.0732H72.4569C72.6234 28.0732 72.745 28.1116 72.8218 28.1885C72.9114 28.2525 72.9883 28.3357 73.0523 28.4381C73.1291 28.6814 73.2763 28.9247 73.494 29.168C73.7117 29.3984 74.0062 29.5905 74.3775 29.7441C74.7616 29.8978 75.2417 29.9746 75.8179 29.9746C76.7398 29.9746 77.4248 29.821 77.8729 29.5137C78.3339 29.2064 78.5644 28.7902 78.5644 28.2653C78.5644 27.894 78.4427 27.5995 78.1994 27.3818C77.9562 27.1513 77.5785 26.9465 77.0663 26.7672C76.5669 26.5752 75.9011 26.3767 75.0689 26.1718C74.1086 25.9414 73.302 25.6661 72.649 25.346C72.0088 25.0131 71.5222 24.597 71.1893 24.0976C70.8692 23.5983 70.7092 22.9645 70.7092 22.1962C70.7092 21.4536 70.9076 20.7942 71.3046 20.218C71.7143 19.6419 72.2905 19.1873 73.0331 18.8544C73.7885 18.5215 74.6848 18.3551 75.7219 18.3551C76.5541 18.3551 77.2904 18.4703 77.9306 18.7008C78.5708 18.9185 79.1021 19.2129 79.5246 19.5843C79.9472 19.9428 80.2673 20.3333 80.4849 20.7558C80.7154 21.1655 80.837 21.5689 80.8498 21.9658C80.8498 22.0682 80.8114 22.1642 80.7346 22.2539C80.6706 22.3307 80.5746 22.3691 80.4465 22.3691H78.6604C78.5579 22.3691 78.4555 22.3435 78.3531 22.2923C78.2507 22.2411 78.1674 22.145 78.1034 22.0042C78.0266 21.6073 77.7769 21.268 77.3544 20.9863C76.9319 20.7046 76.3877 20.5637 75.7219 20.5637C75.0305 20.5637 74.4735 20.6918 74.051 20.9479C73.6285 21.2039 73.4172 21.6009 73.4172 22.1386C73.4172 22.4971 73.5196 22.798 73.7245 23.0413C73.9422 23.2718 74.2815 23.4766 74.7424 23.6559C75.2161 23.8351 75.8371 24.0272 76.6054 24.2321C77.6937 24.4753 78.5836 24.757 79.275 25.0771C79.9664 25.3972 80.4721 25.8069 80.7922 26.3063C81.1123 26.7928 81.2724 27.4138 81.2724 28.1693C81.2724 29.0143 81.0419 29.7377 80.581 30.3395C80.1328 30.9285 79.499 31.383 78.6796 31.7031C77.8601 32.0232 76.9062 32.1833 75.8179 32.1833ZM86.4119 31.9912C85.6436 31.9912 84.9971 31.8568 84.4721 31.5879C83.9471 31.319 83.5566 30.9221 83.3005 30.3971C83.0445 29.8594 82.9164 29.1936 82.9164 28.3997V24.04H81.3992C81.2711 24.04 81.1623 23.9952 81.0727 23.9056C80.983 23.8159 80.9382 23.7071 80.9382 23.5791V22.4651C80.9382 22.3371 80.983 22.2283 81.0727 22.1386C81.1623 22.049 81.2711 22.0042 81.3992 22.0042H82.9164V18.816C82.9164 18.688 82.9548 18.5791 83.0317 18.4895C83.1213 18.3999 83.2365 18.3551 83.3774 18.3551H84.933C85.0611 18.3551 85.1699 18.3999 85.2595 18.4895C85.3492 18.5791 85.394 18.688 85.394 18.816V22.0042H87.7947C87.9227 22.0042 88.0316 22.049 88.1212 22.1386C88.2108 22.2283 88.2556 22.3371 88.2556 22.4651V23.5791C88.2556 23.7071 88.2108 23.8159 88.1212 23.9056C88.0316 23.9952 87.9227 24.04 87.7947 24.04H85.394V28.2077C85.394 28.7326 85.4836 29.1423 85.6629 29.4368C85.8549 29.7313 86.1814 29.8786 86.6423 29.8786H87.9676C88.0956 29.8786 88.2044 29.9234 88.294 30.013C88.3837 30.1026 88.4285 30.2115 88.4285 30.3395V31.5303C88.4285 31.6583 88.3837 31.7671 88.294 31.8568C88.2044 31.9464 88.0956 31.9912 87.9676 31.9912H86.4119ZM93.2052 32.1833C92.1809 32.1833 91.3166 32.004 90.6124 31.6455C89.921 31.287 89.3896 30.7812 89.0183 30.1282C88.6598 29.4752 88.4549 28.7134 88.4037 27.8428C88.3909 27.6123 88.3845 27.3306 88.3845 26.9977C88.3845 26.6648 88.3909 26.3831 88.4037 26.1526C88.4549 25.2692 88.6662 24.5073 89.0375 23.8671C89.4216 23.2142 89.9594 22.7084 90.6508 22.3499C91.355 21.9914 92.2065 21.8121 93.2052 21.8121C94.2039 21.8121 95.0489 21.9914 95.7404 22.3499C96.4446 22.7084 96.9823 23.2142 97.3536 23.8671C97.7378 24.5073 97.9554 25.2692 98.0066 26.1526C98.0194 26.3831 98.0258 26.6648 98.0258 26.9977C98.0258 27.3306 98.0194 27.6123 98.0066 27.8428C97.9554 28.7134 97.7442 29.4752 97.3728 30.1282C97.0143 30.7812 96.483 31.287 95.7788 31.6455C95.0874 32.004 94.2295 32.1833 93.2052 32.1833ZM93.2052 30.2819C93.8838 30.2819 94.4088 30.0706 94.7801 29.6481C95.1514 29.2128 95.3562 28.579 95.3946 27.7467C95.4075 27.5547 95.4139 27.305 95.4139 26.9977C95.4139 26.6904 95.4075 26.4407 95.3946 26.2487C95.3562 25.4292 95.1514 24.8018 94.7801 24.3665C94.4088 23.9312 93.8838 23.7135 93.2052 23.7135C92.5266 23.7135 92.0016 23.9312 91.6303 24.3665C91.259 24.8018 91.0541 25.4292 91.0157 26.2487C91.0029 26.4407 90.9965 26.6904 90.9965 26.9977C90.9965 27.305 91.0029 27.5547 91.0157 27.7467C91.0541 28.579 91.259 29.2128 91.6303 29.6481C92.0016 30.0706 92.5266 30.2819 93.2052 30.2819ZM99.2703 31.9912C99.1423 31.9912 99.0335 31.9464 98.9438 31.8568C98.8542 31.7671 98.8094 31.6583 98.8094 31.5303V22.4843C98.8094 22.3435 98.8542 22.2283 98.9438 22.1386C99.0335 22.049 99.1423 22.0042 99.2703 22.0042H100.826C100.954 22.0042 101.063 22.049 101.152 22.1386C101.255 22.2283 101.306 22.3435 101.306 22.4843V23.2718C101.601 22.862 101.978 22.5483 102.439 22.3307C102.913 22.113 103.457 22.0042 104.072 22.0042H104.859C105 22.0042 105.109 22.049 105.186 22.1386C105.275 22.2283 105.32 22.3371 105.32 22.4651V23.8479C105.32 23.976 105.275 24.0848 105.186 24.1744C105.109 24.2641 105 24.3089 104.859 24.3089H103.361C102.747 24.3089 102.266 24.4817 101.921 24.8274C101.588 25.1731 101.421 25.6469 101.421 26.2487V31.5303C101.421 31.6583 101.377 31.7671 101.287 31.8568C101.197 31.9464 101.082 31.9912 100.941 31.9912H99.2703ZM109.644 32.1833C108.223 32.1833 107.096 31.7735 106.264 30.9541C105.432 30.1346 104.984 28.9695 104.92 27.4586C104.907 27.3306 104.901 27.1706 104.901 26.9785C104.901 26.7736 104.907 26.6136 104.92 26.4983C104.971 25.5381 105.189 24.7058 105.573 24.0016C105.97 23.2974 106.514 22.7596 107.205 22.3883C107.897 22.0042 108.71 21.8121 109.644 21.8121C110.682 21.8121 111.552 22.0298 112.256 22.4651C112.961 22.8877 113.492 23.483 113.851 24.2513C114.209 25.0067 114.388 25.8838 114.388 26.8825V27.2858C114.388 27.4138 114.343 27.5227 114.254 27.6123C114.164 27.7019 114.049 27.7467 113.908 27.7467H107.532C107.532 27.7467 107.532 27.7659 107.532 27.8043C107.532 27.8428 107.532 27.8748 107.532 27.9004C107.545 28.3485 107.628 28.7646 107.782 29.1487C107.948 29.5201 108.185 29.821 108.492 30.0514C108.812 30.2819 109.19 30.3971 109.625 30.3971C109.984 30.3971 110.285 30.3459 110.528 30.2435C110.771 30.1282 110.97 30.0002 111.123 29.8594C111.277 29.7185 111.386 29.6033 111.45 29.5137C111.565 29.36 111.655 29.2704 111.719 29.2448C111.796 29.2064 111.904 29.1872 112.045 29.1872H113.697C113.825 29.1872 113.927 29.2256 114.004 29.3024C114.094 29.3792 114.132 29.4752 114.119 29.5905C114.107 29.7953 113.998 30.045 113.793 30.3395C113.601 30.634 113.319 30.9221 112.948 31.2038C112.577 31.4855 112.109 31.7223 111.546 31.9144C110.995 32.0936 110.361 32.1833 109.644 32.1833ZM107.532 26.1334H111.776V26.0758C111.776 25.5765 111.693 25.1411 111.527 24.7698C111.36 24.3985 111.117 24.104 110.797 23.8864C110.477 23.6687 110.093 23.5599 109.644 23.5599C109.196 23.5599 108.812 23.6687 108.492 23.8864C108.172 24.104 107.929 24.3985 107.762 24.7698C107.609 25.1411 107.532 25.5765 107.532 26.0758V26.1334Z" fill="white"/>
</svg>
