<svg width="129" height="43" viewBox="0 0 129 43" fill="none" xmlns="http://www.w3.org/2000/svg">
<path d="M25.518 25.2969C28.3952 23.6889 30.5953 22.4637 30.7834 22.3679C31.3851 22.0425 32.0057 21.181 30.7834 20.511C30.3885 20.3004 28.2635 19.1135 25.518 17.582L21.7383 21.4491L25.518 25.2969Z" fill="#FFDD33"/>
<path d="M21.7387 21.4492L9.66602 33.8352C9.94809 33.8735 10.2678 33.7969 10.6439 33.5863C11.4337 33.146 19.8206 28.4749 25.5184 25.2971L21.7387 21.4492Z" fill="#FF6666"/>
<path d="M21.7379 21.4488L25.5177 17.5818C25.5177 17.5818 11.4893 9.79029 10.6431 9.33085C10.3235 9.13941 9.96616 9.08198 9.64648 9.13941L21.7379 21.4488Z" fill="#7BFF7B"/>
<path d="M21.7382 21.449L9.64677 9.13965C9.15784 9.25451 8.74414 9.69482 8.74414 10.5946C8.74414 12.0303 8.74414 31.174 8.74414 32.3801C8.74414 33.2032 9.06382 33.7967 9.66557 33.8541L21.7382 21.449Z" fill="#6ED8FF"/>
<path d="M40.904 15.3367C40.3483 15.3367 39.874 15.2401 39.4813 15.0467C39.0947 14.8534 38.7927 14.5755 38.5752 14.213C38.3637 13.8445 38.2489 13.4066 38.2308 12.8991C38.2248 12.6393 38.2218 12.3614 38.2218 12.0654C38.2218 11.7633 38.2248 11.4794 38.2308 11.2136C38.2489 10.7122 38.3637 10.2833 38.5752 9.92682C38.7927 9.57039 39.0977 9.29552 39.4904 9.1022C39.8891 8.90888 40.3603 8.81222 40.904 8.81222C41.3451 8.81222 41.7317 8.87264 42.064 8.99346C42.3962 9.10824 42.6711 9.25927 42.8886 9.44655C43.1121 9.62779 43.2782 9.82412 43.387 10.0356C43.5018 10.247 43.5622 10.4433 43.5682 10.6246C43.5743 10.679 43.5592 10.7243 43.5229 10.7605C43.4867 10.7968 43.4383 10.8149 43.3779 10.8149H42.4446C42.3841 10.8149 42.3388 10.8028 42.3086 10.7786C42.2784 10.7545 42.2512 10.7182 42.2271 10.6699C42.1787 10.543 42.1032 10.4192 42.0005 10.2984C41.8978 10.1715 41.7589 10.0658 41.5837 9.98119C41.4085 9.89662 41.1819 9.85433 40.904 9.85433C40.4932 9.85433 40.164 9.96307 39.9163 10.1806C39.6747 10.398 39.5448 10.7575 39.5267 11.2589C39.5085 11.7845 39.5085 12.3161 39.5267 12.8538C39.5448 13.3673 39.6777 13.7358 39.9254 13.9593C40.1791 14.1828 40.5114 14.2946 40.9222 14.2946C41.194 14.2946 41.4357 14.2463 41.6471 14.1496C41.8646 14.053 42.0338 13.9019 42.1546 13.6965C42.2814 13.4911 42.3449 13.2283 42.3449 12.9082V12.6272H41.2393C41.1789 12.6272 41.1276 12.6061 41.0853 12.5638C41.043 12.5215 41.0219 12.4671 41.0219 12.4007V11.9204C41.0219 11.854 41.043 11.7996 41.0853 11.7573C41.1276 11.715 41.1789 11.6939 41.2393 11.6939H43.4051C43.4716 11.6939 43.5229 11.715 43.5592 11.7573C43.6014 11.7996 43.6226 11.854 43.6226 11.9204V12.8719C43.6226 13.3794 43.5108 13.8174 43.2873 14.1859C43.0698 14.5544 42.7557 14.8383 42.3449 15.0377C41.9401 15.237 41.4598 15.3367 40.904 15.3367ZM46.7054 15.3367C46.0348 15.3367 45.5032 15.1434 45.1105 14.7568C44.7178 14.3701 44.5064 13.8204 44.4762 13.1075C44.4701 13.0471 44.4671 12.9716 44.4671 12.881C44.4671 12.7843 44.4701 12.7088 44.4762 12.6544C44.5003 12.2013 44.603 11.8087 44.7843 11.4764C44.9715 11.1441 45.2283 10.8904 45.5545 10.7152C45.8807 10.534 46.2644 10.4433 46.7054 10.4433C47.1947 10.4433 47.6055 10.546 47.9378 10.7514C48.27 10.9508 48.5207 11.2317 48.6899 11.5942C48.859 11.9506 48.9436 12.3644 48.9436 12.8357V13.026C48.9436 13.0864 48.9225 13.1377 48.8802 13.18C48.8379 13.2223 48.7835 13.2434 48.7171 13.2434H45.7086C45.7086 13.2434 45.7086 13.2525 45.7086 13.2706C45.7086 13.2887 45.7086 13.3039 45.7086 13.3159C45.7146 13.5274 45.7539 13.7237 45.8264 13.9049C45.9049 14.0801 46.0167 14.2221 46.1617 14.3309C46.3127 14.4396 46.4909 14.494 46.6963 14.494C46.8655 14.494 47.0074 14.4698 47.1222 14.4215C47.237 14.3671 47.3306 14.3067 47.4031 14.2402C47.4756 14.1738 47.527 14.1194 47.5572 14.0771C47.6115 14.0046 47.6538 13.9623 47.684 13.9503C47.7203 13.9321 47.7716 13.9231 47.8381 13.9231H48.6174C48.6778 13.9231 48.7261 13.9412 48.7624 13.9774C48.8047 14.0137 48.8228 14.059 48.8168 14.1134C48.8107 14.21 48.7594 14.3278 48.6627 14.4668C48.5721 14.6057 48.4392 14.7417 48.264 14.8746C48.0888 15.0075 47.8683 15.1192 47.6025 15.2098C47.3427 15.2944 47.0437 15.3367 46.7054 15.3367ZM45.7086 12.4822H47.7112V12.4551C47.7112 12.2195 47.672 12.0141 47.5934 11.8389C47.5149 11.6637 47.4001 11.5247 47.2491 11.422C47.098 11.3193 46.9168 11.268 46.7054 11.268C46.4939 11.268 46.3127 11.3193 46.1617 11.422C46.0106 11.5247 45.8958 11.6637 45.8173 11.8389C45.7448 12.0141 45.7086 12.2195 45.7086 12.4551V12.4822ZM52.0173 15.2461C51.6549 15.2461 51.3498 15.1827 51.1021 15.0558C50.8544 14.9289 50.6702 14.7417 50.5493 14.494C50.4285 14.2402 50.3681 13.9261 50.3681 13.5515V11.4945H49.6522C49.5918 11.4945 49.5405 11.4734 49.4982 11.4311C49.4559 11.3888 49.4347 11.3374 49.4347 11.277V10.7514C49.4347 10.691 49.4559 10.6397 49.4982 10.5974C49.5405 10.5551 49.5918 10.534 49.6522 10.534H50.3681V9.02971C50.3681 8.9693 50.3862 8.91795 50.4225 8.87566C50.4648 8.83337 50.5191 8.81222 50.5856 8.81222H51.3196C51.38 8.81222 51.4313 8.83337 51.4736 8.87566C51.5159 8.91795 51.5371 8.9693 51.5371 9.02971V10.534H52.6698C52.7302 10.534 52.7816 10.5551 52.8238 10.5974C52.8661 10.6397 52.8873 10.691 52.8873 10.7514V11.277C52.8873 11.3374 52.8661 11.3888 52.8238 11.4311C52.7816 11.4734 52.7302 11.4945 52.6698 11.4945H51.5371V13.4609C51.5371 13.7086 51.5794 13.9019 51.6639 14.0409C51.7545 14.1798 51.9086 14.2493 52.1261 14.2493H52.7513C52.8118 14.2493 52.8631 14.2704 52.9054 14.3127C52.9477 14.355 52.9688 14.4064 52.9688 14.4668V15.0286C52.9688 15.089 52.9477 15.1404 52.9054 15.1827C52.8631 15.2249 52.8118 15.2461 52.7513 15.2461H52.0173ZM56.0609 15.2461C56.0005 15.2461 55.9492 15.2249 55.9069 15.1827C55.8646 15.1404 55.8435 15.089 55.8435 15.0286V10.7514C55.8435 10.691 55.8646 10.6397 55.9069 10.5974C55.9492 10.5551 56.0005 10.534 56.0609 10.534H56.8131C56.8795 10.534 56.9309 10.5551 56.9671 10.5974C57.0094 10.6397 57.0306 10.691 57.0306 10.7514V15.0286C57.0306 15.089 57.0094 15.1404 56.9671 15.1827C56.9309 15.2249 56.8795 15.2461 56.8131 15.2461H56.0609ZM56.0247 9.75465C55.9582 9.75465 55.9039 9.73653 55.8616 9.70028C55.8253 9.65799 55.8072 9.60362 55.8072 9.53717V8.88472C55.8072 8.82431 55.8253 8.77296 55.8616 8.73067C55.9039 8.68838 55.9582 8.66724 56.0247 8.66724H56.8493C56.9158 8.66724 56.9701 8.68838 57.0124 8.73067C57.0547 8.77296 57.0759 8.82431 57.0759 8.88472V9.53717C57.0759 9.60362 57.0547 9.65799 57.0124 9.70028C56.9701 9.73653 56.9158 9.75465 56.8493 9.75465H56.0247ZM60.3623 15.2461C59.9999 15.2461 59.6948 15.1827 59.4471 15.0558C59.1994 14.9289 59.0151 14.7417 58.8943 14.494C58.7735 14.2402 58.7131 13.9261 58.7131 13.5515V11.4945H57.9972C57.9368 11.4945 57.8854 11.4734 57.8431 11.4311C57.8009 11.3888 57.7797 11.3374 57.7797 11.277V10.7514C57.7797 10.691 57.8009 10.6397 57.8431 10.5974C57.8854 10.5551 57.9368 10.534 57.9972 10.534H58.7131V9.02971C58.7131 8.9693 58.7312 8.91795 58.7675 8.87566C58.8097 8.83337 58.8641 8.81222 58.9306 8.81222H59.6646C59.725 8.81222 59.7763 8.83337 59.8186 8.87566C59.8609 8.91795 59.8821 8.9693 59.8821 9.02971V10.534H61.0148C61.0752 10.534 61.1265 10.5551 61.1688 10.5974C61.2111 10.6397 61.2323 10.691 61.2323 10.7514V11.277C61.2323 11.3374 61.2111 11.3888 61.1688 11.4311C61.1265 11.4734 61.0752 11.4945 61.0148 11.4945H59.8821V13.4609C59.8821 13.7086 59.9243 13.9019 60.0089 14.0409C60.0995 14.1798 60.2536 14.2493 60.4711 14.2493H61.0963C61.1567 14.2493 61.2081 14.2704 61.2504 14.3127C61.2927 14.355 61.3138 14.4064 61.3138 14.4668V15.0286C61.3138 15.089 61.2927 15.1404 61.2504 15.1827C61.2081 15.2249 61.1567 15.2461 61.0963 15.2461H60.3623ZM66.2727 15.3367C65.7894 15.3367 65.3816 15.2521 65.0493 15.083C64.7231 14.9138 64.4724 14.6752 64.2972 14.3671C64.128 14.059 64.0314 13.6995 64.0072 13.2887C64.0012 13.18 63.9982 13.0471 63.9982 12.89C63.9982 12.733 64.0012 12.6001 64.0072 12.4913C64.0314 12.0745 64.1311 11.715 64.3063 11.413C64.4875 11.1049 64.7412 10.8662 65.0674 10.6971C65.3997 10.5279 65.8015 10.4433 66.2727 10.4433C66.7439 10.4433 67.1426 10.5279 67.4688 10.6971C67.8011 10.8662 68.0548 11.1049 68.23 11.413C68.4112 11.715 68.5139 12.0745 68.5381 12.4913C68.5442 12.6001 68.5472 12.733 68.5472 12.89C68.5472 13.0471 68.5442 13.18 68.5381 13.2887C68.5139 13.6995 68.4143 14.059 68.2391 14.3671C68.0699 14.6752 67.8192 14.9138 67.4869 15.083C67.1607 15.2521 66.756 15.3367 66.2727 15.3367ZM66.2727 14.4396C66.5928 14.4396 66.8405 14.3399 67.0157 14.1406C67.1909 13.9352 67.2876 13.6361 67.3057 13.2434C67.3117 13.1528 67.3148 13.035 67.3148 12.89C67.3148 12.745 67.3117 12.6272 67.3057 12.5366C67.2876 12.15 67.1909 11.854 67.0157 11.6486C66.8405 11.4432 66.5928 11.3405 66.2727 11.3405C65.9525 11.3405 65.7048 11.4432 65.5296 11.6486C65.3544 11.854 65.2577 12.15 65.2396 12.5366C65.2336 12.6272 65.2306 12.745 65.2306 12.89C65.2306 13.035 65.2336 13.1528 65.2396 13.2434C65.2577 13.6361 65.3544 13.9352 65.5296 14.1406C65.7048 14.3399 65.9525 14.4396 66.2727 14.4396ZM69.7687 15.2461C69.7083 15.2461 69.6569 15.2249 69.6146 15.1827C69.5723 15.1404 69.5512 15.089 69.5512 15.0286V10.7514C69.5512 10.691 69.5723 10.6397 69.6146 10.5974C69.6569 10.5551 69.7083 10.534 69.7687 10.534H70.5117C70.5722 10.534 70.6235 10.5551 70.6658 10.5974C70.7081 10.6397 70.7292 10.691 70.7292 10.7514V11.123C70.8863 10.9297 71.0857 10.7696 71.3273 10.6427C71.575 10.5098 71.8801 10.4433 72.2425 10.4433C72.6111 10.4433 72.9312 10.5279 73.2031 10.6971C73.4749 10.8602 73.6834 11.0928 73.8284 11.3948C73.9794 11.6969 74.0549 12.0594 74.0549 12.4822V15.0286C74.0549 15.089 74.0338 15.1404 73.9915 15.1827C73.9492 15.2249 73.8978 15.2461 73.8374 15.2461H73.04C72.9796 15.2461 72.9282 15.2249 72.8859 15.1827C72.8436 15.1404 72.8225 15.089 72.8225 15.0286V12.5366C72.8225 12.1862 72.7349 11.9114 72.5597 11.712C72.3905 11.5126 72.1429 11.413 71.8166 11.413C71.5025 11.413 71.2518 11.5126 71.0645 11.712C70.8772 11.9114 70.7836 12.1862 70.7836 12.5366V15.0286C70.7836 15.089 70.7624 15.1404 70.7202 15.1827C70.6779 15.2249 70.6265 15.2461 70.5661 15.2461H69.7687Z" fill="white"/>
<path d="M39.6914 31.9912C39.5634 31.9912 39.4545 31.9464 39.3649 31.8568C39.2753 31.7671 39.2305 31.6583 39.2305 31.5303V19.0273C39.2305 18.8864 39.2753 18.7712 39.3649 18.6816C39.4545 18.592 39.5634 18.5471 39.6914 18.5471H44.8386C45.8373 18.5471 46.7079 18.7072 47.4506 19.0273C48.1932 19.3346 48.7694 19.8083 49.1791 20.4485C49.5888 21.0759 49.7937 21.8633 49.7937 22.8108C49.7937 23.7711 49.5888 24.565 49.1791 25.1924C48.7694 25.8069 48.1932 26.2679 47.4506 26.5752C46.7079 26.8825 45.8373 27.0361 44.8386 27.0361H41.9769V31.5303C41.9769 31.6583 41.9321 31.7671 41.8425 31.8568C41.7656 31.9464 41.6568 31.9912 41.516 31.9912H39.6914ZM41.9385 24.9043H44.7425C45.4852 24.9043 46.0549 24.7314 46.4519 24.3857C46.8488 24.0272 47.0472 23.5022 47.0472 22.8108C47.0472 22.1706 46.8616 21.6585 46.4903 21.2744C46.119 20.8774 45.5364 20.679 44.7425 20.679H41.9385V24.9043ZM50.7958 31.9912C50.6678 31.9912 50.559 31.9464 50.4693 31.8568C50.3797 31.7671 50.3349 31.6583 50.3349 31.5303V18.816C50.3349 18.688 50.3797 18.5791 50.4693 18.4895C50.559 18.3999 50.6678 18.3551 50.7958 18.3551H52.3899C52.518 18.3551 52.6268 18.3999 52.7164 18.4895C52.806 18.5791 52.8509 18.688 52.8509 18.816V31.5303C52.8509 31.6583 52.806 31.7671 52.7164 31.8568C52.6268 31.9464 52.518 31.9912 52.3899 31.9912H50.7958ZM56.9541 32.1833C56.2883 32.1833 55.6866 32.0552 55.1488 31.7992C54.611 31.5303 54.1821 31.1782 53.862 30.7428C53.5547 30.2947 53.4011 29.7953 53.4011 29.2448C53.4011 28.3485 53.7596 27.6379 54.4766 27.1129C55.2064 26.5752 56.1667 26.2167 57.3575 26.0374L59.9887 25.6533V25.25C59.9887 24.7122 59.8542 24.2961 59.5853 24.0016C59.3165 23.7071 58.8555 23.5599 58.2025 23.5599C57.7416 23.5599 57.3639 23.6559 57.0694 23.8479C56.7877 24.0272 56.5764 24.2705 56.4356 24.5778C56.3332 24.7442 56.1859 24.8274 55.9939 24.8274H54.4766C54.3358 24.8274 54.2269 24.789 54.1501 24.7122C54.0861 24.6354 54.0541 24.533 54.0541 24.4049C54.0669 24.2001 54.1501 23.9504 54.3037 23.6559C54.4574 23.3614 54.7007 23.0797 55.0336 22.8108C55.3665 22.5291 55.7954 22.2923 56.3204 22.1002C56.8453 21.9082 57.4791 21.8121 58.2217 21.8121C59.0284 21.8121 59.707 21.9146 60.2575 22.1194C60.8209 22.3115 61.2691 22.574 61.602 22.9069C61.9349 23.2398 62.1781 23.6303 62.3318 24.0784C62.4854 24.5265 62.5622 25.0003 62.5622 25.4996V31.5303C62.5622 31.6583 62.5174 31.7671 62.4278 31.8568C62.3382 31.9464 62.2293 31.9912 62.1013 31.9912H60.5456C60.4048 31.9912 60.2896 31.9464 60.1999 31.8568C60.1231 31.7671 60.0847 31.6583 60.0847 31.5303V30.7812C59.9182 31.0245 59.6942 31.255 59.4125 31.4727C59.1308 31.6775 58.7851 31.8504 58.3754 31.9912C57.9785 32.1192 57.5047 32.1833 56.9541 32.1833ZM57.6071 30.3587C58.0553 30.3587 58.4586 30.2627 58.8171 30.0706C59.1884 29.8786 59.4765 29.5841 59.6814 29.1872C59.899 28.7774 60.0079 28.2653 60.0079 27.6507V27.2474L58.0873 27.5547C57.3319 27.6699 56.7685 27.8556 56.3972 28.1116C56.0259 28.3677 55.8402 28.6814 55.8402 29.0527C55.8402 29.3344 55.9234 29.5777 56.0899 29.7825C56.2691 29.9746 56.4932 30.1218 56.7621 30.2243C57.031 30.3139 57.3127 30.3587 57.6071 30.3587ZM65.2245 35.6403C65.1221 35.6403 65.0324 35.6019 64.9556 35.5251C64.8788 35.4483 64.8404 35.3586 64.8404 35.2562C64.8404 35.205 64.8404 35.1538 64.8404 35.1026C64.8532 35.0641 64.8788 35.0129 64.9172 34.9489L66.4153 31.3958L62.7277 22.6956C62.6765 22.5676 62.6509 22.4779 62.6509 22.4267C62.6637 22.3115 62.7085 22.2154 62.7854 22.1386C62.8622 22.049 62.9582 22.0042 63.0734 22.0042H64.6291C64.7828 22.0042 64.898 22.0426 64.9748 22.1194C65.0516 22.1962 65.1093 22.2795 65.1477 22.3691L67.7021 28.6494L70.3332 22.3691C70.3717 22.2667 70.4293 22.1834 70.5061 22.1194C70.5829 22.0426 70.6982 22.0042 70.8518 22.0042H72.3883C72.4907 22.0042 72.5803 22.0426 72.6572 22.1194C72.7468 22.1962 72.7916 22.2859 72.7916 22.3883C72.7916 22.4651 72.766 22.5676 72.7148 22.6956L67.2795 35.2754C67.2283 35.3778 67.1643 35.4611 67.0875 35.5251C67.0106 35.6019 66.8954 35.6403 66.7418 35.6403H65.2245ZM80.5386 32.1833C79.3478 32.1833 78.3491 32.0104 77.5425 31.6647C76.7486 31.3062 76.1405 30.8453 75.7179 30.2819C75.3082 29.7057 75.0905 29.1039 75.0649 28.4765C75.0649 28.3613 75.1033 28.2653 75.1802 28.1885C75.257 28.1116 75.353 28.0732 75.4683 28.0732H77.1776C77.344 28.0732 77.4657 28.1116 77.5425 28.1885C77.6321 28.2525 77.7089 28.3357 77.773 28.4381C77.8498 28.6814 77.997 28.9247 78.2147 29.168C78.4324 29.3984 78.7268 29.5905 79.0982 29.7441C79.4823 29.8978 79.9624 29.9746 80.5386 29.9746C81.4605 29.9746 82.1455 29.821 82.5936 29.5137C83.0546 29.2064 83.285 28.7902 83.285 28.2653C83.285 27.894 83.1634 27.5995 82.9201 27.3818C82.6768 27.1513 82.2991 26.9465 81.787 26.7672C81.2876 26.5752 80.6218 26.3767 79.7896 26.1718C78.8293 25.9414 78.0226 25.6661 77.3696 25.346C76.7294 25.0131 76.2429 24.597 75.91 24.0976C75.5899 23.5983 75.4298 22.9645 75.4298 22.1962C75.4298 21.4536 75.6283 20.7942 76.0252 20.218C76.4349 19.6419 77.0111 19.1873 77.7537 18.8544C78.5092 18.5215 79.4054 18.3551 80.4426 18.3551C81.2748 18.3551 82.011 18.4703 82.6512 18.7008C83.2914 18.9185 83.8228 19.2129 84.2453 19.5843C84.6678 19.9428 84.9879 20.3333 85.2056 20.7558C85.4361 21.1655 85.5577 21.5689 85.5705 21.9658C85.5705 22.0682 85.5321 22.1642 85.4553 22.2539C85.3913 22.3307 85.2952 22.3691 85.1672 22.3691H83.3811C83.2786 22.3691 83.1762 22.3435 83.0738 22.2923C82.9713 22.2411 82.8881 22.145 82.8241 22.0042C82.7473 21.6073 82.4976 21.268 82.0751 20.9863C81.6525 20.7046 81.1084 20.5637 80.4426 20.5637C79.7512 20.5637 79.1942 20.6918 78.7717 20.9479C78.3491 21.2039 78.1379 21.6009 78.1379 22.1386C78.1379 22.4971 78.2403 22.798 78.4452 23.0413C78.6628 23.2718 79.0021 23.4766 79.4631 23.6559C79.9368 23.8351 80.5578 24.0272 81.326 24.2321C82.4144 24.4753 83.3042 24.757 83.9956 25.0771C84.687 25.3972 85.1928 25.8069 85.5129 26.3063C85.833 26.7928 85.993 27.4138 85.993 28.1693C85.993 29.0143 85.7626 29.7377 85.3016 30.3395C84.8535 30.9285 84.2197 31.383 83.4003 31.7031C82.5808 32.0232 81.6269 32.1833 80.5386 32.1833ZM91.1325 31.9912C90.3643 31.9912 89.7177 31.8568 89.1928 31.5879C88.6678 31.319 88.2773 30.9221 88.0212 30.3971C87.7651 29.8594 87.6371 29.1936 87.6371 28.3997V24.04H86.1198C85.9918 24.04 85.883 23.9952 85.7933 23.9056C85.7037 23.8159 85.6589 23.7071 85.6589 23.5791V22.4651C85.6589 22.3371 85.7037 22.2283 85.7933 22.1386C85.883 22.049 85.9918 22.0042 86.1198 22.0042H87.6371V18.816C87.6371 18.688 87.6755 18.5791 87.7523 18.4895C87.842 18.3999 87.9572 18.3551 88.098 18.3551H89.6537C89.7817 18.3551 89.8906 18.3999 89.9802 18.4895C90.0698 18.5791 90.1146 18.688 90.1146 18.816V22.0042H92.5154C92.6434 22.0042 92.7522 22.049 92.8419 22.1386C92.9315 22.2283 92.9763 22.3371 92.9763 22.4651V23.5791C92.9763 23.7071 92.9315 23.8159 92.8419 23.9056C92.7522 23.9952 92.6434 24.04 92.5154 24.04H90.1146V28.2077C90.1146 28.7326 90.2043 29.1423 90.3835 29.4368C90.5756 29.7313 90.9021 29.8786 91.363 29.8786H92.6882C92.8163 29.8786 92.9251 29.9234 93.0147 30.013C93.1043 30.1026 93.1492 30.2115 93.1492 30.3395V31.5303C93.1492 31.6583 93.1043 31.7671 93.0147 31.8568C92.9251 31.9464 92.8163 31.9912 92.6882 31.9912H91.1325ZM97.9259 32.1833C96.9015 32.1833 96.0373 32.004 95.3331 31.6455C94.6417 31.287 94.1103 30.7812 93.739 30.1282C93.3805 29.4752 93.1756 28.7134 93.1244 27.8428C93.1116 27.6123 93.1052 27.3306 93.1052 26.9977C93.1052 26.6648 93.1116 26.3831 93.1244 26.1526C93.1756 25.2692 93.3869 24.5073 93.7582 23.8671C94.1423 23.2142 94.6801 22.7084 95.3715 22.3499C96.0757 21.9914 96.9272 21.8121 97.9259 21.8121C98.9246 21.8121 99.7696 21.9914 100.461 22.3499C101.165 22.7084 101.703 23.2142 102.074 23.8671C102.458 24.5073 102.676 25.2692 102.727 26.1526C102.74 26.3831 102.747 26.6648 102.747 26.9977C102.747 27.3306 102.74 27.6123 102.727 27.8428C102.676 28.7134 102.465 29.4752 102.094 30.1282C101.735 30.7812 101.204 31.287 100.499 31.6455C99.808 32.004 98.9502 32.1833 97.9259 32.1833ZM97.9259 30.2819C98.6045 30.2819 99.1294 30.0706 99.5007 29.6481C99.872 29.2128 100.077 28.579 100.115 27.7467C100.128 27.5547 100.135 27.305 100.135 26.9977C100.135 26.6904 100.128 26.4407 100.115 26.2487C100.077 25.4292 99.872 24.8018 99.5007 24.3665C99.1294 23.9312 98.6045 23.7135 97.9259 23.7135C97.2473 23.7135 96.7223 23.9312 96.351 24.3665C95.9797 24.8018 95.7748 25.4292 95.7364 26.2487C95.7236 26.4407 95.7172 26.6904 95.7172 26.9977C95.7172 27.305 95.7236 27.5547 95.7364 27.7467C95.7748 28.579 95.9797 29.2128 96.351 29.6481C96.7223 30.0706 97.2473 30.2819 97.9259 30.2819ZM103.991 31.9912C103.863 31.9912 103.754 31.9464 103.664 31.8568C103.575 31.7671 103.53 31.6583 103.53 31.5303V22.4843C103.53 22.3435 103.575 22.2283 103.664 22.1386C103.754 22.049 103.863 22.0042 103.991 22.0042H105.547C105.675 22.0042 105.784 22.049 105.873 22.1386C105.976 22.2283 106.027 22.3435 106.027 22.4843V23.2718C106.321 22.862 106.699 22.5483 107.16 22.3307C107.634 22.113 108.178 22.0042 108.792 22.0042H109.58C109.721 22.0042 109.83 22.049 109.906 22.1386C109.996 22.2283 110.041 22.3371 110.041 22.4651V23.8479C110.041 23.976 109.996 24.0848 109.906 24.1744C109.83 24.2641 109.721 24.3089 109.58 24.3089H108.082C107.467 24.3089 106.987 24.4817 106.641 24.8274C106.308 25.1731 106.142 25.6469 106.142 26.2487V31.5303C106.142 31.6583 106.097 31.7671 106.008 31.8568C105.918 31.9464 105.803 31.9912 105.662 31.9912H103.991ZM114.365 32.1833C112.944 32.1833 111.817 31.7735 110.985 30.9541C110.153 30.1346 109.705 28.9695 109.641 27.4586C109.628 27.3306 109.621 27.1706 109.621 26.9785C109.621 26.7736 109.628 26.6136 109.641 26.4983C109.692 25.5381 109.909 24.7058 110.294 24.0016C110.69 23.2974 111.235 22.7596 111.926 22.3883C112.617 22.0042 113.43 21.8121 114.365 21.8121C115.402 21.8121 116.273 22.0298 116.977 22.4651C117.681 22.8877 118.213 23.483 118.571 24.2513C118.93 25.0067 119.109 25.8838 119.109 26.8825V27.2858C119.109 27.4138 119.064 27.5227 118.975 27.6123C118.885 27.7019 118.77 27.7467 118.629 27.7467H112.252C112.252 27.7467 112.252 27.7659 112.252 27.8043C112.252 27.8428 112.252 27.8748 112.252 27.9004C112.265 28.3485 112.349 28.7646 112.502 29.1487C112.669 29.5201 112.905 29.821 113.213 30.0514C113.533 30.2819 113.911 30.3971 114.346 30.3971C114.704 30.3971 115.005 30.3459 115.249 30.2435C115.492 30.1282 115.69 30.0002 115.844 29.8594C115.998 29.7185 116.106 29.6033 116.17 29.5137C116.286 29.36 116.375 29.2704 116.439 29.2448C116.516 29.2064 116.625 29.1872 116.766 29.1872H118.418C118.546 29.1872 118.648 29.2256 118.725 29.3024C118.814 29.3792 118.853 29.4752 118.84 29.5905C118.827 29.7953 118.718 30.045 118.514 30.3395C118.322 30.634 118.04 30.9221 117.669 31.2038C117.297 31.4855 116.83 31.7223 116.267 31.9144C115.716 32.0936 115.082 32.1833 114.365 32.1833ZM112.252 26.1334H116.497V26.0758C116.497 25.5765 116.414 25.1411 116.247 24.7698C116.081 24.3985 115.838 24.104 115.517 23.8864C115.197 23.6687 114.813 23.5599 114.365 23.5599C113.917 23.5599 113.533 23.6687 113.213 23.8864C112.893 24.104 112.649 24.3985 112.483 24.7698C112.329 25.1411 112.252 25.5765 112.252 26.0758V26.1334Z" fill="white"/>
</svg>
