<svg width="29" height="35" viewBox="0 0 29 35" fill="none" xmlns="http://www.w3.org/2000/svg">
<path d="M27.4412 11.7234C27.2392 11.8781 23.6737 13.8624 23.6737 18.2746C23.6737 23.378 28.2107 25.1835 28.3465 25.2282C28.3256 25.3382 27.6257 27.7008 25.9544 30.108C24.4641 32.2264 22.9077 34.3414 20.54 34.3414C18.1723 34.3414 17.5629 32.983 14.8296 32.983C12.1659 32.983 11.2188 34.3861 9.05305 34.3861C6.88729 34.3861 5.37612 32.4259 3.63863 30.0186C1.62607 27.1918 0 22.8003 0 18.6323C0 11.9469 4.40118 8.40136 8.73272 8.40136C11.0343 8.40136 12.9528 9.89387 14.3978 9.89387C15.7732 9.89387 17.9181 8.31195 20.5365 8.31195C21.5289 8.31195 25.0944 8.40136 27.4412 11.7234ZM19.2934 5.48169C20.3763 4.21272 21.1424 2.45197 21.1424 0.69123C21.1424 0.447064 21.1215 0.199459 21.0762 0C19.3143 0.0653401 17.2182 1.15893 15.9543 2.60673C14.9619 3.72095 14.0357 5.48169 14.0357 7.26651C14.0357 7.53475 14.081 7.80299 14.1019 7.88896C14.2133 7.90959 14.3944 7.93367 14.5754 7.93367C16.1562 7.93367 18.1444 6.88822 19.2934 5.48169Z" fill="white"/>
</svg>
