<svg width="194" height="65" viewBox="0 0 194 65" fill="none" xmlns="http://www.w3.org/2000/svg">
<rect x="0.56686" y="0.56686" width="192.365" height="63.8663" rx="10.0145" stroke="white" stroke-width="1.13372"/>
<path d="M38.6002 38.264C42.9522 35.8316 46.2802 33.9783 46.5647 33.8336C47.4749 33.3413 48.4136 32.0382 46.5647 31.0247C45.9673 30.7062 42.7531 28.9108 38.6002 26.5942L32.8828 32.4436L38.6002 38.264Z" fill="#FFDD33"/>
<path d="M32.8806 32.4434L14.6191 51.1787C15.0458 51.2366 15.5294 51.1208 16.0983 50.8023C17.2929 50.1362 29.9792 43.0707 38.5979 38.2638L32.8806 32.4434Z" fill="#FF6666"/>
<path d="M32.8817 32.4437L38.599 26.5943C38.599 26.5943 17.3794 14.8087 16.0994 14.1137C15.6158 13.8241 15.0754 13.7373 14.5918 13.8241L32.8817 32.4437Z" fill="#7BFF7B"/>
<path d="M32.8818 32.4438L14.5919 13.8242C13.8523 13.998 13.2266 14.664 13.2266 16.025C13.2266 18.1968 13.2266 47.154 13.2266 48.9784C13.2266 50.2235 13.7101 51.1212 14.6203 51.2081L32.8818 32.4438Z" fill="#6ED8FF"/>
<path d="M61.8737 22.5848C61.033 22.5848 60.3156 22.4386 59.7216 22.1462C59.1368 21.8538 58.6799 21.4334 58.3509 20.8851C58.0311 20.3277 57.8575 19.6652 57.8301 18.8976C57.8209 18.5047 57.8164 18.0843 57.8164 17.6366C57.8164 17.1796 57.8209 16.7502 57.8301 16.3481C57.8575 15.5896 58.0311 14.9408 58.3509 14.4017C58.6799 13.8625 59.1414 13.4467 59.7354 13.1543C60.3385 12.8619 61.0512 12.7157 61.8737 12.7157C62.5407 12.7157 63.1256 12.8071 63.6282 12.9898C64.1308 13.1635 64.5466 13.3919 64.8755 13.6752C65.2136 13.9493 65.4649 14.2463 65.6294 14.5662C65.803 14.886 65.8944 15.183 65.9036 15.4571C65.9127 15.5394 65.8899 15.6079 65.835 15.6627C65.7802 15.7176 65.7071 15.745 65.6157 15.745H64.2039C64.1125 15.745 64.044 15.7267 63.9983 15.6901C63.9526 15.6536 63.9115 15.5988 63.8749 15.5257C63.8018 15.3338 63.6876 15.1464 63.5322 14.9637C63.3769 14.7718 63.1667 14.6118 62.9017 14.4839C62.6367 14.356 62.294 14.292 61.8737 14.292C61.2523 14.292 60.7543 14.4565 60.3796 14.7855C60.0141 15.1144 59.8176 15.6582 59.7902 16.4166C59.7628 17.2116 59.7628 18.0158 59.7902 18.8291C59.8176 19.6058 60.0186 20.1632 60.3933 20.5013C60.7771 20.8395 61.2797 21.0085 61.9011 21.0085C62.3123 21.0085 62.6778 20.9354 62.9977 20.7892C63.3266 20.643 63.5825 20.4145 63.7653 20.1038C63.9572 19.7931 64.0531 19.3956 64.0531 18.9113V18.4864H62.3808C62.2894 18.4864 62.2118 18.4544 62.1478 18.3904C62.0838 18.3265 62.0519 18.2442 62.0519 18.1437V17.4172C62.0519 17.3167 62.0838 17.2345 62.1478 17.1705C62.2118 17.1065 62.2894 17.0746 62.3808 17.0746H65.6568C65.7574 17.0746 65.835 17.1065 65.8899 17.1705C65.9538 17.2345 65.9858 17.3167 65.9858 17.4172V18.8565C65.9858 19.6241 65.8168 20.2866 65.4786 20.844C65.1497 21.4014 64.6745 21.8309 64.0531 22.1325C63.4408 22.434 62.7144 22.5848 61.8737 22.5848ZM70.6489 22.5848C69.6346 22.5848 68.8304 22.2924 68.2365 21.7076C67.6425 21.1227 67.3226 20.2912 67.277 19.2129C67.2678 19.1215 67.2632 19.0073 67.2632 18.8702C67.2632 18.724 67.2678 18.6098 67.277 18.5275C67.3135 17.8422 67.4689 17.2482 67.743 16.7456C68.0263 16.243 68.4146 15.8592 68.9081 15.5942C69.4016 15.32 69.9818 15.183 70.6489 15.183C71.3891 15.183 72.0105 15.3383 72.5131 15.649C73.0157 15.9506 73.3949 16.3755 73.6508 16.9238C73.9066 17.4629 74.0346 18.0889 74.0346 18.8017V19.0895C74.0346 19.1809 74.0026 19.2586 73.9386 19.3225C73.8747 19.3865 73.7924 19.4185 73.6919 19.4185H69.1411C69.1411 19.4185 69.1411 19.4322 69.1411 19.4596C69.1411 19.487 69.1411 19.5099 69.1411 19.5281C69.1503 19.848 69.2097 20.145 69.3193 20.4191C69.4381 20.6841 69.6072 20.8988 69.8265 21.0633C70.0549 21.2278 70.3245 21.3101 70.6352 21.3101C70.8911 21.3101 71.1058 21.2735 71.2794 21.2004C71.4531 21.1182 71.5947 21.0268 71.7044 20.9263C71.814 20.8257 71.8917 20.7435 71.9374 20.6795C72.0196 20.5699 72.0836 20.5059 72.1293 20.4876C72.1841 20.4602 72.2618 20.4465 72.3623 20.4465H73.5411C73.6325 20.4465 73.7056 20.4739 73.7604 20.5288C73.8244 20.5836 73.8518 20.6521 73.8427 20.7344C73.8335 20.8806 73.7559 21.0588 73.6096 21.2689C73.4726 21.4791 73.2715 21.6847 73.0065 21.8858C72.7415 22.0868 72.408 22.2559 72.0059 22.3929C71.613 22.5209 71.1606 22.5848 70.6489 22.5848ZM69.1411 18.2671H72.1704V18.226C72.1704 17.8696 72.111 17.5589 71.9922 17.2939C71.8734 17.0289 71.6998 16.8187 71.4713 16.6633C71.2429 16.508 70.9687 16.4303 70.6489 16.4303C70.3291 16.4303 70.0549 16.508 69.8265 16.6633C69.598 16.8187 69.4244 17.0289 69.3056 17.2939C69.196 17.5589 69.1411 17.8696 69.1411 18.226V18.2671ZM78.684 22.4478C78.1357 22.4478 77.6742 22.3518 77.2995 22.1599C76.9249 21.968 76.6462 21.6847 76.4634 21.3101C76.2806 20.9263 76.1893 20.4511 76.1893 19.8845V16.773H75.1064C75.015 16.773 74.9373 16.741 74.8734 16.6771C74.8094 16.6131 74.7774 16.5354 74.7774 16.444V15.649C74.7774 15.5576 74.8094 15.48 74.8734 15.416C74.9373 15.352 75.015 15.32 75.1064 15.32H76.1893V13.0447C76.1893 12.9533 76.2167 12.8756 76.2715 12.8116C76.3355 12.7477 76.4177 12.7157 76.5182 12.7157H77.6285C77.7199 12.7157 77.7976 12.7477 77.8615 12.8116C77.9255 12.8756 77.9575 12.9533 77.9575 13.0447V15.32H79.6709C79.7623 15.32 79.8399 15.352 79.9039 15.416C79.9679 15.48 79.9998 15.5576 79.9998 15.649V16.444C79.9998 16.5354 79.9679 16.6131 79.9039 16.6771C79.8399 16.741 79.7623 16.773 79.6709 16.773H77.9575V19.7474C77.9575 20.1221 78.0214 20.4145 78.1494 20.6247C78.2865 20.8349 78.5195 20.94 78.8484 20.94H79.7942C79.8856 20.94 79.9633 20.972 80.0273 21.0359C80.0912 21.0999 80.1232 21.1776 80.1232 21.2689V22.1188C80.1232 22.2102 80.0912 22.2878 80.0273 22.3518C79.9633 22.4158 79.8856 22.4478 79.7942 22.4478H78.684ZM84.8004 22.4478C84.7091 22.4478 84.6314 22.4158 84.5674 22.3518C84.5035 22.2878 84.4715 22.2102 84.4715 22.1188V15.649C84.4715 15.5576 84.5035 15.48 84.5674 15.416C84.6314 15.352 84.7091 15.32 84.8004 15.32H85.9381C86.0387 15.32 86.1163 15.352 86.1712 15.416C86.2351 15.48 86.2671 15.5576 86.2671 15.649V22.1188C86.2671 22.2102 86.2351 22.2878 86.1712 22.3518C86.1163 22.4158 86.0387 22.4478 85.9381 22.4478H84.8004ZM84.7456 14.1412C84.6451 14.1412 84.5629 14.1138 84.4989 14.059C84.4441 13.995 84.4166 13.9128 84.4166 13.8123V12.8253C84.4166 12.734 84.4441 12.6563 84.4989 12.5923C84.5629 12.5284 84.6451 12.4964 84.7456 12.4964H85.993C86.0935 12.4964 86.1757 12.5284 86.2397 12.5923C86.3037 12.6563 86.3356 12.734 86.3356 12.8253V13.8123C86.3356 13.9128 86.3037 13.995 86.2397 14.059C86.1757 14.1138 86.0935 14.1412 85.993 14.1412H84.7456ZM91.3068 22.4478C90.7585 22.4478 90.2971 22.3518 89.9224 22.1599C89.5478 21.968 89.269 21.6847 89.0863 21.3101C88.9035 20.9263 88.8121 20.4511 88.8121 19.8845V16.773H87.7293C87.6379 16.773 87.5602 16.741 87.4963 16.6771C87.4323 16.6131 87.4003 16.5354 87.4003 16.444V15.649C87.4003 15.5576 87.4323 15.48 87.4963 15.416C87.5602 15.352 87.6379 15.32 87.7293 15.32H88.8121V13.0447C88.8121 12.9533 88.8396 12.8756 88.8944 12.8116C88.9583 12.7477 89.0406 12.7157 89.1411 12.7157H90.2514C90.3428 12.7157 90.4204 12.7477 90.4844 12.8116C90.5484 12.8756 90.5804 12.9533 90.5804 13.0447V15.32H92.2937C92.3851 15.32 92.4628 15.352 92.5268 15.416C92.5907 15.48 92.6227 15.5576 92.6227 15.649V16.444C92.6227 16.5354 92.5907 16.6131 92.5268 16.6771C92.4628 16.741 92.3851 16.773 92.2937 16.773H90.5804V19.7474C90.5804 20.1221 90.6443 20.4145 90.7723 20.6247C90.9093 20.8349 91.1423 20.94 91.4713 20.94H92.4171C92.5085 20.94 92.5862 20.972 92.6501 21.0359C92.7141 21.0999 92.7461 21.1776 92.7461 21.2689V22.1188C92.7461 22.2102 92.7141 22.2878 92.6501 22.3518C92.5862 22.4158 92.5085 22.4478 92.4171 22.4478H91.3068ZM100.247 22.5848C99.5159 22.5848 98.8991 22.4569 98.3965 22.201C97.9031 21.9452 97.5238 21.5842 97.2588 21.1182C97.003 20.6521 96.8568 20.1084 96.8202 19.487C96.8111 19.3225 96.8065 19.1215 96.8065 18.8839C96.8065 18.6463 96.8111 18.4453 96.8202 18.2808C96.8568 17.6503 97.0075 17.1065 97.2725 16.6496C97.5467 16.1836 97.9305 15.8226 98.4239 15.5668C98.9265 15.3109 99.5342 15.183 100.247 15.183C100.96 15.183 101.563 15.3109 102.056 15.5668C102.559 15.8226 102.943 16.1836 103.208 16.6496C103.482 17.1065 103.637 17.6503 103.674 18.2808C103.683 18.4453 103.687 18.6463 103.687 18.8839C103.687 19.1215 103.683 19.3225 103.674 19.487C103.637 20.1084 103.486 20.6521 103.221 21.1182C102.966 21.5842 102.586 21.9452 102.084 22.201C101.59 22.4569 100.978 22.5848 100.247 22.5848ZM100.247 21.2278C100.731 21.2278 101.106 21.077 101.371 20.7755C101.636 20.4648 101.782 20.0125 101.81 19.4185C101.819 19.2814 101.823 19.1032 101.823 18.8839C101.823 18.6646 101.819 18.4864 101.81 18.3493C101.782 17.7645 101.636 17.3167 101.371 17.006C101.106 16.6953 100.731 16.54 100.247 16.54C99.7627 16.54 99.388 16.6953 99.123 17.006C98.858 17.3167 98.7118 17.7645 98.6844 18.3493C98.6752 18.4864 98.6707 18.6646 98.6707 18.8839C98.6707 19.1032 98.6752 19.2814 98.6844 19.4185C98.7118 20.0125 98.858 20.4648 99.123 20.7755C99.388 21.077 99.7627 21.2278 100.247 21.2278ZM105.535 22.4478C105.444 22.4478 105.366 22.4158 105.302 22.3518C105.238 22.2878 105.206 22.2102 105.206 22.1188V15.649C105.206 15.5576 105.238 15.48 105.302 15.416C105.366 15.352 105.444 15.32 105.535 15.32H106.659C106.751 15.32 106.828 15.352 106.892 15.416C106.956 15.48 106.988 15.5576 106.988 15.649V16.211C107.226 15.9186 107.527 15.6764 107.893 15.4845C108.267 15.2835 108.729 15.183 109.277 15.183C109.835 15.183 110.319 15.3109 110.73 15.5668C111.141 15.8135 111.457 16.1653 111.676 16.6222C111.904 17.0791 112.019 17.6274 112.019 18.2671V22.1188C112.019 22.2102 111.987 22.2878 111.923 22.3518C111.859 22.4158 111.781 22.4478 111.69 22.4478H110.483C110.392 22.4478 110.314 22.4158 110.25 22.3518C110.186 22.2878 110.154 22.2102 110.154 22.1188V18.3493C110.154 17.8193 110.022 17.4035 109.757 17.102C109.501 16.8004 109.126 16.6496 108.633 16.6496C108.158 16.6496 107.779 16.8004 107.495 17.102C107.212 17.4035 107.07 17.8193 107.07 18.3493V22.1188C107.07 22.2102 107.038 22.2878 106.974 22.3518C106.91 22.4158 106.833 22.4478 106.741 22.4478H105.535Z" fill="white"/>
<path d="M60.0394 48.1631C59.8457 48.1631 59.6811 48.0953 59.5455 47.9597C59.41 47.8242 59.3422 47.6595 59.3422 47.4659V28.5535C59.3422 28.3404 59.41 28.1661 59.5455 28.0305C59.6811 27.895 59.8457 27.8272 60.0394 27.8272H67.8251C69.3358 27.8272 70.6528 28.0693 71.7761 28.5535C72.8994 29.0183 73.771 29.7349 74.3907 30.7033C75.0105 31.6523 75.3204 32.8434 75.3204 34.2766C75.3204 35.7291 75.0105 36.9299 74.3907 37.8789C73.771 38.8086 72.8994 39.5058 71.7761 39.9706C70.6528 40.4354 69.3358 40.6679 67.8251 40.6679H63.4965V47.4659C63.4965 47.6595 63.4287 47.8242 63.2931 47.9597C63.1769 48.0953 63.0123 48.1631 62.7993 48.1631H60.0394ZM63.4384 37.4432H67.6799C68.8032 37.4432 69.6651 37.1817 70.2655 36.6588C70.8659 36.1165 71.166 35.3224 71.166 34.2766C71.166 33.3082 70.8852 32.5335 70.3236 31.9525C69.7619 31.3521 68.8807 31.0519 67.6799 31.0519H63.4384V37.4432ZM76.8363 48.1631C76.6426 48.1631 76.478 48.0953 76.3424 47.9597C76.2068 47.8242 76.139 47.6595 76.139 47.4659V28.2339C76.139 28.0402 76.2068 27.8756 76.3424 27.74C76.478 27.6045 76.6426 27.5367 76.8363 27.5367H79.2475C79.4412 27.5367 79.6058 27.6045 79.7414 27.74C79.877 27.8756 79.9448 28.0402 79.9448 28.2339V47.4659C79.9448 47.6595 79.877 47.8242 79.7414 47.9597C79.6058 48.0953 79.4412 48.1631 79.2475 48.1631H76.8363ZM86.1515 48.4536C85.1444 48.4536 84.2341 48.2599 83.4207 47.8726C82.6073 47.4659 81.9585 46.9332 81.4743 46.2748C81.0094 45.5969 80.777 44.8416 80.777 44.0088C80.777 42.653 81.3193 41.5781 82.4039 40.7841C83.5079 39.9706 84.9604 39.4283 86.7616 39.1572L90.7416 38.5762V37.9661C90.7416 37.1526 90.5383 36.5232 90.1315 36.0777C89.7248 35.6323 89.0276 35.4096 88.0399 35.4096C87.3426 35.4096 86.7713 35.5548 86.3258 35.8453C85.8997 36.1165 85.5802 36.4845 85.3671 36.9493C85.2122 37.2011 84.9895 37.327 84.699 37.327H82.4039C82.1909 37.327 82.0262 37.2689 81.91 37.1526C81.8132 37.0364 81.7648 36.8815 81.7648 36.6878C81.7841 36.3779 81.91 36.0003 82.1424 35.5548C82.3749 35.1094 82.7428 34.6833 83.2464 34.2766C83.7499 33.8505 84.3988 33.4922 85.1928 33.2017C85.9869 32.9112 86.9456 32.7659 88.0689 32.7659C89.2891 32.7659 90.3155 32.9208 91.1483 33.2307C92.0005 33.5212 92.6784 33.9183 93.1819 34.4218C93.6855 34.9254 94.0535 35.5161 94.2859 36.194C94.5183 36.8718 94.6345 37.5884 94.6345 38.3437V47.4659C94.6345 47.6595 94.5667 47.8242 94.4311 47.9597C94.2956 48.0953 94.1309 48.1631 93.9373 48.1631H91.5841C91.3711 48.1631 91.1968 48.0953 91.0612 47.9597C90.945 47.8242 90.8869 47.6595 90.8869 47.4659V46.3329C90.6351 46.7008 90.2962 47.0495 89.8701 47.3787C89.444 47.6886 88.9211 47.95 88.3013 48.1631C87.7009 48.3568 86.9843 48.4536 86.1515 48.4536ZM87.1393 45.6937C87.8171 45.6937 88.4272 45.5485 88.9695 45.258C89.5312 44.9674 89.9669 44.522 90.2768 43.9216C90.6061 43.3018 90.7707 42.5271 90.7707 41.5975V40.9874L87.8655 41.4522C86.7229 41.6265 85.8707 41.9074 85.309 42.2947C84.7474 42.6821 84.4665 43.1566 84.4665 43.7182C84.4665 44.1443 84.5924 44.5123 84.8442 44.8222C85.1154 45.1127 85.4543 45.3354 85.861 45.4904C86.2677 45.6259 86.6938 45.6937 87.1393 45.6937ZM98.6615 53.6828C98.5066 53.6828 98.371 53.6247 98.2548 53.5085C98.1386 53.3923 98.0805 53.2567 98.0805 53.1018C98.0805 53.0243 98.0805 52.9469 98.0805 52.8694C98.0998 52.8113 98.1386 52.7338 98.1967 52.637L100.463 47.2625L94.8848 34.1023C94.8074 33.9086 94.7686 33.773 94.7686 33.6955C94.788 33.5212 94.8558 33.376 94.972 33.2598C95.0882 33.1242 95.2335 33.0564 95.4078 33.0564H97.7609C97.9933 33.0564 98.1676 33.1145 98.2838 33.2307C98.4 33.3469 98.4872 33.4728 98.5453 33.6084L102.409 43.1082L106.389 33.6084C106.447 33.4534 106.534 33.3276 106.651 33.2307C106.767 33.1145 106.941 33.0564 107.174 33.0564H109.498C109.653 33.0564 109.788 33.1145 109.904 33.2307C110.04 33.3469 110.108 33.4825 110.108 33.6374C110.108 33.7536 110.069 33.9086 109.992 34.1023L101.77 53.1309C101.693 53.2858 101.596 53.4117 101.479 53.5085C101.363 53.6247 101.189 53.6828 100.957 53.6828H98.6615ZM121.826 48.4536C120.025 48.4536 118.514 48.1921 117.294 47.6692C116.093 47.1269 115.173 46.4297 114.534 45.5775C113.914 44.706 113.585 43.7957 113.546 42.8467C113.546 42.6724 113.605 42.5271 113.721 42.4109C113.837 42.2947 113.982 42.2366 114.157 42.2366H116.742C116.994 42.2366 117.178 42.2947 117.294 42.4109C117.43 42.5078 117.546 42.6337 117.643 42.7886C117.759 43.1566 117.982 43.5246 118.311 43.8925C118.64 44.2412 119.086 44.5317 119.647 44.7641C120.228 44.9965 120.955 45.1127 121.826 45.1127C123.221 45.1127 124.257 44.8803 124.935 44.4155C125.632 43.9506 125.98 43.3212 125.98 42.5271C125.98 41.9655 125.796 41.52 125.428 41.1908C125.06 40.8422 124.489 40.5323 123.714 40.2611C122.959 39.9706 121.952 39.6704 120.693 39.3605C119.24 39.0119 118.02 38.5955 117.033 38.1113C116.064 37.6078 115.328 36.9783 114.825 36.223C114.341 35.4677 114.098 34.509 114.098 33.3469C114.098 32.2236 114.399 31.2262 114.999 30.3546C115.619 29.4831 116.49 28.7956 117.614 28.292C118.756 27.7884 120.112 27.5367 121.681 27.5367C122.94 27.5367 124.053 27.711 125.022 28.0596C125.99 28.3888 126.794 28.8343 127.433 29.396C128.072 29.9382 128.556 30.529 128.886 31.1681C129.234 31.7878 129.418 32.3979 129.437 32.9983C129.437 33.1533 129.379 33.2985 129.263 33.4341C129.166 33.5503 129.021 33.6084 128.827 33.6084H126.126C125.971 33.6084 125.816 33.5697 125.661 33.4922C125.506 33.4147 125.38 33.2695 125.283 33.0564C125.167 32.456 124.789 31.9428 124.15 31.5167C123.511 31.0906 122.688 30.8776 121.681 30.8776C120.635 30.8776 119.792 31.0712 119.153 31.4586C118.514 31.8459 118.195 32.4463 118.195 33.2598C118.195 33.8021 118.35 34.2572 118.659 34.6252C118.989 34.9738 119.502 35.2837 120.199 35.5548C120.916 35.826 121.855 36.1165 123.017 36.4264C124.663 36.7943 126.009 37.2204 127.055 37.7046C128.101 38.1888 128.866 38.8086 129.35 39.5639C129.835 40.2999 130.077 41.2392 130.077 42.3819C130.077 43.6601 129.728 44.7544 129.031 45.6647C128.353 46.5556 127.394 47.2431 126.155 47.7273C124.915 48.2115 123.472 48.4536 121.826 48.4536ZM137.851 48.1631C136.689 48.1631 135.711 47.9597 134.917 47.553C134.123 47.1463 133.532 46.5459 133.144 45.7518C132.757 44.9384 132.563 43.9313 132.563 42.7305V36.1359H130.268C130.075 36.1359 129.91 36.0681 129.775 35.9325C129.639 35.7969 129.571 35.6323 129.571 35.4386V33.7536C129.571 33.56 129.639 33.3953 129.775 33.2598C129.91 33.1242 130.075 33.0564 130.268 33.0564H132.563V28.2339C132.563 28.0402 132.622 27.8756 132.738 27.74C132.873 27.6045 133.048 27.5367 133.261 27.5367H135.614C135.808 27.5367 135.972 27.6045 136.108 27.74C136.243 27.8756 136.311 28.0402 136.311 28.2339V33.0564H139.942C140.136 33.0564 140.301 33.1242 140.436 33.2598C140.572 33.3953 140.64 33.56 140.64 33.7536V35.4386C140.64 35.6323 140.572 35.7969 140.436 35.9325C140.301 36.0681 140.136 36.1359 139.942 36.1359H136.311V42.44C136.311 43.2341 136.447 43.8538 136.718 44.2993C137.008 44.7447 137.502 44.9674 138.199 44.9674H140.204C140.398 44.9674 140.562 45.0352 140.698 45.1708C140.833 45.3064 140.901 45.471 140.901 45.6647V47.4659C140.901 47.6595 140.833 47.8242 140.698 47.9597C140.562 48.0953 140.398 48.1631 140.204 48.1631H137.851ZM148.127 48.4536C146.577 48.4536 145.27 48.1825 144.205 47.6402C143.159 47.0979 142.355 46.3329 141.793 45.3451C141.251 44.3574 140.941 43.205 140.864 41.888C140.844 41.5394 140.835 41.1133 140.835 40.6097C140.835 40.1062 140.844 39.6801 140.864 39.3315C140.941 37.9951 141.261 36.8428 141.822 35.8744C142.403 34.8866 143.217 34.1216 144.263 33.5793C145.328 33.037 146.616 32.7659 148.127 32.7659C149.637 32.7659 150.915 33.037 151.961 33.5793C153.027 34.1216 153.84 34.8866 154.402 35.8744C154.983 36.8428 155.312 37.9951 155.389 39.3315C155.409 39.6801 155.418 40.1062 155.418 40.6097C155.418 41.1133 155.409 41.5394 155.389 41.888C155.312 43.205 154.992 44.3574 154.431 45.3451C153.888 46.3329 153.085 47.0979 152.019 47.6402C150.974 48.1825 149.676 48.4536 148.127 48.4536ZM148.127 45.5775C149.153 45.5775 149.947 45.258 150.509 44.6188C151.07 43.9603 151.38 43.0016 151.438 41.7428C151.458 41.4522 151.467 41.0746 151.467 40.6097C151.467 40.1449 151.458 39.7673 151.438 39.4767C151.38 38.2372 151.07 37.2882 150.509 36.6297C149.947 35.9712 149.153 35.642 148.127 35.642C147.1 35.642 146.306 35.9712 145.744 36.6297C145.183 37.2882 144.873 38.2372 144.815 39.4767C144.795 39.7673 144.786 40.1449 144.786 40.6097C144.786 41.0746 144.795 41.4522 144.815 41.7428C144.873 43.0016 145.183 43.9603 145.744 44.6188C146.306 45.258 147.1 45.5775 148.127 45.5775ZM157.301 48.1631C157.107 48.1631 156.943 48.0953 156.807 47.9597C156.671 47.8242 156.604 47.6595 156.604 47.4659V33.7827C156.604 33.5697 156.671 33.3953 156.807 33.2598C156.943 33.1242 157.107 33.0564 157.301 33.0564H159.654C159.848 33.0564 160.012 33.1242 160.148 33.2598C160.303 33.3953 160.38 33.5697 160.38 33.7827V34.9738C160.826 34.354 161.397 33.8795 162.094 33.5503C162.811 33.221 163.634 33.0564 164.564 33.0564H165.755C165.968 33.0564 166.132 33.1242 166.249 33.2598C166.384 33.3953 166.452 33.56 166.452 33.7536V35.8453C166.452 36.039 166.384 36.2036 166.249 36.3392C166.132 36.4748 165.968 36.5426 165.755 36.5426H163.489C162.559 36.5426 161.833 36.804 161.31 37.327C160.806 37.8499 160.555 38.5665 160.555 39.4767V47.4659C160.555 47.6595 160.487 47.8242 160.351 47.9597C160.216 48.0953 160.041 48.1631 159.828 48.1631H157.301ZM172.993 48.4536C170.843 48.4536 169.139 47.8338 167.88 46.5943C166.621 45.3548 165.943 43.5923 165.846 41.307C165.827 41.1133 165.817 40.8712 165.817 40.5807C165.817 40.2708 165.827 40.0287 165.846 39.8544C165.924 38.4019 166.253 37.143 166.834 36.0777C167.435 35.0125 168.258 34.1991 169.304 33.6374C170.349 33.0564 171.579 32.7659 172.993 32.7659C174.562 32.7659 175.879 33.0951 176.944 33.7536C178.009 34.3928 178.813 35.2934 179.355 36.4554C179.898 37.5981 180.169 38.9248 180.169 40.4354V41.0455C180.169 41.2392 180.101 41.4038 179.965 41.5394C179.83 41.675 179.656 41.7428 179.442 41.7428H169.797C169.797 41.7428 169.797 41.7718 169.797 41.8299C169.797 41.888 169.797 41.9364 169.797 41.9752C169.817 42.653 169.943 43.2825 170.175 43.8635C170.427 44.4252 170.785 44.8803 171.25 45.2289C171.734 45.5775 172.306 45.7518 172.964 45.7518C173.506 45.7518 173.961 45.6744 174.329 45.5194C174.697 45.3451 174.998 45.1514 175.23 44.9384C175.462 44.7253 175.627 44.551 175.724 44.4155C175.898 44.1831 176.034 44.0475 176.131 44.0088C176.247 43.9506 176.411 43.9216 176.625 43.9216H179.123C179.317 43.9216 179.472 43.9797 179.588 44.0959C179.723 44.2121 179.781 44.3574 179.762 44.5317C179.743 44.8416 179.578 45.2192 179.268 45.6647C178.978 46.1101 178.552 46.5459 177.99 46.972C177.428 47.3981 176.721 47.7564 175.869 48.0469C175.036 48.318 174.078 48.4536 172.993 48.4536ZM169.797 39.3024H176.218V39.2153C176.218 38.46 176.092 37.8015 175.84 37.2398C175.588 36.6781 175.22 36.2327 174.736 35.9034C174.252 35.5742 173.671 35.4096 172.993 35.4096C172.315 35.4096 171.734 35.5742 171.25 35.9034C170.766 36.2327 170.398 36.6781 170.146 37.2398C169.914 37.8015 169.797 38.46 169.797 39.2153V39.3024Z" fill="white"/>
</svg>
