<svg width="188" height="65" viewBox="0 0 188 65" fill="none" xmlns="http://www.w3.org/2000/svg">
<rect x="0.56686" y="0.56686" width="186.312" height="63.8663" rx="10.0145" stroke="white" stroke-width="1.13372"/>
<path d="M40.6678 27.0305C40.4658 27.1853 36.9003 29.1696 36.9003 33.5817C36.9003 38.6851 41.4373 40.4906 41.5731 40.5353C41.5522 40.6453 40.8523 43.0079 39.181 45.4152C37.6907 47.5336 36.1343 49.6485 33.7666 49.6485C31.3988 49.6485 30.7895 48.2901 28.0562 48.2901C25.3925 48.2901 24.4454 49.6932 22.2796 49.6932C20.1138 49.6932 18.6027 47.733 16.8652 45.3258C14.8526 42.4989 13.2266 38.1074 13.2266 33.9394C13.2266 27.2541 17.6277 23.7085 21.9593 23.7085C24.2608 23.7085 26.1794 25.201 27.6244 25.201C28.9998 25.201 31.1446 23.6191 33.7631 23.6191C34.7554 23.6191 38.3209 23.7085 40.6678 27.0305ZM32.52 20.7888C33.6029 19.5198 34.3689 17.7591 34.3689 15.9984C34.3689 15.7542 34.348 15.5066 34.3028 15.3071C32.5409 15.3725 30.4448 16.4661 29.1808 17.9139C28.1885 19.0281 27.2623 20.7888 27.2623 22.5736C27.2623 22.8419 27.3075 23.1101 27.3284 23.1961C27.4399 23.2167 27.6209 23.2408 27.802 23.2408C29.3828 23.2408 31.371 22.1954 32.52 20.7888Z" fill="white"/>
<path d="M52.4196 22.4478C52.3282 22.4478 52.2506 22.4158 52.1866 22.3518C52.1226 22.2878 52.0906 22.2102 52.0906 22.1188V13.1954C52.0906 13.0949 52.1226 13.0127 52.1866 12.9487C52.2506 12.8847 52.3282 12.8528 52.4196 12.8528H55.7642C56.6871 12.8528 57.4456 12.9944 58.0395 13.2777C58.6426 13.561 59.095 13.9813 59.3965 14.5387C59.7072 15.0962 59.8672 15.777 59.8763 16.5811C59.8946 16.9832 59.9037 17.3396 59.9037 17.6503C59.9037 17.961 59.8946 18.3128 59.8763 18.7057C59.858 19.5555 59.7027 20.2592 59.4102 20.8166C59.1178 21.3649 58.6746 21.7761 58.0807 22.0502C57.4958 22.3153 56.7465 22.4478 55.8327 22.4478H52.4196ZM53.9959 20.8714H55.7642C56.2759 20.8714 56.6917 20.7983 57.0115 20.6521C57.3313 20.5059 57.5644 20.2729 57.7106 19.9531C57.8659 19.6241 57.9482 19.1946 57.9573 18.6646C57.9664 18.3904 57.971 18.1529 57.971 17.9518C57.9801 17.7416 57.9801 17.536 57.971 17.335C57.971 17.1248 57.9664 16.8872 57.9573 16.6222C57.939 15.8729 57.7517 15.32 57.3953 14.9637C57.0389 14.6073 56.4724 14.4291 55.6956 14.4291H53.9959V20.8714ZM64.7166 22.5848C63.9856 22.5848 63.3688 22.4569 62.8662 22.201C62.3727 21.9452 61.9935 21.5842 61.7285 21.1182C61.4726 20.6521 61.3264 20.1084 61.2898 19.487C61.2807 19.3225 61.2761 19.1215 61.2761 18.8839C61.2761 18.6463 61.2807 18.4453 61.2898 18.2808C61.3264 17.6503 61.4772 17.1065 61.7422 16.6496C62.0163 16.1836 62.4001 15.8226 62.8936 15.5668C63.3962 15.3109 64.0038 15.183 64.7166 15.183C65.4294 15.183 66.0325 15.3109 66.526 15.5668C67.0286 15.8226 67.4124 16.1836 67.6774 16.6496C67.9515 17.1065 68.1068 17.6503 68.1434 18.2808C68.1525 18.4453 68.1571 18.6463 68.1571 18.8839C68.1571 19.1215 68.1525 19.3225 68.1434 19.487C68.1068 20.1084 67.9561 20.6521 67.6911 21.1182C67.4352 21.5842 67.056 21.9452 66.5534 22.201C66.0599 22.4569 65.4477 22.5848 64.7166 22.5848ZM64.7166 21.2278C65.2009 21.2278 65.5756 21.077 65.8406 20.7755C66.1056 20.4648 66.2518 20.0125 66.2792 19.4185C66.2884 19.2814 66.2929 19.1032 66.2929 18.8839C66.2929 18.6646 66.2884 18.4864 66.2792 18.3493C66.2518 17.7645 66.1056 17.3167 65.8406 17.006C65.5756 16.6953 65.2009 16.54 64.7166 16.54C64.2323 16.54 63.8576 16.6953 63.5926 17.006C63.3276 17.3167 63.1814 17.7645 63.154 18.3493C63.1449 18.4864 63.1403 18.6646 63.1403 18.8839C63.1403 19.1032 63.1449 19.2814 63.154 19.4185C63.1814 20.0125 63.3276 20.4648 63.5926 20.7755C63.8576 21.077 64.2323 21.2278 64.7166 21.2278ZM71.4214 22.4478C71.2935 22.4478 71.1976 22.4158 71.1336 22.3518C71.0696 22.2878 71.0148 22.2056 70.9691 22.1051L69.009 15.745C68.9998 15.6993 68.9953 15.6582 68.9953 15.6216C68.9953 15.5394 69.0227 15.4708 69.0775 15.416C69.1415 15.352 69.21 15.32 69.2831 15.32H70.2975C70.4071 15.32 70.4939 15.352 70.5579 15.416C70.6219 15.4708 70.6584 15.5257 70.6675 15.5805L72.0108 20.1175L73.4364 15.6216C73.4547 15.5576 73.4958 15.4937 73.5598 15.4297C73.6237 15.3566 73.7197 15.32 73.8476 15.32H74.533C74.6609 15.32 74.7568 15.3566 74.8208 15.4297C74.8848 15.4937 74.9259 15.5576 74.9442 15.6216L76.3697 20.1175L77.713 15.5805C77.7222 15.5257 77.7541 15.4708 77.809 15.416C77.8729 15.352 77.9597 15.32 78.0694 15.32H79.0837C79.166 15.32 79.2345 15.352 79.2893 15.416C79.3533 15.4708 79.3853 15.5394 79.3853 15.6216C79.3853 15.6582 79.3761 15.6993 79.3579 15.745L77.3977 22.1051C77.3703 22.2056 77.3201 22.2878 77.247 22.3518C77.183 22.4158 77.0871 22.4478 76.9591 22.4478H76.0682C75.9402 22.4478 75.8397 22.4158 75.7666 22.3518C75.6935 22.2878 75.6432 22.2056 75.6158 22.1051L74.1903 17.7736L72.7647 22.1051C72.7282 22.2056 72.6734 22.2878 72.6003 22.3518C72.5363 22.4158 72.4358 22.4478 72.2987 22.4478H71.4214ZM81.0481 22.4478C80.9567 22.4478 80.8791 22.4158 80.8151 22.3518C80.7511 22.2878 80.7192 22.2102 80.7192 22.1188V15.649C80.7192 15.5576 80.7511 15.48 80.8151 15.416C80.8791 15.352 80.9567 15.32 81.0481 15.32H82.1721C82.2635 15.32 82.3412 15.352 82.4051 15.416C82.4691 15.48 82.5011 15.5576 82.5011 15.649V16.211C82.7387 15.9186 83.0402 15.6764 83.4058 15.4845C83.7804 15.2835 84.2419 15.183 84.7902 15.183C85.3476 15.183 85.8319 15.3109 86.2431 15.5668C86.6543 15.8135 86.9696 16.1653 87.1889 16.6222C87.4174 17.0791 87.5316 17.6274 87.5316 18.2671V22.1188C87.5316 22.2102 87.4996 22.2878 87.4357 22.3518C87.3717 22.4158 87.294 22.4478 87.2026 22.4478H85.9964C85.905 22.4478 85.8273 22.4158 85.7634 22.3518C85.6994 22.2878 85.6674 22.2102 85.6674 22.1188V18.3493C85.6674 17.8193 85.5349 17.4035 85.2699 17.102C85.0141 16.8004 84.6394 16.6496 84.1459 16.6496C83.6708 16.6496 83.2915 16.8004 83.0082 17.102C82.725 17.4035 82.5833 17.8193 82.5833 18.3493V22.1188C82.5833 22.2102 82.5513 22.2878 82.4874 22.3518C82.4234 22.4158 82.3457 22.4478 82.2544 22.4478H81.0481ZM89.6154 22.4478C89.524 22.4478 89.4464 22.4158 89.3824 22.3518C89.3184 22.2878 89.2864 22.2102 89.2864 22.1188V13.0447C89.2864 12.9533 89.3184 12.8756 89.3824 12.8116C89.4464 12.7477 89.524 12.7157 89.6154 12.7157H90.7531C90.8445 12.7157 90.9222 12.7477 90.9861 12.8116C91.0501 12.8756 91.0821 12.9533 91.0821 13.0447V22.1188C91.0821 22.2102 91.0501 22.2878 90.9861 22.3518C90.9222 22.4158 90.8445 22.4478 90.7531 22.4478H89.6154ZM96.0529 22.5848C95.3219 22.5848 94.7051 22.4569 94.2025 22.201C93.709 21.9452 93.3298 21.5842 93.0648 21.1182C92.8089 20.6521 92.6627 20.1084 92.6262 19.487C92.617 19.3225 92.6124 19.1215 92.6124 18.8839C92.6124 18.6463 92.617 18.4453 92.6262 18.2808C92.6627 17.6503 92.8135 17.1065 93.0785 16.6496C93.3526 16.1836 93.7364 15.8226 94.2299 15.5668C94.7325 15.3109 95.3402 15.183 96.0529 15.183C96.7657 15.183 97.3688 15.3109 97.8623 15.5668C98.3649 15.8226 98.7487 16.1836 99.0137 16.6496C99.2878 17.1065 99.4432 17.6503 99.4797 18.2808C99.4889 18.4453 99.4934 18.6463 99.4934 18.8839C99.4934 19.1215 99.4889 19.3225 99.4797 19.487C99.4432 20.1084 99.2924 20.6521 99.0274 21.1182C98.7715 21.5842 98.3923 21.9452 97.8897 22.201C97.3962 22.4569 96.784 22.5848 96.0529 22.5848ZM96.0529 21.2278C96.5373 21.2278 96.9119 21.077 97.1769 20.7755C97.4419 20.4648 97.5881 20.0125 97.6156 19.4185C97.6247 19.2814 97.6293 19.1032 97.6293 18.8839C97.6293 18.6646 97.6247 18.4864 97.6156 18.3493C97.5881 17.7645 97.4419 17.3167 97.1769 17.006C96.9119 16.6953 96.5373 16.54 96.0529 16.54C95.5686 16.54 95.194 16.6953 94.929 17.006C94.6639 17.3167 94.5177 17.7645 94.4903 18.3493C94.4812 18.4864 94.4766 18.6646 94.4766 18.8839C94.4766 19.1032 94.4812 19.2814 94.4903 19.4185C94.5177 20.0125 94.6639 20.4648 94.929 20.7755C95.194 21.077 95.5686 21.2278 96.0529 21.2278ZM103.082 22.5848C102.607 22.5848 102.177 22.4934 101.793 22.3107C101.41 22.1188 101.104 21.8675 100.875 21.5568C100.656 21.237 100.546 20.8806 100.546 20.4876C100.546 19.848 100.802 19.3408 101.314 18.9661C101.835 18.5823 102.52 18.3265 103.37 18.1985L105.248 17.9244V17.6366C105.248 17.2528 105.152 16.9558 104.96 16.7456C104.768 16.5354 104.439 16.4303 103.973 16.4303C103.644 16.4303 103.374 16.4989 103.164 16.6359C102.963 16.7639 102.812 16.9375 102.712 17.1568C102.639 17.2756 102.534 17.335 102.397 17.335H101.314C101.213 17.335 101.135 17.3076 101.081 17.2528C101.035 17.1979 101.012 17.1248 101.012 17.0334C101.021 16.8872 101.081 16.709 101.19 16.4989C101.3 16.2887 101.474 16.0876 101.711 15.8957C101.949 15.6947 102.255 15.5257 102.63 15.3886C103.004 15.2515 103.457 15.183 103.987 15.183C104.562 15.183 105.047 15.2561 105.44 15.4023C105.842 15.5394 106.161 15.7267 106.399 15.9643C106.637 16.2019 106.81 16.4806 106.92 16.8004C107.03 17.1202 107.084 17.4584 107.084 17.8147V22.1188C107.084 22.2102 107.052 22.2878 106.988 22.3518C106.924 22.4158 106.847 22.4478 106.755 22.4478H105.645C105.545 22.4478 105.462 22.4158 105.398 22.3518C105.344 22.2878 105.316 22.2102 105.316 22.1188V21.5842C105.197 21.7578 105.037 21.9223 104.836 22.0777C104.635 22.2239 104.389 22.3472 104.096 22.4478C103.813 22.5391 103.475 22.5848 103.082 22.5848ZM103.548 21.2826C103.868 21.2826 104.156 21.2141 104.411 21.077C104.677 20.94 104.882 20.7298 105.028 20.4465C105.184 20.1541 105.261 19.7886 105.261 19.3499V19.0621L103.891 19.2814C103.351 19.3636 102.949 19.4962 102.684 19.6789C102.419 19.8617 102.287 20.0856 102.287 20.3506C102.287 20.5516 102.346 20.7252 102.465 20.8714C102.593 21.0085 102.753 21.1136 102.945 21.1867C103.137 21.2507 103.338 21.2826 103.548 21.2826ZM111.488 22.5848C111.013 22.5848 110.593 22.5072 110.227 22.3518C109.871 22.1873 109.574 21.9589 109.336 21.6664C109.099 21.374 108.916 21.0314 108.788 20.6384C108.66 20.2363 108.587 19.7977 108.569 19.3225C108.56 19.158 108.555 19.0118 108.555 18.8839C108.555 18.7468 108.56 18.5961 108.569 18.4316C108.587 17.9747 108.656 17.5497 108.774 17.1568C108.902 16.7639 109.085 16.4212 109.323 16.1288C109.569 15.8272 109.871 15.5942 110.227 15.4297C110.593 15.2652 111.013 15.183 111.488 15.183C111.982 15.183 112.398 15.2698 112.736 15.4434C113.083 15.6079 113.371 15.8226 113.599 16.0876V13.0447C113.599 12.9533 113.627 12.8756 113.681 12.8116C113.745 12.7477 113.828 12.7157 113.928 12.7157H115.093C115.185 12.7157 115.262 12.7477 115.326 12.8116C115.39 12.8756 115.422 12.9533 115.422 13.0447V22.1188C115.422 22.2102 115.39 22.2878 115.326 22.3518C115.262 22.4158 115.185 22.4478 115.093 22.4478H114.01C113.91 22.4478 113.828 22.4158 113.764 22.3518C113.709 22.2878 113.681 22.2102 113.681 22.1188V21.6116C113.453 21.8949 113.161 22.1279 112.804 22.3107C112.457 22.4934 112.018 22.5848 111.488 22.5848ZM111.996 21.1182C112.379 21.1182 112.685 21.0314 112.914 20.8577C113.142 20.6841 113.311 20.4648 113.421 20.1998C113.531 19.9256 113.59 19.6469 113.599 19.3636C113.608 19.1992 113.613 19.0255 113.613 18.8428C113.613 18.6509 113.608 18.4727 113.599 18.3082C113.59 18.0341 113.526 17.7736 113.407 17.5269C113.289 17.271 113.115 17.0609 112.886 16.8964C112.658 16.7319 112.361 16.6496 111.996 16.6496C111.612 16.6496 111.306 16.7365 111.077 16.9101C110.858 17.0746 110.698 17.2939 110.597 17.568C110.497 17.8422 110.437 18.1437 110.419 18.4727C110.41 18.7468 110.41 19.021 110.419 19.2951C110.437 19.6241 110.497 19.9256 110.597 20.1998C110.698 20.4739 110.858 20.6978 111.077 20.8714C111.306 21.0359 111.612 21.1182 111.996 21.1182ZM123.534 22.5848C122.803 22.5848 122.186 22.4569 121.684 22.201C121.19 21.9452 120.811 21.5842 120.546 21.1182C120.29 20.6521 120.144 20.1084 120.107 19.487C120.098 19.3225 120.094 19.1215 120.094 18.8839C120.094 18.6463 120.098 18.4453 120.107 18.2808C120.144 17.6503 120.295 17.1065 120.56 16.6496C120.834 16.1836 121.218 15.8226 121.711 15.5668C122.214 15.3109 122.821 15.183 123.534 15.183C124.247 15.183 124.85 15.3109 125.343 15.5668C125.846 15.8226 126.23 16.1836 126.495 16.6496C126.769 17.1065 126.924 17.6503 126.961 18.2808C126.97 18.4453 126.975 18.6463 126.975 18.8839C126.975 19.1215 126.97 19.3225 126.961 19.487C126.924 20.1084 126.774 20.6521 126.509 21.1182C126.253 21.5842 125.873 21.9452 125.371 22.201C124.877 22.4569 124.265 22.5848 123.534 22.5848ZM123.534 21.2278C124.018 21.2278 124.393 21.077 124.658 20.7755C124.923 20.4648 125.069 20.0125 125.097 19.4185C125.106 19.2814 125.11 19.1032 125.11 18.8839C125.11 18.6646 125.106 18.4864 125.097 18.3493C125.069 17.7645 124.923 17.3167 124.658 17.006C124.393 16.6953 124.018 16.54 123.534 16.54C123.05 16.54 122.675 16.6953 122.41 17.006C122.145 17.3167 121.999 17.7645 121.972 18.3493C121.962 18.4864 121.958 18.6646 121.958 18.8839C121.958 19.1032 121.962 19.2814 121.972 19.4185C121.999 20.0125 122.145 20.4648 122.41 20.7755C122.675 21.077 123.05 21.2278 123.534 21.2278ZM128.822 22.4478C128.731 22.4478 128.653 22.4158 128.589 22.3518C128.525 22.2878 128.493 22.2102 128.493 22.1188V15.649C128.493 15.5576 128.525 15.48 128.589 15.416C128.653 15.352 128.731 15.32 128.822 15.32H129.946C130.038 15.32 130.115 15.352 130.179 15.416C130.243 15.48 130.275 15.5576 130.275 15.649V16.211C130.513 15.9186 130.814 15.6764 131.18 15.4845C131.555 15.2835 132.016 15.183 132.564 15.183C133.122 15.183 133.606 15.3109 134.017 15.5668C134.429 15.8135 134.744 16.1653 134.963 16.6222C135.192 17.0791 135.306 17.6274 135.306 18.2671V22.1188C135.306 22.2102 135.274 22.2878 135.21 22.3518C135.146 22.4158 135.068 22.4478 134.977 22.4478H133.771C133.679 22.4478 133.602 22.4158 133.538 22.3518C133.474 22.2878 133.442 22.2102 133.442 22.1188V18.3493C133.442 17.8193 133.309 17.4035 133.044 17.102C132.788 16.8004 132.414 16.6496 131.92 16.6496C131.445 16.6496 131.066 16.8004 130.782 17.102C130.499 17.4035 130.357 17.8193 130.357 18.3493V22.1188C130.357 22.2102 130.326 22.2878 130.262 22.3518C130.198 22.4158 130.12 22.4478 130.029 22.4478H128.822ZM143.119 22.4478C142.571 22.4478 142.109 22.3518 141.735 22.1599C141.36 21.968 141.081 21.6847 140.899 21.3101C140.716 20.9263 140.625 20.4511 140.625 19.8845V16.773H139.542C139.45 16.773 139.373 16.741 139.309 16.6771C139.245 16.6131 139.213 16.5354 139.213 16.444V15.649C139.213 15.5576 139.245 15.48 139.309 15.416C139.373 15.352 139.45 15.32 139.542 15.32H140.625V13.0447C140.625 12.9533 140.652 12.8756 140.707 12.8116C140.771 12.7477 140.853 12.7157 140.954 12.7157H142.064C142.155 12.7157 142.233 12.7477 142.297 12.8116C142.361 12.8756 142.393 12.9533 142.393 13.0447V15.32H144.106C144.198 15.32 144.275 15.352 144.339 15.416C144.403 15.48 144.435 15.5576 144.435 15.649V16.444C144.435 16.5354 144.403 16.6131 144.339 16.6771C144.275 16.741 144.198 16.773 144.106 16.773H142.393V19.7474C142.393 20.1221 142.457 20.4145 142.585 20.6247C142.722 20.8349 142.955 20.94 143.284 20.94H144.23C144.321 20.94 144.399 20.972 144.463 21.0359C144.527 21.0999 144.559 21.1776 144.559 21.2689V22.1188C144.559 22.2102 144.527 22.2878 144.463 22.3518C144.399 22.4158 144.321 22.4478 144.23 22.4478H143.119ZM146.117 22.4478C146.026 22.4478 145.948 22.4158 145.884 22.3518C145.82 22.2878 145.788 22.2102 145.788 22.1188V13.0447C145.788 12.9533 145.82 12.8756 145.884 12.8116C145.948 12.7477 146.026 12.7157 146.117 12.7157H147.337C147.438 12.7157 147.515 12.7477 147.57 12.8116C147.634 12.8756 147.666 12.9533 147.666 13.0447V16.1699C147.913 15.8775 148.214 15.6399 148.571 15.4571C148.927 15.2744 149.366 15.183 149.887 15.183C150.444 15.183 150.928 15.3109 151.34 15.5668C151.76 15.8135 152.084 16.1653 152.313 16.6222C152.541 17.0791 152.655 17.6274 152.655 18.2671V22.1188C152.655 22.2102 152.623 22.2878 152.56 22.3518C152.496 22.4158 152.418 22.4478 152.326 22.4478H151.093C151.001 22.4478 150.924 22.4158 150.86 22.3518C150.796 22.2878 150.764 22.2102 150.764 22.1188V18.3493C150.764 17.8193 150.631 17.4035 150.366 17.102C150.11 16.8004 149.736 16.6496 149.242 16.6496C148.767 16.6496 148.383 16.8004 148.091 17.102C147.808 17.4035 147.666 17.8193 147.666 18.3493V22.1188C147.666 22.2102 147.634 22.2878 147.57 22.3518C147.515 22.4158 147.438 22.4478 147.337 22.4478H146.117ZM157.465 22.5848C156.451 22.5848 155.647 22.2924 155.053 21.7076C154.459 21.1227 154.139 20.2912 154.093 19.2129C154.084 19.1215 154.08 19.0073 154.08 18.8702C154.08 18.724 154.084 18.6098 154.093 18.5275C154.13 17.8422 154.285 17.2482 154.559 16.7456C154.843 16.243 155.231 15.8592 155.725 15.5942C156.218 15.32 156.798 15.183 157.465 15.183C158.206 15.183 158.827 15.3383 159.33 15.649C159.832 15.9506 160.211 16.3755 160.467 16.9238C160.723 17.4629 160.851 18.0889 160.851 18.8017V19.0895C160.851 19.1809 160.819 19.2586 160.755 19.3225C160.691 19.3865 160.609 19.4185 160.508 19.4185H155.958C155.958 19.4185 155.958 19.4322 155.958 19.4596C155.958 19.487 155.958 19.5099 155.958 19.5281C155.967 19.848 156.026 20.145 156.136 20.4191C156.255 20.6841 156.424 20.8988 156.643 21.0633C156.871 21.2278 157.141 21.3101 157.452 21.3101C157.708 21.3101 157.922 21.2735 158.096 21.2004C158.27 21.1182 158.411 21.0268 158.521 20.9263C158.63 20.8257 158.708 20.7435 158.754 20.6795C158.836 20.5699 158.9 20.5059 158.946 20.4876C159.001 20.4602 159.078 20.4465 159.179 20.4465H160.358C160.449 20.4465 160.522 20.4739 160.577 20.5288C160.641 20.5836 160.668 20.6521 160.659 20.7344C160.65 20.8806 160.572 21.0588 160.426 21.2689C160.289 21.4791 160.088 21.6847 159.823 21.8858C159.558 22.0868 159.224 22.2559 158.822 22.3929C158.429 22.5209 157.977 22.5848 157.465 22.5848ZM155.958 18.2671H158.987V18.226C158.987 17.8696 158.927 17.5589 158.809 17.2939C158.69 17.0289 158.516 16.8187 158.288 16.6633C158.059 16.508 157.785 16.4303 157.465 16.4303C157.146 16.4303 156.871 16.508 156.643 16.6633C156.414 16.8187 156.241 17.0289 156.122 17.2939C156.012 17.5589 155.958 17.8696 155.958 18.226V18.2671Z" fill="white"/>
<path d="M52.0383 48.1631C51.8833 48.1631 51.7381 48.105 51.6025 47.9888C51.4863 47.8726 51.4282 47.7273 51.4282 47.553C51.4282 47.4755 51.4476 47.3884 51.4863 47.2915L58.4877 28.5535C58.5458 28.3598 58.6523 28.1952 58.8072 28.0596C58.9815 27.9047 59.2139 27.8272 59.5045 27.8272H62.6711C62.9616 27.8272 63.1843 27.9047 63.3392 28.0596C63.4942 28.1952 63.6104 28.3598 63.6878 28.5535L70.6892 47.2915C70.7086 47.3884 70.7183 47.4755 70.7183 47.553C70.7183 47.7273 70.6602 47.8726 70.544 47.9888C70.4277 48.105 70.2922 48.1631 70.1372 48.1631H67.6098C67.3386 48.1631 67.1353 48.105 66.9997 47.9888C66.8835 47.8532 66.806 47.7273 66.7673 47.6111L65.4019 44.0669H56.7736L55.4082 47.6111C55.3695 47.7273 55.2823 47.8532 55.1468 47.9888C55.0306 48.105 54.8369 48.1631 54.5657 48.1631H52.0383ZM57.7904 40.726H64.3851L61.0732 31.7491L57.7904 40.726ZM71.7745 53.6828C71.5809 53.6828 71.4162 53.615 71.2807 53.4795C71.1451 53.3439 71.0773 53.1793 71.0773 52.9856V33.7536C71.0773 33.56 71.1451 33.3953 71.2807 33.2598C71.4162 33.1242 71.5809 33.0564 71.7745 33.0564H74.0696C74.2826 33.0564 74.4473 33.1242 74.5635 33.2598C74.699 33.3953 74.7668 33.56 74.7668 33.7536V34.9157C75.2316 34.2959 75.8417 33.7827 76.5971 33.376C77.3524 32.9693 78.2917 32.7659 79.415 32.7659C80.4415 32.7659 81.3324 32.9305 82.0878 33.2598C82.8431 33.589 83.4725 34.0635 83.9761 34.6833C84.4796 35.2837 84.867 36.0003 85.1381 36.8331C85.4093 37.6659 85.5642 38.5858 85.603 39.593C85.6223 39.9222 85.632 40.2611 85.632 40.6097C85.632 40.9584 85.6223 41.307 85.603 41.6556C85.5836 42.624 85.4383 43.5246 85.1672 44.3574C84.896 45.1708 84.499 45.8874 83.9761 46.5072C83.4725 47.1076 82.8431 47.5821 82.0878 47.9307C81.3324 48.2793 80.4415 48.4536 79.415 48.4536C78.3692 48.4536 77.4783 48.2696 76.7423 47.9016C76.0064 47.5143 75.406 47.0107 74.9411 46.391V52.9856C74.9411 53.1793 74.8734 53.3439 74.7378 53.4795C74.6216 53.615 74.4569 53.6828 74.2439 53.6828H71.7745ZM78.3401 45.3451C79.1729 45.3451 79.8218 45.1708 80.2866 44.8222C80.7514 44.4542 81.0806 43.9797 81.2743 43.3987C81.4874 42.8176 81.6133 42.1785 81.652 41.4813C81.6907 40.9003 81.6907 40.3192 81.652 39.7382C81.6133 39.041 81.4874 38.4019 81.2743 37.8208C81.0806 37.2398 80.7514 36.775 80.2866 36.4264C79.8218 36.0584 79.1729 35.8744 78.3401 35.8744C77.5461 35.8744 76.8973 36.0584 76.3937 36.4264C75.9095 36.7943 75.5512 37.2689 75.3188 37.8499C75.1058 38.4115 74.9799 38.9926 74.9411 39.593C74.9218 39.9416 74.9121 40.3096 74.9121 40.6969C74.9121 41.0843 74.9218 41.4619 74.9411 41.8299C74.9605 42.4109 75.0961 42.9726 75.3479 43.5149C75.5996 44.0378 75.9676 44.4736 76.4518 44.8222C76.936 45.1708 77.5654 45.3451 78.3401 45.3451ZM87.5859 53.6828C87.3923 53.6828 87.2276 53.615 87.0921 53.4795C86.9565 53.3439 86.8887 53.1793 86.8887 52.9856V33.7536C86.8887 33.56 86.9565 33.3953 87.0921 33.2598C87.2276 33.1242 87.3923 33.0564 87.5859 33.0564H89.881C90.094 33.0564 90.2587 33.1242 90.3749 33.2598C90.5104 33.3953 90.5782 33.56 90.5782 33.7536V34.9157C91.043 34.2959 91.6531 33.7827 92.4085 33.376C93.1638 32.9693 94.1031 32.7659 95.2264 32.7659C96.2529 32.7659 97.1438 32.9305 97.8991 33.2598C98.6545 33.589 99.2839 34.0635 99.7875 34.6833C100.291 35.2837 100.678 36.0003 100.95 36.8331C101.221 37.6659 101.376 38.5858 101.414 39.593C101.434 39.9222 101.443 40.2611 101.443 40.6097C101.443 40.9584 101.434 41.307 101.414 41.6556C101.395 42.624 101.25 43.5246 100.979 44.3574C100.707 45.1708 100.31 45.8874 99.7875 46.5072C99.2839 47.1076 98.6545 47.5821 97.8991 47.9307C97.1438 48.2793 96.2529 48.4536 95.2264 48.4536C94.1806 48.4536 93.2897 48.2696 92.5537 47.9016C91.8177 47.5143 91.2173 47.0107 90.7525 46.391V52.9856C90.7525 53.1793 90.6847 53.3439 90.5492 53.4795C90.433 53.615 90.2683 53.6828 90.0553 53.6828H87.5859ZM94.1515 45.3451C94.9843 45.3451 95.6331 45.1708 96.098 44.8222C96.5628 44.4542 96.892 43.9797 97.0857 43.3987C97.2988 42.8176 97.4246 42.1785 97.4634 41.4813C97.5021 40.9003 97.5021 40.3192 97.4634 39.7382C97.4246 39.041 97.2988 38.4019 97.0857 37.8208C96.892 37.2398 96.5628 36.775 96.098 36.4264C95.6331 36.0584 94.9843 35.8744 94.1515 35.8744C93.3575 35.8744 92.7086 36.0584 92.2051 36.4264C91.7209 36.7943 91.3626 37.2689 91.1302 37.8499C90.9172 38.4115 90.7913 38.9926 90.7525 39.593C90.7332 39.9416 90.7235 40.3096 90.7235 40.6969C90.7235 41.0843 90.7332 41.4619 90.7525 41.8299C90.7719 42.4109 90.9075 42.9726 91.1592 43.5149C91.411 44.0378 91.779 44.4736 92.2632 44.8222C92.7474 45.1708 93.3768 45.3451 94.1515 45.3451ZM114.684 48.4536C112.883 48.4536 111.372 48.1921 110.152 47.6692C108.951 47.1269 108.031 46.4297 107.392 45.5775C106.773 44.706 106.443 43.7957 106.405 42.8467C106.405 42.6724 106.463 42.5271 106.579 42.4109C106.695 42.2947 106.84 42.2366 107.015 42.2366H109.6C109.852 42.2366 110.036 42.2947 110.152 42.4109C110.288 42.5078 110.404 42.6337 110.501 42.7886C110.617 43.1566 110.84 43.5246 111.169 43.8925C111.498 44.2412 111.944 44.5317 112.505 44.7641C113.086 44.9965 113.813 45.1127 114.684 45.1127C116.079 45.1127 117.115 44.8803 117.793 44.4155C118.49 43.9506 118.839 43.3212 118.839 42.5271C118.839 41.9655 118.655 41.52 118.287 41.1908C117.919 40.8422 117.347 40.5323 116.573 40.2611C115.817 39.9706 114.81 39.6704 113.551 39.3605C112.099 39.0119 110.878 38.5955 109.891 38.1113C108.922 37.6078 108.186 36.9783 107.683 36.223C107.199 35.4677 106.957 34.509 106.957 33.3469C106.957 32.2236 107.257 31.2262 107.857 30.3546C108.477 29.4831 109.348 28.7956 110.472 28.292C111.614 27.7884 112.97 27.5367 114.539 27.5367C115.798 27.5367 116.911 27.711 117.88 28.0596C118.848 28.3888 119.652 28.8343 120.291 29.396C120.93 29.9382 121.414 30.529 121.744 31.1681C122.092 31.7878 122.276 32.3979 122.296 32.9983C122.296 33.1533 122.238 33.2985 122.121 33.4341C122.025 33.5503 121.879 33.6084 121.686 33.6084H118.984C118.829 33.6084 118.674 33.5697 118.519 33.4922C118.364 33.4147 118.238 33.2695 118.141 33.0564C118.025 32.456 117.647 31.9428 117.008 31.5167C116.369 31.0906 115.546 30.8776 114.539 30.8776C113.493 30.8776 112.651 31.0712 112.011 31.4586C111.372 31.8459 111.053 32.4463 111.053 33.2598C111.053 33.8021 111.208 34.2572 111.518 34.6252C111.847 34.9738 112.36 35.2837 113.057 35.5548C113.774 35.826 114.713 36.1165 115.875 36.4264C117.522 36.7943 118.868 37.2204 119.913 37.7046C120.959 38.1888 121.724 38.8086 122.208 39.5639C122.693 40.2999 122.935 41.2392 122.935 42.3819C122.935 43.6601 122.586 44.7544 121.889 45.6647C121.211 46.5556 120.252 47.2431 119.013 47.7273C117.773 48.2115 116.33 48.4536 114.684 48.4536ZM130.709 48.1631C129.547 48.1631 128.569 47.9597 127.775 47.553C126.981 47.1463 126.39 46.5459 126.003 45.7518C125.615 44.9384 125.422 43.9313 125.422 42.7305V36.1359H123.127C122.933 36.1359 122.768 36.0681 122.633 35.9325C122.497 35.7969 122.429 35.6323 122.429 35.4386V33.7536C122.429 33.56 122.497 33.3953 122.633 33.2598C122.768 33.1242 122.933 33.0564 123.127 33.0564H125.422V28.2339C125.422 28.0402 125.48 27.8756 125.596 27.74C125.731 27.6045 125.906 27.5367 126.119 27.5367H128.472C128.666 27.5367 128.83 27.6045 128.966 27.74C129.101 27.8756 129.169 28.0402 129.169 28.2339V33.0564H132.801C132.994 33.0564 133.159 33.1242 133.295 33.2598C133.43 33.3953 133.498 33.56 133.498 33.7536V35.4386C133.498 35.6323 133.43 35.7969 133.295 35.9325C133.159 36.0681 132.994 36.1359 132.801 36.1359H129.169V42.44C129.169 43.2341 129.305 43.8538 129.576 44.2993C129.866 44.7447 130.36 44.9674 131.058 44.9674H133.062C133.256 44.9674 133.42 45.0352 133.556 45.1708C133.692 45.3064 133.759 45.471 133.759 45.6647V47.4659C133.759 47.6595 133.692 47.8242 133.556 47.9597C133.42 48.0953 133.256 48.1631 133.062 48.1631H130.709ZM140.985 48.4536C139.435 48.4536 138.128 48.1825 137.063 47.6402C136.017 47.0979 135.213 46.3329 134.652 45.3451C134.109 44.3574 133.799 43.205 133.722 41.888C133.703 41.5394 133.693 41.1133 133.693 40.6097C133.693 40.1062 133.703 39.6801 133.722 39.3315C133.799 37.9951 134.119 36.8428 134.681 35.8744C135.262 34.8866 136.075 34.1216 137.121 33.5793C138.186 33.037 139.474 32.7659 140.985 32.7659C142.495 32.7659 143.774 33.037 144.819 33.5793C145.885 34.1216 146.698 34.8866 147.26 35.8744C147.841 36.8428 148.17 37.9951 148.248 39.3315C148.267 39.6801 148.277 40.1062 148.277 40.6097C148.277 41.1133 148.267 41.5394 148.248 41.888C148.17 43.205 147.85 44.3574 147.289 45.3451C146.747 46.3329 145.943 47.0979 144.878 47.6402C143.832 48.1825 142.534 48.4536 140.985 48.4536ZM140.985 45.5775C142.011 45.5775 142.805 45.258 143.367 44.6188C143.929 43.9603 144.238 43.0016 144.297 41.7428C144.316 41.4522 144.326 41.0746 144.326 40.6097C144.326 40.1449 144.316 39.7673 144.297 39.4767C144.238 38.2372 143.929 37.2882 143.367 36.6297C142.805 35.9712 142.011 35.642 140.985 35.642C139.958 35.642 139.164 35.9712 138.602 36.6297C138.041 37.2882 137.731 38.2372 137.673 39.4767C137.653 39.7673 137.644 40.1449 137.644 40.6097C137.644 41.0746 137.653 41.4522 137.673 41.7428C137.731 43.0016 138.041 43.9603 138.602 44.6188C139.164 45.258 139.958 45.5775 140.985 45.5775ZM150.159 48.1631C149.965 48.1631 149.801 48.0953 149.665 47.9597C149.53 47.8242 149.462 47.6595 149.462 47.4659V33.7827C149.462 33.5697 149.53 33.3953 149.665 33.2598C149.801 33.1242 149.965 33.0564 150.159 33.0564H152.512C152.706 33.0564 152.87 33.1242 153.006 33.2598C153.161 33.3953 153.238 33.5697 153.238 33.7827V34.9738C153.684 34.354 154.255 33.8795 154.952 33.5503C155.669 33.221 156.492 33.0564 157.422 33.0564H158.613C158.826 33.0564 158.991 33.1242 159.107 33.2598C159.242 33.3953 159.31 33.56 159.31 33.7536V35.8453C159.31 36.039 159.242 36.2036 159.107 36.3392C158.991 36.4748 158.826 36.5426 158.613 36.5426H156.347C155.417 36.5426 154.691 36.804 154.168 37.327C153.665 37.8499 153.413 38.5665 153.413 39.4767V47.4659C153.413 47.6595 153.345 47.8242 153.209 47.9597C153.074 48.0953 152.9 48.1631 152.686 48.1631H150.159ZM165.851 48.4536C163.701 48.4536 161.997 47.8338 160.738 46.5943C159.479 45.3548 158.801 43.5923 158.705 41.307C158.685 41.1133 158.676 40.8712 158.676 40.5807C158.676 40.2708 158.685 40.0287 158.705 39.8544C158.782 38.4019 159.111 37.143 159.692 36.0777C160.293 35.0125 161.116 34.1991 162.162 33.6374C163.208 33.0564 164.437 32.7659 165.851 32.7659C167.42 32.7659 168.737 33.0951 169.802 33.7536C170.867 34.3928 171.671 35.2934 172.213 36.4554C172.756 37.5981 173.027 38.9248 173.027 40.4354V41.0455C173.027 41.2392 172.959 41.4038 172.824 41.5394C172.688 41.675 172.514 41.7428 172.301 41.7428H162.656C162.656 41.7428 162.656 41.7718 162.656 41.8299C162.656 41.888 162.656 41.9364 162.656 41.9752C162.675 42.653 162.801 43.2825 163.033 43.8635C163.285 44.4252 163.643 44.8803 164.108 45.2289C164.592 45.5775 165.164 45.7518 165.822 45.7518C166.364 45.7518 166.82 45.6744 167.188 45.5194C167.556 45.3451 167.856 45.1514 168.088 44.9384C168.321 44.7253 168.485 44.551 168.582 44.4155C168.756 44.1831 168.892 44.0475 168.989 44.0088C169.105 43.9506 169.27 43.9216 169.483 43.9216H171.981C172.175 43.9216 172.33 43.9797 172.446 44.0959C172.581 44.2121 172.64 44.3574 172.62 44.5317C172.601 44.8416 172.436 45.2192 172.126 45.6647C171.836 46.1101 171.41 46.5459 170.848 46.972C170.286 47.3981 169.58 47.7564 168.727 48.0469C167.895 48.318 166.936 48.4536 165.851 48.4536ZM162.656 39.3024H169.076V39.2153C169.076 38.46 168.95 37.8015 168.698 37.2398C168.446 36.6781 168.079 36.2327 167.594 35.9034C167.11 35.5742 166.529 35.4096 165.851 35.4096C165.173 35.4096 164.592 35.5742 164.108 35.9034C163.624 36.2327 163.256 36.6781 163.004 37.2398C162.772 37.8015 162.656 38.46 162.656 39.2153V39.3024Z" fill="white"/>
</svg>
