<svg width="35" height="38" viewBox="0 0 35 38" fill="none" xmlns="http://www.w3.org/2000/svg">
<path d="M25.3736 24.472C29.7256 22.0396 33.0537 20.1864 33.3381 20.0416C34.2483 19.5493 35.187 18.2462 33.3381 17.2327C32.7408 16.9142 29.5265 15.1188 25.3736 12.8022L19.6562 18.6516L25.3736 24.472Z" fill="#FFDD33"/>
<path d="M19.654 18.6514L1.39258 37.3867C1.81925 37.4446 2.3028 37.3288 2.8717 37.0103C4.06637 36.3443 16.7527 29.2787 25.3714 24.4718L19.654 18.6514Z" fill="#FF6666"/>
<path d="M19.6551 18.6517L25.3725 12.8023C25.3725 12.8023 4.15281 1.01669 2.8728 0.321711C2.38924 0.0321381 1.84879 -0.0547338 1.36523 0.032138L19.6551 18.6517Z" fill="#7BFF7B"/>
<path d="M19.6552 18.6518L1.36534 0.0322266C0.625781 0.20597 0 0.871989 0 2.23298C0 4.40478 0 33.3621 0 35.1864C0 36.4315 0.483559 37.3292 1.39379 37.4161L19.6552 18.6518Z" fill="#6ED8FF"/>
</svg>
